<?xml version="1.0" standalone="no"?>
<!DOCTYPE svg PUBLIC "-//W3C//DTD SVG 20010904//EN"
 "http://www.w3.org/TR/2001/REC-SVG-20010904/DTD/svg10.dtd">
<svg version="1.0" xmlns="http://www.w3.org/2000/svg"
 width="177.000000pt" height="118.000000pt" viewBox="0 0 177.000000 118.000000"
 preserveAspectRatio="xMidYMid meet">

<g transform="translate(0.000000,118.000000) scale(0.100000,-0.100000)"
fill="#000000" stroke="none">
<path d="M400 1115 c0 -63 1 -65 26 -65 39 0 54 22 54 79 l0 51 -40 0 -40 0 0
-65z"/>
<path d="M530 1135 c0 -25 -4 -45 -10 -45 -5 0 -10 7 -10 15 0 8 -4 15 -10 15
-22 0 -8 -30 18 -36 15 -4 30 -12 34 -18 4 -6 8 17 8 52 0 48 -3 62 -15 62
-11 0 -15 -12 -15 -45z"/>
<path d="M580 1130 c0 -27 5 -50 10 -50 6 0 10 5 10 11 0 5 4 8 9 5 4 -3 28
-2 52 2 32 6 44 12 44 25 0 9 4 17 8 17 4 0 14 0 22 0 8 0 14 -5 13 -11 -2 -8
17 -11 62 -10 74 3 80 5 80 32 0 24 -29 37 -41 18 -7 -11 -9 -11 -9 -1 0 9
-14 12 -47 10 -32 -2 -47 -7 -45 -15 3 -18 -23 -16 -42 2 -9 10 -34 15 -70 15
l-56 0 0 -50z"/>
<path d="M990 1145 c0 -36 6 -40 48 -29 15 4 22 14 23 33 1 25 2 25 8 -4 4
-21 13 -31 29 -33 24 -4 31 -22 8 -22 -7 0 -19 -6 -25 -14 -9 -11 -6 -15 15
-20 62 -16 6 -16 -127 0 -162 18 -297 14 -335 -11 -13 -8 -24 -11 -24 -5 0 5
-11 10 -25 10 -14 0 -25 -4 -25 -9 0 -4 -20 -38 -45 -75 -24 -37 -50 -86 -56
-109 -6 -23 -22 -63 -35 -89 -13 -26 -24 -60 -24 -75 -1 -26 -2 -27 -15 -9 -7
10 -19 15 -25 11 -6 -4 -17 -1 -25 5 -12 10 -20 3 -44 -35 -39 -61 -54 -153
-49 -288 4 -117 -8 -112 -22 8 l-7 70 -2 -68 c-1 -64 -18 -107 -35 -90 -3 4
-6 2 -6 -3 0 -5 -10 -10 -21 -11 -29 -3 -36 -12 -19 -24 12 -8 10 -9 -6 -4
-13 3 -31 -2 -47 -15 -14 -11 -37 -20 -51 -20 -37 0 -32 -18 7 -23 l32 -4 -32
-1 -33 -2 0 -95 0 -95 885 0 885 0 0 590 0 590 -390 0 -390 -1 0 -34z m210
-137 c0 -5 -7 -8 -15 -8 -15 0 -20 21 -8 33 7 7 23 -11 23 -25z m-232 -24 c52
-14 15 -24 -90 -24 -102 1 -111 2 -94 15 20 15 138 21 184 9z m-212 -23 c-3
-5 -17 -8 -31 -8 -14 0 -25 3 -25 8 0 5 14 9 31 9 16 0 28 -4 25 -9z m-195
-24 c-13 -13 -26 -3 -16 12 3 6 11 8 17 5 6 -4 6 -10 -1 -17z m799 -176 c0
-24 0 -24 -19 -5 -10 10 -17 22 -14 26 2 4 -3 5 -11 2 -12 -5 -16 1 -16 20 0
23 -3 25 -19 17 -10 -6 -22 -7 -26 -3 -5 4 -5 -1 -2 -10 4 -13 2 -15 -10 -11
-12 5 -14 3 -8 -7 6 -9 4 -11 -5 -5 -10 6 -6 15 18 36 16 15 36 37 42 49 11
21 13 19 40 -32 16 -29 29 -64 30 -77z m-316 -20 c4 -5 -3 -7 -14 -4 -23 6
-26 13 -6 13 8 0 17 -4 20 -9z m366 -10 c0 -5 3 -16 6 -24 3 -8 -2 -17 -13
-21 -10 -3 -24 -9 -30 -12 -8 -4 -13 2 -13 16 0 12 4 18 11 15 6 -4 13 2 16
14 5 21 23 30 23 12z m75 -47 c9 -14 14 -28 11 -32 -3 -3 -6 -1 -6 4 0 6 -9
20 -20 32 -12 12 -17 22 -12 22 6 0 17 -12 27 -26z m-1056 -60 c7 5 11 -3 12
-21 1 -28 1 -28 8 -3 6 22 8 23 14 7 4 -10 7 -25 7 -33 0 -8 9 -24 20 -36 10
-12 17 -25 14 -29 -2 -4 4 -12 13 -18 28 -17 7 -13 -31 6 -19 9 -33 20 -30 25
3 4 -1 5 -9 3 -7 -3 -30 5 -49 19 -24 16 -44 22 -59 19 -18 -5 -21 -3 -16 11
4 10 3 15 -3 11 -6 -3 -10 -1 -10 4 0 16 22 13 48 -5 20 -14 22 -14 22 1 0 10
5 13 12 9 7 -4 8 -3 4 5 -4 7 -5 19 -1 29 5 13 8 14 14 3 5 -7 14 -10 20 -7z
m-54 -84 c3 -6 -1 -7 -9 -4 -18 7 -21 14 -7 14 6 0 13 -4 16 -10z m169 -132
c-5 -8 -2 -9 9 -5 11 4 17 1 17 -9 0 -8 10 -19 23 -24 20 -8 19 -9 -11 -9 -42
-1 -162 22 -162 30 0 9 66 27 103 28 19 1 26 -3 21 -11z m-143 -100 c11 -21
15 -38 10 -38 -5 0 -12 8 -15 18 -6 19 -49 42 -78 42 -10 0 -18 7 -18 15 0 8
-4 15 -10 15 -5 0 -10 9 -10 21 0 20 2 19 51 -7 35 -19 57 -40 70 -66z m589
44 c0 -34 -21 -42 -115 -42 -79 0 -92 2 -103 20 -10 17 -23 20 -76 20 -36 0
-67 4 -70 8 -2 4 25 6 61 4 36 -3 74 0 86 7 26 13 175 19 200 8 9 -4 17 -16
17 -25z m-520 14 c0 -3 -4 -8 -10 -11 -5 -3 -10 -1 -10 4 0 6 5 11 10 11 6 0
10 -2 10 -4z m583 -13 c-7 -2 -21 -2 -30 0 -10 3 -4 5 12 5 17 0 24 -2 18 -5z
m-681 -130 c38 -16 68 -30 68 -33 0 -3 -21 -13 -46 -23 -45 -16 -48 -16 -77 0
-17 10 -29 21 -29 26 1 4 2 18 2 32 0 14 3 25 8 25 4 0 37 -12 74 -27z m202
-45 c8 -6 8 -8 0 -8 -18 0 -37 28 -28 42 6 10 10 8 12 -7 3 -11 9 -23 16 -27z
m251 15 c57 -6 64 -8 40 -14 l-30 -7 33 -1 c17 0 32 -6 32 -12 0 -9 -31 -10
-117 -4 -65 4 -129 8 -143 8 l-25 0 28 10 c15 6 27 14 27 19 0 10 62 10 155 1z"/>
<path d="M784 355 c-7 -18 3 -35 20 -35 8 0 14 11 14 25 0 27 -25 35 -34 10z"/>
<path d="M845 345 c0 -14 5 -25 11 -25 6 0 12 11 12 25 0 14 -6 25 -12 25 -6
0 -11 -11 -11 -25z"/>
<path d="M892 345 c1 -14 7 -25 13 -25 5 0 10 11 10 25 0 14 -6 25 -12 25 -7
0 -12 -11 -11 -25z"/>
<path d="M940 345 c0 -20 4 -26 18 -23 9 2 17 12 17 23 0 11 -8 21 -17 23 -14
3 -18 -3 -18 -23z"/>
<path d="M688 173 c6 -2 18 -2 25 0 6 3 1 5 -13 5 -14 0 -19 -2 -12 -5z"/>
<path d="M808 173 c7 -3 16 -2 19 1 4 3 -2 6 -13 5 -11 0 -14 -3 -6 -6z"/>
<path d="M1 1098 c-1 -40 3 -68 9 -68 12 0 12 39 1 95 -8 37 -9 35 -10 -27z"/>
<path d="M101 1073 c-1 -6 -16 -13 -33 -15 -18 -2 -32 -7 -30 -13 3 -15 95
-13 100 3 2 6 -3 12 -11 12 -9 0 -18 6 -20 13 -4 8 -6 9 -6 0z"/>
</g>
</svg>
