<?xml version="1.0" standalone="no"?>
<!DOCTYPE svg PUBLIC "-//W3C//DTD SVG 20010904//EN"
 "http://www.w3.org/TR/2001/REC-SVG-20010904/DTD/svg10.dtd">
<svg version="1.0" xmlns="http://www.w3.org/2000/svg"
 width="167.000000pt" height="120.000000pt" viewBox="0 0 167.000000 120.000000"
 preserveAspectRatio="xMidYMid meet">

<g transform="translate(0.000000,120.000000) scale(0.100000,-0.100000)"
fill="#000000" stroke="none">
<path d="M451 910 c-51 -11 -116 -47 -150 -84 -14 -14 -36 -27 -50 -27 -24 -2
-24 -2 -3 -6 12 -2 22 -7 22 -9 0 -9 -24 -30 -42 -36 -9 -4 -22 -22 -29 -41
-11 -31 -15 -34 -48 -32 -26 2 -37 8 -39 21 -3 15 -1 17 9 7 18 -18 56 -16 63
2 7 20 -22 26 -111 23 -62 -3 -73 -6 -73 -20 0 -15 9 -18 45 -18 25 0 45 -4
45 -10 0 -5 -20 -10 -45 -10 l-45 0 0 -45 0 -45 53 -1 c28 -1 65 -4 81 -8 26
-5 29 -10 30 -49 l1 -42 -82 0 -83 0 0 -94 0 -93 538 -7 c519 -6 718 -1 759
22 17 10 16 11 -7 21 -24 9 -24 10 10 11 25 0 31 3 21 9 -12 8 -13 12 -1 26
12 14 15 14 36 -6 17 -16 29 -19 53 -14 40 9 41 30 1 22 -17 -4 -30 -2 -30 3
0 6 9 10 19 10 25 0 29 6 36 63 4 31 3 47 -4 47 -6 0 -11 -7 -11 -15 0 -19
-77 -58 -83 -41 -3 7 -51 11 -155 11 -198 0 -183 17 19 23 111 3 150 2 145 -7
-4 -6 -2 -11 3 -11 6 0 11 8 11 18 0 19 -52 41 -101 43 -28 1 -18 5 32 13 28
5 39 14 52 40 16 34 16 34 -12 46 -16 6 -46 10 -67 8 -34 -3 -40 -7 -44 -33
l-6 -30 -6 30 c-4 21 -1 33 10 42 11 8 12 12 5 13 -20 0 -15 20 5 20 14 0 15
2 2 10 -17 11 -43 -7 -36 -25 3 -9 -2 -11 -17 -7 l-21 5 22 15 c21 14 33 40
13 27 -5 -3 -12 -1 -16 4 -3 6 -12 8 -21 4 -8 -3 -36 1 -62 8 -26 7 -51 12
-55 11 -4 -1 -51 4 -102 13 -112 18 -114 18 -95 4 12 -8 10 -9 -10 -5 -14 3
-45 8 -69 12 -35 6 -40 9 -25 15 48 17 217 9 230 -12 3 -5 10 -9 15 -9 6 0 7
5 3 11 -4 7 0 9 13 5 27 -9 55 3 49 20 -6 16 21 8 47 -14 9 -8 17 -13 17 -10
0 4 37 -2 83 -12 83 -18 193 -72 207 -100 28 -56 37 -81 39 -112 1 -12 15 -18
59 -22 50 -6 144 -9 165 -7 4 1 7 87 7 191 0 154 -3 190 -14 190 -7 0 -78 -6
-157 -14 -79 -8 -173 -17 -209 -20 -36 -3 -119 -11 -185 -17 l-121 -11 -39 26
c-21 15 -45 24 -53 21 -7 -3 -19 1 -27 8 -27 27 -332 54 -414 37z m-121 -93
c0 -2 -10 -12 -21 -23 -22 -19 -22 -19 -8 4 12 19 29 30 29 19z m130 -1 c0 -3
-4 -8 -10 -11 -5 -3 -10 -1 -10 4 0 6 5 11 10 11 6 0 10 -2 10 -4z m178 -23
c-10 -2 -28 -2 -40 0 -13 2 -5 4 17 4 22 1 32 -1 23 -4z m-345 -62 c12 -2 8
-29 -5 -34 -7 -3 4 -3 25 0 26 4 37 2 37 -7 0 -9 11 -11 39 -6 24 4 42 2 46
-5 4 -6 19 -7 36 -4 19 4 29 3 29 -5 0 -9 -24 -10 -97 -4 -54 5 -115 8 -136 7
-37 -1 -38 -1 -20 16 10 10 25 21 33 24 14 5 -22 12 -43 8 -5 -1 -6 3 -3 7 5
8 25 9 59 3z m105 -25 c-7 -8 -17 -12 -21 -9 -5 3 -21 9 -35 13 -23 7 -19 8
21 9 40 1 46 -1 35 -13z m152 -30 c0 -3 -4 -8 -10 -11 -5 -3 -10 -1 -10 4 0 6
5 11 10 11 6 0 10 -2 10 -4z m-212 -23 c-15 -2 -42 -2 -60 0 -18 2 -6 4 27 4
33 0 48 -2 33 -4z m466 1 c38 -6 46 -11 47 -28 1 -17 2 -17 6 -3 3 10 14 17
26 17 19 -1 20 -2 5 -11 -19 -11 -13 -39 8 -39 8 0 14 9 14 21 0 11 4 18 10
14 5 -3 7 -12 3 -20 -3 -9 1 -15 8 -16 8 0 5 -4 -5 -8 -23 -9 -66 -2 -66 10 0
5 -17 7 -38 3 -30 -5 -41 -2 -57 16 -16 18 -17 23 -5 31 12 8 11 9 -5 6 -11
-2 -19 -9 -17 -15 3 -15 -11 -15 -26 0 -28 28 -2 35 92 22z m-472 -101 c-12
-2 -20 -9 -17 -14 3 -5 -1 -6 -9 -3 -27 11 -17 24 17 23 23 -1 26 -3 9 -6z
m368 -43 c-19 -12 -19 -10 -13 25 6 29 6 29 16 6 8 -17 7 -25 -3 -31z m-20 30
c0 -5 -2 -10 -4 -10 -3 0 -8 5 -11 10 -3 6 -1 10 4 10 6 0 11 -4 11 -10z m365
0 c-3 -5 -15 -10 -26 -10 -10 0 -19 5 -19 10 0 6 12 10 26 10 14 0 23 -4 19
-10z m179 1 c3 -5 -3 -11 -14 -14 -20 -5 -26 3 -13 16 9 10 21 9 27 -2z m-234
-57 c13 -13 10 -14 -20 -8 -36 7 -100 31 -100 38 0 9 107 -17 120 -30z m-373
5 c2 -17 -1 -18 -13 -8 -13 11 -10 20 11 29 1 0 1 -9 2 -21z m388 -39 c18 -8
18 -9 -5 -9 -14 0 -34 4 -45 9 -18 8 -18 9 5 9 14 0 34 -4 45 -9z m283 -77
c-10 -2 -28 -2 -40 0 -13 2 -5 4 17 4 22 1 32 -1 23 -4z"/>
<path d="M780 625 c0 -21 30 -31 41 -14 14 23 11 29 -16 29 -16 0 -25 -6 -25
-15z"/>
</g>
</svg>
