<svg width="20" height="19" viewBox="0 0 20 19" fill="none" xmlns="http://www.w3.org/2000/svg">
<g clip-path="url(#clip0_1279_449)">
<path d="M19.3152 9.71894C19.3152 9.07316 19.2628 8.42389 19.1511 7.78857H10.1904V11.4469H15.3218C15.1089 12.6267 14.4247 13.6704 13.4228 14.3337V16.7074H16.4842C18.2819 15.0528 19.3152 12.6093 19.3152 9.71894Z" fill="#4285F4"/>
<path d="M10.1896 19.0006C12.7518 19.0006 14.9126 18.1594 16.4869 16.7072L13.4255 14.3335C12.5738 14.913 11.4742 15.2411 10.1931 15.2411C7.71471 15.2411 5.6133 13.5691 4.8593 11.321H1.7002V13.768C3.31291 16.976 6.59768 19.0006 10.1896 19.0006Z" fill="#34A853"/>
<path d="M4.85661 11.3211C4.45866 10.1413 4.45866 8.86368 4.85661 7.68381V5.23682H1.70099C0.353575 7.92118 0.353575 11.0838 1.70099 13.7681L4.85661 11.3211Z" fill="#FBBC04"/>
<path d="M10.1896 3.76015C11.544 3.7392 12.8531 4.24885 13.8339 5.18436L16.5462 2.47207C14.8288 0.859358 12.5494 -0.0272856 10.1896 0.000640194C6.59768 0.000640194 3.31291 2.02526 1.7002 5.23672L4.85581 7.68372C5.60631 5.4322 7.71122 3.76015 10.1896 3.76015Z" fill="#EA4335"/>
</g>
<defs>
<clipPath id="clip0_1279_449">
<rect width="19" height="19" fill="white" transform="translate(0.5)"/>
</clipPath>
</defs>
</svg>
