<svg width="25" height="25" viewBox="0 0 25 25" fill="none" xmlns="http://www.w3.org/2000/svg">
<circle cx="12.375" cy="12.5" r="12.375" fill="#705DE8"/>
<path d="M8.33737 18.2922C7.44483 17.7769 6.7205 17.1713 6.16438 16.4755C5.61451 15.7688 5.25926 15.0016 5.09864 14.1738L8.57646 12.9386C8.66903 13.4821 8.80608 13.936 8.98762 14.3003C9.17541 14.6537 9.42713 14.9216 9.74279 15.1038C10.57 15.5814 11.2551 15.35 11.7981 14.4095L14.2884 10.0962L10.4026 7.85273L12.069 4.96641L19.759 9.40625L15.7334 16.3788C14.8346 17.9355 13.761 18.8651 12.5124 19.1676C11.2638 19.47 9.87212 19.1783 8.33737 18.2922Z" fill="white"/>
</svg>
