<?xml version="1.0" standalone="no"?>
<!DOCTYPE svg PUBLIC "-//W3C//DTD SVG 20010904//EN"
 "http://www.w3.org/TR/2001/REC-SVG-20010904/DTD/svg10.dtd">
<svg version="1.0" xmlns="http://www.w3.org/2000/svg"
 width="167.000000pt" height="125.000000pt" viewBox="0 0 167.000000 125.000000"
 preserveAspectRatio="xMidYMid meet">

<g transform="translate(0.000000,125.000000) scale(0.100000,-0.100000)"
fill="#000000" stroke="none">
<path d="M0 930 c1 -308 2 -320 21 -330 11 -6 24 -8 29 -5 5 3 18 1 27 -5 16
-9 15 -10 -4 -5 -15 4 -23 2 -23 -5 0 -8 -8 -7 -25 4 l-25 16 0 -300 0 -300
255 0 c214 0 255 2 255 14 0 8 -7 21 -15 30 -15 15 -11 45 9 58 7 5 5 8 -6 8
-12 0 -17 12 -20 53 l-3 52 48 2 c36 1 47 -2 43 -12 -5 -15 14 -25 46 -25 11
0 22 -8 25 -19 4 -16 18 -21 79 -26 79 -8 419 1 435 11 5 3 67 7 138 9 71 2
146 8 167 13 22 6 64 13 95 16 50 5 59 3 83 -19 15 -14 29 -25 32 -25 2 0 4
29 4 64 0 53 -3 65 -17 69 -17 4 -17 5 0 6 26 2 22 39 -5 44 l-23 4 23 2 22 1
0 460 0 460 -835 0 -835 0 0 -320z m934 215 c-4 -8 -10 -12 -15 -9 -14 8 -10
24 6 24 9 0 12 -6 9 -15z m-344 -25 c0 -5 -4 -10 -10 -10 -5 0 -10 5 -10 10 0
6 5 10 10 10 6 0 10 -4 10 -10z m315 -28 c-3 -3 -11 0 -18 7 -9 10 -8 11 6 5
10 -3 15 -9 12 -12z m100 -2 c-3 -5 -11 -10 -16 -10 -6 0 -7 5 -4 10 3 6 11
10 16 10 6 0 7 -4 4 -10z m-474 -297 c9 -10 26 -26 38 -35 11 -10 21 -22 21
-28 0 -14 -34 -30 -47 -22 -13 9 -63 82 -63 93 0 16 35 10 51 -8z m-211 -13
c-6 -11 -13 -20 -16 -20 -2 0 0 9 6 20 6 11 13 20 16 20 2 0 0 -9 -6 -20z
m-99 -97 c-7 -25 -7 -39 -1 -41 6 -2 10 -26 10 -53 0 -28 5 -59 11 -70 10 -20
10 -20 -14 -4 -13 8 -32 13 -41 9 -9 -3 -16 -1 -16 5 0 7 -8 7 -26 1 -15 -6
-32 -6 -41 -1 -9 4 -25 6 -37 4 -15 -4 -13 0 8 11 15 9 39 16 52 16 20 0 24 5
24 32 0 23 3 29 11 21 15 -15 51 -4 47 16 -4 20 -74 23 -103 4 -11 -7 -23 -13
-28 -13 -15 0 13 39 32 45 14 4 19 15 19 36 -1 37 10 49 54 58 28 6 34 4 41
-15 5 -13 4 -39 -2 -61z m554 36 c65 -17 380 -24 450 -9 112 24 249 7 297 -37
11 -10 18 -30 18 -51 0 -26 3 -33 15 -28 27 10 16 -11 -20 -38 -79 -60 -143
-69 -475 -67 -264 2 -290 3 -283 15 3 4 -3 5 -14 2 -12 -4 -25 -1 -32 7 -6 8
-31 22 -56 32 -26 9 -45 23 -45 32 0 8 -7 13 -17 11 -10 -2 -22 2 -28 9 -8 11
-18 7 -47 -18 -26 -21 -38 -26 -38 -16 0 9 13 26 30 40 25 22 27 27 15 37 -23
19 -18 30 12 30 14 0 35 8 45 17 21 19 68 22 138 10 34 -6 41 -5 28 3 -10 6
-42 14 -70 17 -29 3 -60 10 -68 15 -19 11 91 2 145 -13z m-372 -19 c3 -13 1
-18 -6 -13 -7 4 -8 0 -3 -13 4 -10 4 -15 0 -11 -4 4 -13 2 -21 -4 -16 -14 -17
3 -1 19 7 7 8 12 4 12 -5 0 -3 7 4 15 16 19 17 19 23 -5z m-353 0 c8 -5 11
-10 5 -10 -5 0 -17 5 -25 10 -8 5 -10 10 -5 10 6 0 17 -5 25 -10z m227 -52
c-3 -7 -5 -2 -5 12 0 14 2 19 5 13 2 -7 2 -19 0 -25z m208 21 c4 -6 14 -8 22
-5 8 4 3 -7 -11 -25 -17 -19 -26 -43 -26 -64 0 -18 -8 -41 -17 -52 -10 -10
-15 -14 -12 -8 10 17 4 72 -9 88 -11 13 -10 18 10 28 13 7 28 12 33 10 6 -1 4
3 -2 10 -7 7 -13 17 -13 21 0 12 18 10 25 -3z m-144 -24 c11 7 11 3 3 -20 -6
-14 -8 -14 -25 1 -11 9 -19 23 -19 31 0 12 3 11 16 -1 8 -9 20 -14 25 -11z
m99 4 c0 -5 -4 -9 -10 -9 -5 0 -10 7 -10 16 0 8 5 12 10 9 6 -3 10 -10 10 -16z
m-113 -79 c7 0 13 -7 13 -15 0 -8 -7 -15 -15 -15 -16 0 -36 39 -34 68 1 11 5
7 12 -10 6 -16 17 -28 24 -28z m66 -47 c-7 -2 -21 -2 -30 0 -10 3 -4 5 12 5
17 0 24 -2 18 -5z m-37 -50 c-10 -10 -19 5 -10 18 6 11 8 11 12 0 2 -7 1 -15
-2 -18z m1108 -17 c-22 -24 -43 -45 -49 -45 -5 -1 11 19 35 44 56 58 64 58 14
1z m-1271 27 c-7 -2 -19 -2 -25 0 -7 3 -2 5 12 5 14 0 19 -2 13 -5z m97 -1 c0
-4 -108 -52 -119 -52 -19 0 -12 30 7 31 9 1 24 3 32 4 8 1 21 3 28 4 7 0 11 5
8 10 -3 5 5 8 19 7 14 0 25 -2 25 -4z m345 -1 c15 -26 -73 -43 -126 -25 -36
13 -44 13 -58 0 -17 -15 -34 -10 -38 11 -2 9 14 11 57 8 33 -3 62 0 65 5 8 13
92 13 100 1z m-485 -54 c0 -10 -39 1 -57 15 -7 6 -13 16 -13 24 0 9 10 7 35
-9 19 -12 34 -26 35 -30z m175 43 c3 -5 1 -10 -4 -10 -6 0 -11 5 -11 10 0 6 2
10 4 10 3 0 8 -4 11 -10z m913 -16 c41 -28 22 -94 -28 -94 -48 0 -66 54 -30
90 24 24 29 24 58 4z m358 -19 c-3 -8 -10 -15 -16 -15 -14 0 -12 37 3 43 15 5
21 -8 13 -28z m-1318 -19 c-24 -18 -23 -23 8 -30 15 -4 24 -9 22 -12 -3 -2
-19 1 -36 7 -41 14 -32 39 18 48 3 0 -3 -6 -12 -13z m231 -10 c-2 -2 -15 -9
-29 -15 -24 -11 -24 -11 -6 3 16 13 49 24 35 12z m-419 -21 c8 -2 27 -4 43 -4
15 -1 27 -7 27 -14 0 -7 8 -17 18 -24 24 -14 28 -85 7 -107 -8 -8 -15 -19 -15
-24 0 -18 -30 -34 -53 -28 -22 5 -54 53 -43 64 6 5 -30 35 -54 45 -8 4 -2 4
15 2 30 -5 30 -5 30 40 0 39 -3 46 -25 55 -26 11 -23 10 50 -5z m1543 -12 c-7
-2 -21 -2 -30 0 -10 3 -4 5 12 5 17 0 24 -2 18 -5z m-1063 -38 c57 -29 67 -51
18 -41 -31 6 -78 41 -78 58 0 12 6 10 60 -17z m1020 5 c0 -5 -5 -10 -11 -10
-5 0 -7 5 -4 10 3 6 8 10 11 10 2 0 4 -4 4 -10z m-1076 -60 c17 -20 15 -19
-11 4 -18 16 -29 34 -26 40 4 6 8 5 11 -4 3 -8 14 -26 26 -40z m966 46 c0 -3
-4 -8 -10 -11 -5 -3 -10 -1 -10 4 0 6 5 11 10 11 6 0 10 -2 10 -4z m-582 -13
c-10 -2 -28 -2 -40 0 -13 2 -5 4 17 4 22 1 32 -1 23 -4z m493 -16 c-4 -4 -59
-11 -122 -14 -183 -11 -328 -7 -294 7 16 6 12 9 -20 11 -22 2 69 4 202 4 134
1 239 -3 234 -8z m-681 -7 c0 -5 -4 -10 -10 -10 -5 0 -10 5 -10 10 0 6 5 10
10 10 6 0 10 -4 10 -10z m193 -11 c-6 -6 -30 -13 -54 -16 -43 -4 -43 -4 -19
10 30 18 90 23 73 6z m662 -39 c-3 -5 -15 -10 -25 -10 -10 0 -22 5 -25 10 -4
6 7 10 25 10 18 0 29 -4 25 -10z m-595 -90 c8 -5 11 -10 5 -10 -5 0 -17 5 -25
10 -8 5 -10 10 -5 10 6 0 17 -5 25 -10z"/>
<path d="M600 652 c0 -18 24 -29 73 -34 50 -6 70 5 40 21 -28 14 -113 25 -113
13z"/>
<path d="M755 580 c3 -5 8 -10 11 -10 2 0 4 5 4 10 0 6 -5 10 -11 10 -5 0 -7
-4 -4 -10z"/>
<path d="M1181 428 c-5 -13 -7 -25 -5 -27 6 -7 22 9 27 29 7 27 -12 25 -22 -2z"/>
<path d="M1220 436 c0 -7 7 -19 15 -26 16 -13 20 -3 9 24 -8 20 -24 21 -24 2z"/>
<path d="M1203 393 c-7 -3 -13 -9 -13 -14 0 -12 37 -12 44 0 7 11 -14 20 -31
14z"/>
<path d="M1628 98 c-16 -17 -28 -32 -28 -33 0 -3 59 -25 66 -25 2 0 4 20 4 45
0 25 -3 45 -7 45 -5 -1 -20 -15 -35 -32z"/>
<path d="M1557 25 l-18 -25 66 0 c76 0 89 20 26 38 -51 16 -53 15 -74 -13z"/>
</g>
</svg>
