<svg width="634" height="498" viewBox="0 0 634 498" fill="none" xmlns="http://www.w3.org/2000/svg">
<g filter="url(#filter0_d_1279_874)">
<rect x="40" y="32" width="554" height="418" rx="10" fill="white"/>
<rect x="40.5" y="32.5" width="553" height="417" rx="9.5" stroke="#EDF1F4"/>
</g>
<rect x="60" y="362" width="514" height="1" fill="#D9D9D9"/>
<rect x="62.5" y="52.5" width="242" height="39" rx="19.5" fill="#F5F5F5"/>
<path d="M153.948 66.0909V77H151.972V68.0138H151.908L149.356 69.6438V67.8327L152.068 66.0909H153.948ZM157.327 77.1172C157.003 77.1172 156.726 77.0036 156.496 76.7763C156.265 76.549 156.151 76.272 156.155 75.9453C156.151 75.6257 156.265 75.3523 156.496 75.125C156.726 74.8977 157.003 74.7841 157.327 74.7841C157.639 74.7841 157.911 74.8977 158.142 75.125C158.376 75.3523 158.495 75.6257 158.498 75.9453C158.495 76.1619 158.438 76.359 158.328 76.5366C158.221 76.7141 158.079 76.8562 157.902 76.9627C157.728 77.0657 157.536 77.1172 157.327 77.1172ZM160.489 77V68.8182H162.332V70.2085H162.428C162.599 69.7397 162.881 69.3739 163.275 69.1112C163.669 68.8448 164.14 68.7116 164.687 68.7116C165.241 68.7116 165.708 68.8466 166.088 69.1165C166.471 69.3828 166.741 69.7468 166.897 70.2085H166.983C167.164 69.7539 167.469 69.3917 167.899 69.1218C168.332 68.8484 168.845 68.7116 169.438 68.7116C170.191 68.7116 170.805 68.9496 171.281 69.4254C171.757 69.9013 171.995 70.5955 171.995 71.5082V77H170.061V71.8065C170.061 71.2987 169.926 70.9276 169.657 70.6932C169.387 70.4553 169.056 70.3363 168.666 70.3363C168.201 70.3363 167.837 70.4819 167.574 70.7731C167.315 71.0607 167.185 71.4354 167.185 71.897V77H165.294V71.7266C165.294 71.304 165.166 70.9666 164.91 70.7145C164.658 70.4624 164.328 70.3363 163.92 70.3363C163.643 70.3363 163.391 70.4073 163.163 70.5494C162.936 70.6879 162.755 70.8849 162.62 71.1406C162.485 71.3928 162.418 71.6875 162.418 72.0249V77H160.489ZM176.306 77.1651C175.787 77.1651 175.32 77.0728 174.905 76.8881C174.493 76.6999 174.166 76.4229 173.925 76.0572C173.687 75.6914 173.568 75.2404 173.568 74.7042C173.568 74.2425 173.653 73.8608 173.823 73.5589C173.994 73.2571 174.226 73.0156 174.521 72.8345C174.816 72.6534 175.148 72.5167 175.517 72.4244C175.89 72.3285 176.275 72.2592 176.673 72.2166C177.153 72.1669 177.541 72.1225 177.84 72.0835C178.138 72.0408 178.355 71.9769 178.49 71.8917C178.628 71.8029 178.697 71.6662 178.697 71.4815V71.4496C178.697 71.0483 178.578 70.7376 178.34 70.5174C178.102 70.2972 177.76 70.1871 177.312 70.1871C176.84 70.1871 176.465 70.2901 176.188 70.4961C175.915 70.7021 175.73 70.9453 175.634 71.2259L173.834 70.9702C173.976 70.473 174.21 70.0575 174.537 69.7237C174.864 69.3864 175.263 69.1342 175.736 68.9673C176.208 68.7969 176.73 68.7116 177.302 68.7116C177.696 68.7116 178.088 68.7578 178.479 68.8501C178.87 68.9425 179.226 69.0952 179.55 69.3082C179.873 69.5178 180.132 69.8036 180.327 70.1658C180.526 70.5281 180.626 70.9808 180.626 71.5241V77H178.772V75.8761H178.708C178.591 76.1033 178.426 76.3164 178.213 76.5153C178.003 76.7106 177.739 76.8686 177.419 76.9893C177.103 77.1065 176.732 77.1651 176.306 77.1651ZM176.806 75.7482C177.193 75.7482 177.529 75.6719 177.813 75.5192C178.097 75.3629 178.316 75.157 178.468 74.9013C178.625 74.6456 178.703 74.3668 178.703 74.065V73.1009C178.642 73.1506 178.539 73.1967 178.394 73.2393C178.252 73.282 178.092 73.3192 177.914 73.3512C177.737 73.3832 177.561 73.4116 177.387 73.4364C177.213 73.4613 177.062 73.4826 176.934 73.5004C176.647 73.5394 176.389 73.6033 176.162 73.6921C175.935 73.7809 175.755 73.9052 175.624 74.065C175.492 74.2212 175.427 74.4237 175.427 74.6722C175.427 75.0273 175.556 75.2955 175.816 75.4766C176.075 75.6577 176.405 75.7482 176.806 75.7482ZM186.65 68.8182V70.3097H181.947V68.8182H186.65ZM183.108 66.858H185.036V74.5391C185.036 74.7983 185.075 74.9972 185.153 75.1357C185.235 75.2706 185.341 75.3629 185.473 75.4126C185.604 75.4624 185.75 75.4872 185.91 75.4872C186.03 75.4872 186.14 75.4783 186.24 75.4606C186.343 75.4428 186.421 75.4268 186.474 75.4126L186.799 76.9201C186.696 76.9556 186.549 76.9947 186.357 77.0373C186.169 77.0799 185.938 77.1048 185.665 77.1119C185.182 77.1261 184.747 77.0533 184.36 76.8935C183.973 76.7301 183.665 76.478 183.438 76.1371C183.214 75.7962 183.104 75.37 183.108 74.8587V66.858ZM191.797 77.1598C190.977 77.1598 190.268 76.9893 189.672 76.6484C189.079 76.304 188.622 75.8175 188.303 75.1889C187.983 74.5568 187.823 73.8129 187.823 72.957C187.823 72.1154 187.983 71.3768 188.303 70.7411C188.626 70.1019 189.077 69.6048 189.656 69.2496C190.235 68.891 190.915 68.7116 191.696 68.7116C192.2 68.7116 192.676 68.7933 193.123 68.9567C193.574 69.1165 193.972 69.3651 194.317 69.7024C194.665 70.0398 194.938 70.4695 195.137 70.9915C195.336 71.5099 195.435 72.1278 195.435 72.8452V73.4364H188.729V72.1367H193.587C193.583 71.7674 193.503 71.4389 193.347 71.1513C193.191 70.8601 192.972 70.631 192.692 70.4641C192.415 70.2972 192.092 70.2138 191.722 70.2138C191.328 70.2138 190.982 70.3097 190.684 70.5014C190.385 70.6896 190.153 70.9382 189.986 71.2472C189.823 71.5526 189.739 71.8881 189.736 72.2539V73.3885C189.736 73.8643 189.823 74.2727 189.997 74.6136C190.171 74.951 190.414 75.2102 190.726 75.3913C191.039 75.5689 191.405 75.6577 191.824 75.6577C192.104 75.6577 192.358 75.6186 192.585 75.5405C192.813 75.4588 193.01 75.3398 193.177 75.1836C193.344 75.0273 193.47 74.8338 193.555 74.603L195.355 74.8054C195.242 75.2812 195.025 75.6967 194.705 76.0518C194.389 76.4034 193.985 76.6768 193.491 76.8722C192.997 77.0639 192.433 77.1598 191.797 77.1598ZM197.066 77V68.8182H198.936V70.1818H199.021C199.17 69.7095 199.426 69.3455 199.788 69.0898C200.154 68.8306 200.571 68.701 201.04 68.701C201.147 68.701 201.266 68.7063 201.397 68.717C201.532 68.7241 201.644 68.7365 201.733 68.7543V70.5281C201.651 70.4996 201.521 70.4748 201.344 70.4535C201.17 70.4286 201.001 70.4162 200.838 70.4162C200.486 70.4162 200.17 70.4925 199.89 70.6452C199.613 70.7944 199.394 71.0021 199.234 71.2685C199.075 71.5348 198.995 71.842 198.995 72.19V77H197.066ZM203.014 77V68.8182H204.942V77H203.014ZM203.983 67.657C203.678 67.657 203.415 67.5558 203.195 67.3533C202.975 67.1474 202.865 66.9006 202.865 66.6129C202.865 66.3217 202.975 66.0749 203.195 65.8725C203.415 65.6665 203.678 65.5636 203.983 65.5636C204.292 65.5636 204.555 65.6665 204.772 65.8725C204.992 66.0749 205.102 66.3217 205.102 66.6129C205.102 66.9006 204.992 67.1474 204.772 67.3533C204.555 67.5558 204.292 67.657 203.983 67.657ZM209.279 77.1651C208.761 77.1651 208.294 77.0728 207.878 76.8881C207.466 76.6999 207.14 76.4229 206.898 76.0572C206.66 75.6914 206.541 75.2404 206.541 74.7042C206.541 74.2425 206.627 73.8608 206.797 73.5589C206.967 73.2571 207.2 73.0156 207.495 72.8345C207.79 72.6534 208.122 72.5167 208.491 72.4244C208.864 72.3285 209.249 72.2592 209.647 72.2166C210.126 72.1669 210.515 72.1225 210.813 72.0835C211.112 72.0408 211.328 71.9769 211.463 71.8917C211.602 71.8029 211.671 71.6662 211.671 71.4815V71.4496C211.671 71.0483 211.552 70.7376 211.314 70.5174C211.076 70.2972 210.733 70.1871 210.286 70.1871C209.814 70.1871 209.439 70.2901 209.162 70.4961C208.889 70.7021 208.704 70.9453 208.608 71.2259L206.808 70.9702C206.95 70.473 207.184 70.0575 207.511 69.7237C207.837 69.3864 208.237 69.1342 208.709 68.9673C209.182 68.7969 209.704 68.7116 210.275 68.7116C210.67 68.7116 211.062 68.7578 211.453 68.8501C211.843 68.9425 212.2 69.0952 212.523 69.3082C212.846 69.5178 213.106 69.8036 213.301 70.1658C213.5 70.5281 213.599 70.9808 213.599 71.5241V77H211.746V75.8761H211.682C211.564 76.1033 211.399 76.3164 211.186 76.5153C210.977 76.7106 210.712 76.8686 210.393 76.9893C210.076 77.1065 209.705 77.1651 209.279 77.1651ZM209.78 75.7482C210.167 75.7482 210.503 75.6719 210.787 75.5192C211.071 75.3629 211.289 75.157 211.442 74.9013C211.598 74.6456 211.676 74.3668 211.676 74.065V73.1009C211.616 73.1506 211.513 73.1967 211.367 73.2393C211.225 73.282 211.065 73.3192 210.888 73.3512C210.71 73.3832 210.535 73.4116 210.361 73.4364C210.187 73.4613 210.036 73.4826 209.908 73.5004C209.62 73.5394 209.363 73.6033 209.135 73.6921C208.908 73.7809 208.729 73.9052 208.597 74.065C208.466 74.2212 208.4 74.4237 208.4 74.6722C208.4 75.0273 208.53 75.2955 208.789 75.4766C209.048 75.6577 209.379 75.7482 209.78 75.7482ZM217.466 66.0909V77H215.538V66.0909H217.466Z" fill="black"/>
<rect x="62.5" y="52.5" width="242" height="39" rx="19.5" stroke="#312ECB"/>
<rect x="62.5" y="102.5" width="242" height="39" rx="19.5" fill="#F5F5F5"/>
<path d="M159.465 127V125.572L163.252 121.86C163.614 121.494 163.916 121.169 164.157 120.885C164.399 120.601 164.58 120.326 164.701 120.059C164.821 119.793 164.882 119.509 164.882 119.207C164.882 118.863 164.804 118.568 164.647 118.323C164.491 118.074 164.276 117.882 164.003 117.748C163.729 117.613 163.419 117.545 163.071 117.545C162.712 117.545 162.398 117.62 162.128 117.769C161.858 117.914 161.649 118.122 161.499 118.392C161.354 118.662 161.281 118.983 161.281 119.356H159.401C159.401 118.664 159.559 118.062 159.875 117.55C160.191 117.039 160.626 116.643 161.18 116.363C161.737 116.082 162.377 115.942 163.097 115.942C163.829 115.942 164.472 116.078 165.026 116.352C165.58 116.625 166.009 117 166.315 117.476C166.624 117.952 166.778 118.495 166.778 119.106C166.778 119.514 166.7 119.915 166.544 120.31C166.388 120.704 166.112 121.141 165.718 121.62C165.328 122.099 164.779 122.68 164.072 123.362L162.192 125.274V125.349H166.943V127H159.465ZM169.99 127.117C169.667 127.117 169.39 127.004 169.159 126.776C168.928 126.549 168.815 126.272 168.818 125.945C168.815 125.626 168.928 125.352 169.159 125.125C169.39 124.898 169.667 124.784 169.99 124.784C170.303 124.784 170.574 124.898 170.805 125.125C171.04 125.352 171.158 125.626 171.162 125.945C171.158 126.162 171.102 126.359 170.992 126.537C170.885 126.714 170.743 126.856 170.565 126.963C170.391 127.066 170.2 127.117 169.99 127.117ZM174.841 127L172.53 118.818H174.495L175.933 124.571H176.008L177.478 118.818H179.422L180.893 124.539H180.972L182.389 118.818H184.36L182.043 127H180.035L178.501 121.471H178.389L176.855 127H174.841ZM185.707 127V118.818H187.576V120.182H187.661C187.811 119.71 188.066 119.346 188.429 119.09C188.794 118.831 189.212 118.701 189.68 118.701C189.787 118.701 189.906 118.706 190.037 118.717C190.172 118.724 190.284 118.737 190.373 118.754V120.528C190.291 120.5 190.161 120.475 189.984 120.453C189.81 120.429 189.641 120.416 189.478 120.416C189.126 120.416 188.81 120.493 188.53 120.645C188.253 120.794 188.034 121.002 187.875 121.268C187.715 121.535 187.635 121.842 187.635 122.19V127H185.707ZM191.654 127V118.818H193.582V127H191.654ZM192.623 117.657C192.318 117.657 192.055 117.556 191.835 117.353C191.615 117.147 191.505 116.901 191.505 116.613C191.505 116.322 191.615 116.075 191.835 115.873C192.055 115.667 192.318 115.564 192.623 115.564C192.932 115.564 193.195 115.667 193.412 115.873C193.632 116.075 193.742 116.322 193.742 116.613C193.742 116.901 193.632 117.147 193.412 117.353C193.195 117.556 192.932 117.657 192.623 117.657ZM202.032 120.981L200.274 121.173C200.224 120.995 200.137 120.828 200.013 120.672C199.892 120.516 199.729 120.39 199.523 120.294C199.317 120.198 199.065 120.15 198.766 120.15C198.365 120.15 198.028 120.237 197.754 120.411C197.484 120.585 197.351 120.81 197.355 121.087C197.351 121.325 197.438 121.519 197.616 121.668C197.797 121.817 198.095 121.94 198.511 122.036L199.906 122.334C200.68 122.501 201.256 122.765 201.632 123.127C202.012 123.49 202.204 123.964 202.207 124.55C202.204 125.065 202.053 125.519 201.755 125.913C201.46 126.304 201.05 126.609 200.524 126.83C199.999 127.05 199.395 127.16 198.713 127.16C197.712 127.16 196.906 126.95 196.295 126.531C195.684 126.109 195.32 125.521 195.203 124.768L197.083 124.587C197.168 124.956 197.349 125.235 197.626 125.423C197.903 125.612 198.264 125.706 198.708 125.706C199.166 125.706 199.533 125.612 199.81 125.423C200.091 125.235 200.231 125.002 200.231 124.725C200.231 124.491 200.141 124.298 199.96 124.145C199.782 123.992 199.505 123.875 199.129 123.793L197.733 123.5C196.948 123.337 196.368 123.062 195.991 122.675C195.615 122.284 195.428 121.79 195.432 121.194C195.428 120.69 195.565 120.253 195.842 119.884C196.123 119.511 196.511 119.223 197.009 119.021C197.509 118.815 198.086 118.712 198.74 118.712C199.699 118.712 200.453 118.916 201.004 119.324C201.558 119.733 201.9 120.285 202.032 120.981ZM207.883 118.818V120.31H203.18V118.818H207.883ZM204.341 116.858H206.269V124.539C206.269 124.798 206.308 124.997 206.386 125.136C206.468 125.271 206.574 125.363 206.706 125.413C206.837 125.462 206.983 125.487 207.143 125.487C207.263 125.487 207.373 125.478 207.473 125.461C207.576 125.443 207.654 125.427 207.707 125.413L208.032 126.92C207.929 126.956 207.782 126.995 207.59 127.037C207.402 127.08 207.171 127.105 206.898 127.112C206.415 127.126 205.98 127.053 205.593 126.893C205.205 126.73 204.898 126.478 204.671 126.137C204.447 125.796 204.337 125.37 204.341 124.859V116.858Z" fill="black"/>
<rect x="62.5" y="102.5" width="242" height="39" rx="19.5" stroke="#312ECB"/>
<rect x="62.5" y="152.5" width="242" height="39" rx="19.5" fill="#F5F5F5"/>
<path d="M158.297 177.149C157.53 177.149 156.848 177.018 156.251 176.755C155.658 176.492 155.189 176.126 154.845 175.658C154.501 175.189 154.318 174.647 154.296 174.033H156.299C156.317 174.328 156.415 174.585 156.592 174.805C156.77 175.022 157.006 175.191 157.301 175.311C157.595 175.432 157.926 175.493 158.291 175.493C158.682 175.493 159.028 175.425 159.33 175.29C159.632 175.152 159.868 174.96 160.039 174.715C160.209 174.47 160.292 174.187 160.289 173.868C160.292 173.538 160.207 173.246 160.033 172.994C159.859 172.742 159.607 172.545 159.277 172.403C158.95 172.261 158.556 172.19 158.094 172.19H157.13V170.667H158.094C158.474 170.667 158.806 170.601 159.09 170.469C159.378 170.338 159.604 170.153 159.767 169.915C159.93 169.674 160.01 169.395 160.007 169.079C160.01 168.77 159.941 168.502 159.799 168.275C159.66 168.044 159.463 167.865 159.208 167.737C158.955 167.609 158.659 167.545 158.318 167.545C157.984 167.545 157.675 167.605 157.391 167.726C157.107 167.847 156.878 168.019 156.704 168.243C156.53 168.463 156.438 168.726 156.427 169.031H154.525C154.54 168.42 154.715 167.884 155.053 167.423C155.394 166.957 155.848 166.595 156.416 166.336C156.985 166.073 157.622 165.942 158.329 165.942C159.057 165.942 159.689 166.078 160.225 166.352C160.765 166.622 161.182 166.986 161.477 167.444C161.771 167.902 161.919 168.408 161.919 168.962C161.922 169.576 161.741 170.091 161.376 170.507C161.013 170.922 160.537 171.194 159.948 171.322V171.407C160.715 171.513 161.303 171.798 161.711 172.259C162.123 172.717 162.327 173.287 162.324 173.969C162.324 174.58 162.15 175.127 161.802 175.61C161.457 176.089 160.981 176.466 160.374 176.739C159.77 177.012 159.078 177.149 158.297 177.149ZM165.039 177.117C164.716 177.117 164.439 177.004 164.208 176.776C163.977 176.549 163.864 176.272 163.867 175.945C163.864 175.626 163.977 175.352 164.208 175.125C164.439 174.898 164.716 174.784 165.039 174.784C165.351 174.784 165.623 174.898 165.854 175.125C166.088 175.352 166.207 175.626 166.211 175.945C166.207 176.162 166.15 176.359 166.04 176.537C165.934 176.714 165.792 176.856 165.614 176.963C165.44 177.066 165.248 177.117 165.039 177.117ZM171.771 177.16C170.972 177.16 170.279 176.984 169.693 176.632C169.107 176.281 168.653 175.789 168.33 175.157C168.01 174.525 167.85 173.786 167.85 172.941C167.85 172.096 168.01 171.355 168.33 170.72C168.653 170.084 169.107 169.591 169.693 169.239C170.279 168.887 170.972 168.712 171.771 168.712C172.57 168.712 173.262 168.887 173.848 169.239C174.434 169.591 174.887 170.084 175.206 170.72C175.529 171.355 175.691 172.096 175.691 172.941C175.691 173.786 175.529 174.525 175.206 175.157C174.887 175.789 174.434 176.281 173.848 176.632C173.262 176.984 172.57 177.16 171.771 177.16ZM171.781 175.615C172.214 175.615 172.577 175.496 172.868 175.258C173.159 175.017 173.376 174.694 173.518 174.289C173.663 173.884 173.736 173.433 173.736 172.936C173.736 172.435 173.663 171.982 173.518 171.577C173.376 171.169 173.159 170.844 172.868 170.603C172.577 170.361 172.214 170.24 171.781 170.24C171.337 170.24 170.968 170.361 170.673 170.603C170.382 170.844 170.164 171.169 170.018 171.577C169.876 171.982 169.805 172.435 169.805 172.936C169.805 173.433 169.876 173.884 170.018 174.289C170.164 174.694 170.382 175.017 170.673 175.258C170.968 175.496 171.337 175.615 171.781 175.615ZM177.328 180.068V168.818H179.224V170.171H179.336C179.435 169.972 179.576 169.761 179.757 169.537C179.938 169.31 180.183 169.116 180.492 168.957C180.801 168.793 181.195 168.712 181.674 168.712C182.306 168.712 182.876 168.873 183.384 169.196C183.896 169.516 184.3 169.99 184.599 170.619C184.9 171.244 185.051 172.011 185.051 172.92C185.051 173.818 184.904 174.582 184.609 175.21C184.315 175.839 183.913 176.318 183.405 176.648C182.898 176.979 182.322 177.144 181.68 177.144C181.211 177.144 180.822 177.066 180.513 176.909C180.204 176.753 179.956 176.565 179.767 176.345C179.583 176.121 179.439 175.91 179.336 175.711H179.256V180.068H177.328ZM179.219 172.909C179.219 173.438 179.293 173.902 179.442 174.299C179.595 174.697 179.813 175.008 180.098 175.232C180.385 175.452 180.733 175.562 181.142 175.562C181.568 175.562 181.925 175.448 182.212 175.221C182.5 174.99 182.717 174.676 182.862 174.278C183.011 173.877 183.086 173.42 183.086 172.909C183.086 172.401 183.013 171.95 182.867 171.556C182.722 171.162 182.505 170.853 182.218 170.629C181.93 170.406 181.571 170.294 181.142 170.294C180.73 170.294 180.38 170.402 180.092 170.619C179.805 170.835 179.586 171.139 179.437 171.529C179.291 171.92 179.219 172.38 179.219 172.909ZM190.788 168.818V170.31H186.085V168.818H190.788ZM187.246 166.858H189.174V174.539C189.174 174.798 189.213 174.997 189.291 175.136C189.373 175.271 189.48 175.363 189.611 175.413C189.742 175.462 189.888 175.487 190.048 175.487C190.169 175.487 190.279 175.478 190.378 175.461C190.481 175.443 190.559 175.427 190.612 175.413L190.937 176.92C190.834 176.956 190.687 176.995 190.495 177.037C190.307 177.08 190.076 177.105 189.803 177.112C189.32 177.126 188.885 177.053 188.498 176.893C188.111 176.73 187.804 176.478 187.576 176.137C187.353 175.796 187.242 175.37 187.246 174.859V166.858ZM192.401 177V168.818H194.329V177H192.401ZM193.37 167.657C193.065 167.657 192.802 167.556 192.582 167.353C192.362 167.147 192.252 166.901 192.252 166.613C192.252 166.322 192.362 166.075 192.582 165.873C192.802 165.667 193.065 165.564 193.37 165.564C193.679 165.564 193.942 165.667 194.159 165.873C194.379 166.075 194.489 166.322 194.489 166.613C194.489 166.901 194.379 167.147 194.159 167.353C193.942 167.556 193.679 167.657 193.37 167.657ZM199.881 177.16C199.082 177.16 198.389 176.984 197.804 176.632C197.218 176.281 196.763 175.789 196.44 175.157C196.12 174.525 195.96 173.786 195.96 172.941C195.96 172.096 196.12 171.355 196.44 170.72C196.763 170.084 197.218 169.591 197.804 169.239C198.389 168.887 199.082 168.712 199.881 168.712C200.68 168.712 201.372 168.887 201.958 169.239C202.544 169.591 202.997 170.084 203.317 170.72C203.64 171.355 203.801 172.096 203.801 172.941C203.801 173.786 203.64 174.525 203.317 175.157C202.997 175.789 202.544 176.281 201.958 176.632C201.372 176.984 200.68 177.16 199.881 177.16ZM199.892 175.615C200.325 175.615 200.687 175.496 200.978 175.258C201.269 175.017 201.486 174.694 201.628 174.289C201.774 173.884 201.847 173.433 201.847 172.936C201.847 172.435 201.774 171.982 201.628 171.577C201.486 171.169 201.269 170.844 200.978 170.603C200.687 170.361 200.325 170.24 199.892 170.24C199.448 170.24 199.078 170.361 198.784 170.603C198.492 170.844 198.274 171.169 198.128 171.577C197.986 171.982 197.915 172.435 197.915 172.936C197.915 173.433 197.986 173.884 198.128 174.289C198.274 174.694 198.492 175.017 198.784 175.258C199.078 175.496 199.448 175.615 199.892 175.615ZM207.366 172.206V177H205.438V168.818H207.281V170.208H207.377C207.565 169.75 207.865 169.386 208.277 169.116C208.693 168.847 209.206 168.712 209.817 168.712C210.381 168.712 210.873 168.832 211.292 169.074C211.715 169.315 212.041 169.665 212.272 170.123C212.507 170.581 212.622 171.137 212.618 171.79V177H210.69V172.089C210.69 171.542 210.548 171.114 210.264 170.805C209.983 170.496 209.595 170.342 209.097 170.342C208.76 170.342 208.46 170.416 208.197 170.565C207.938 170.711 207.734 170.922 207.585 171.199C207.439 171.476 207.366 171.812 207.366 172.206Z" fill="black"/>
<rect x="62.5" y="152.5" width="242" height="39" rx="19.5" stroke="#312ECB"/>
<rect x="62.5" y="202.5" width="242" height="39" rx="19.5" fill="#F5F5F5"/>
<path d="M157.312 224.976V223.404L161.941 216.091H163.251V218.328H162.452L159.336 223.266V223.351H165.797V224.976H157.312ZM162.516 227V224.496L162.537 223.793V216.091H164.402V227H162.516ZM168.401 227.117C168.078 227.117 167.801 227.004 167.57 226.776C167.339 226.549 167.225 226.272 167.229 225.945C167.225 225.626 167.339 225.352 167.57 225.125C167.801 224.898 168.078 224.784 168.401 224.784C168.713 224.784 168.985 224.898 169.216 225.125C169.45 225.352 169.569 225.626 169.573 225.945C169.569 226.162 169.512 226.359 169.402 226.537C169.296 226.714 169.154 226.856 168.976 226.963C168.802 227.066 168.61 227.117 168.401 227.117ZM178.03 220.981L176.272 221.173C176.223 220.995 176.136 220.828 176.011 220.672C175.891 220.516 175.727 220.39 175.521 220.294C175.315 220.198 175.063 220.15 174.765 220.15C174.364 220.15 174.026 220.237 173.753 220.411C173.483 220.585 173.35 220.81 173.353 221.087C173.35 221.325 173.437 221.519 173.614 221.668C173.795 221.817 174.094 221.94 174.509 222.036L175.905 222.334C176.679 222.501 177.254 222.765 177.631 223.127C178.011 223.49 178.202 223.964 178.206 224.55C178.202 225.065 178.051 225.519 177.753 225.913C177.458 226.304 177.048 226.609 176.523 226.83C175.997 227.05 175.393 227.16 174.712 227.16C173.71 227.16 172.904 226.95 172.293 226.531C171.682 226.109 171.318 225.521 171.201 224.768L173.082 224.587C173.167 224.956 173.348 225.235 173.625 225.423C173.902 225.612 174.262 225.706 174.706 225.706C175.164 225.706 175.532 225.612 175.809 225.423C176.089 225.235 176.23 225.002 176.23 224.725C176.23 224.491 176.139 224.298 175.958 224.145C175.78 223.992 175.504 223.875 175.127 223.793L173.731 223.5C172.947 223.337 172.366 223.062 171.99 222.675C171.613 222.284 171.427 221.79 171.43 221.194C171.427 220.69 171.564 220.253 171.841 219.884C172.121 219.511 172.51 219.223 173.007 219.021C173.508 218.815 174.085 218.712 174.738 218.712C175.697 218.712 176.452 218.916 177.002 219.324C177.556 219.733 177.899 220.285 178.03 220.981ZM181.554 224.433L181.548 222.105H181.857L184.798 218.818H187.051L183.434 222.845H183.035L181.554 224.433ZM179.796 227V216.091H181.724V227H179.796ZM184.931 227L182.268 223.277L183.567 221.918L187.237 227H184.931ZM190.69 227.165C190.172 227.165 189.705 227.073 189.289 226.888C188.878 226.7 188.551 226.423 188.309 226.057C188.071 225.691 187.952 225.24 187.952 224.704C187.952 224.243 188.038 223.861 188.208 223.559C188.379 223.257 188.611 223.016 188.906 222.835C189.201 222.653 189.533 222.517 189.902 222.424C190.275 222.328 190.66 222.259 191.058 222.217C191.537 222.167 191.926 222.123 192.224 222.083C192.523 222.041 192.739 221.977 192.874 221.892C193.013 221.803 193.082 221.666 193.082 221.482V221.45C193.082 221.048 192.963 220.738 192.725 220.517C192.487 220.297 192.145 220.187 191.697 220.187C191.225 220.187 190.85 220.29 190.573 220.496C190.3 220.702 190.115 220.945 190.019 221.226L188.219 220.97C188.361 220.473 188.595 220.058 188.922 219.724C189.249 219.386 189.648 219.134 190.12 218.967C190.593 218.797 191.115 218.712 191.686 218.712C192.081 218.712 192.473 218.758 192.864 218.85C193.254 218.942 193.611 219.095 193.934 219.308C194.258 219.518 194.517 219.804 194.712 220.166C194.911 220.528 195.01 220.981 195.01 221.524V227H193.157V225.876H193.093C192.976 226.103 192.81 226.316 192.597 226.515C192.388 226.711 192.123 226.869 191.804 226.989C191.488 227.107 191.117 227.165 190.69 227.165ZM191.191 225.748C191.578 225.748 191.914 225.672 192.198 225.519C192.482 225.363 192.7 225.157 192.853 224.901C193.009 224.646 193.087 224.367 193.087 224.065V223.101C193.027 223.151 192.924 223.197 192.778 223.239C192.636 223.282 192.477 223.319 192.299 223.351C192.121 223.383 191.946 223.412 191.772 223.436C191.598 223.461 191.447 223.483 191.319 223.5C191.031 223.539 190.774 223.603 190.547 223.692C190.319 223.781 190.14 223.905 190.009 224.065C189.877 224.221 189.811 224.424 189.811 224.672C189.811 225.027 189.941 225.295 190.2 225.477C190.46 225.658 190.79 225.748 191.191 225.748ZM201.035 218.818V220.31H196.331V218.818H201.035ZM197.493 216.858H199.421V224.539C199.421 224.798 199.46 224.997 199.538 225.136C199.62 225.271 199.726 225.363 199.858 225.413C199.989 225.462 200.135 225.487 200.294 225.487C200.415 225.487 200.525 225.478 200.625 225.461C200.728 225.443 200.806 225.427 200.859 225.413L201.184 226.92C201.081 226.956 200.934 226.995 200.742 227.037C200.554 227.08 200.323 227.105 200.049 227.112C199.566 227.126 199.131 227.053 198.744 226.893C198.357 226.73 198.05 226.478 197.823 226.137C197.599 225.796 197.489 225.37 197.493 224.859V216.858ZM206.182 227.16C205.361 227.16 204.653 226.989 204.056 226.648C203.463 226.304 203.007 225.817 202.687 225.189C202.368 224.557 202.208 223.813 202.208 222.957C202.208 222.115 202.368 221.377 202.687 220.741C203.011 220.102 203.462 219.605 204.04 219.25C204.619 218.891 205.299 218.712 206.081 218.712C206.585 218.712 207.061 218.793 207.508 218.957C207.959 219.116 208.357 219.365 208.701 219.702C209.049 220.04 209.323 220.469 209.522 220.991C209.72 221.51 209.82 222.128 209.82 222.845V223.436H203.114V222.137H207.972C207.968 221.767 207.888 221.439 207.732 221.151C207.576 220.86 207.357 220.631 207.077 220.464C206.8 220.297 206.477 220.214 206.107 220.214C205.713 220.214 205.367 220.31 205.068 220.501C204.77 220.69 204.538 220.938 204.371 221.247C204.207 221.553 204.124 221.888 204.12 222.254V223.388C204.12 223.864 204.207 224.273 204.381 224.614C204.555 224.951 204.799 225.21 205.111 225.391C205.424 225.569 205.789 225.658 206.208 225.658C206.489 225.658 206.743 225.619 206.97 225.54C207.197 225.459 207.394 225.34 207.561 225.184C207.728 225.027 207.854 224.834 207.94 224.603L209.74 224.805C209.626 225.281 209.41 225.697 209.09 226.052C208.774 226.403 208.369 226.677 207.876 226.872C207.382 227.064 206.817 227.16 206.182 227.16Z" fill="black"/>
<rect x="62.5" y="202.5" width="242" height="39" rx="19.5" stroke="#312ECB"/>
<rect x="62.5" y="252.5" width="242" height="39" rx="19.5" fill="#F5F5F5"/>
<path d="M157.383 277.149C156.673 277.149 156.037 277.016 155.476 276.75C154.915 276.48 154.469 276.11 154.139 275.642C153.813 275.173 153.638 274.637 153.617 274.033H155.535C155.57 274.48 155.764 274.846 156.115 275.13C156.467 275.411 156.89 275.551 157.383 275.551C157.77 275.551 158.115 275.462 158.417 275.285C158.718 275.107 158.956 274.86 159.13 274.544C159.304 274.228 159.39 273.868 159.386 273.463C159.39 273.051 159.303 272.685 159.125 272.366C158.947 272.046 158.704 271.796 158.395 271.615C158.086 271.43 157.731 271.338 157.33 271.338C157.003 271.334 156.682 271.395 156.366 271.519C156.05 271.643 155.799 271.806 155.615 272.009L153.83 271.716L154.4 266.091H160.728V267.742H156.036L155.721 270.635H155.785C155.988 270.397 156.273 270.2 156.643 270.043C157.012 269.884 157.417 269.804 157.857 269.804C158.518 269.804 159.107 269.96 159.626 270.272C160.144 270.581 160.553 271.007 160.851 271.551C161.149 272.094 161.298 272.716 161.298 273.415C161.298 274.136 161.131 274.779 160.798 275.343C160.467 275.904 160.007 276.347 159.418 276.67C158.832 276.989 158.154 277.149 157.383 277.149ZM163.926 277.117C163.603 277.117 163.326 277.004 163.095 276.776C162.864 276.549 162.75 276.272 162.754 275.945C162.75 275.626 162.864 275.352 163.095 275.125C163.326 274.898 163.603 274.784 163.926 274.784C164.238 274.784 164.51 274.898 164.741 275.125C164.975 275.352 165.094 275.626 165.098 275.945C165.094 276.162 165.037 276.359 164.927 276.537C164.821 276.714 164.679 276.856 164.501 276.963C164.327 277.066 164.135 277.117 163.926 277.117ZM169.017 272.206V277H167.088V266.091H168.974V270.208H169.07C169.262 269.747 169.558 269.383 169.96 269.116C170.364 268.847 170.879 268.712 171.504 268.712C172.072 268.712 172.568 268.831 172.99 269.069C173.413 269.306 173.74 269.654 173.971 270.113C174.205 270.571 174.322 271.13 174.322 271.79V277H172.394V272.089C172.394 271.538 172.252 271.11 171.968 270.805C171.687 270.496 171.293 270.342 170.785 270.342C170.444 270.342 170.139 270.416 169.869 270.565C169.603 270.711 169.393 270.922 169.24 271.199C169.091 271.476 169.017 271.812 169.017 272.206ZM178.642 277.165C178.124 277.165 177.657 277.073 177.241 276.888C176.829 276.7 176.502 276.423 176.261 276.057C176.023 275.691 175.904 275.24 175.904 274.704C175.904 274.243 175.989 273.861 176.16 273.559C176.33 273.257 176.563 273.016 176.858 272.835C177.152 272.653 177.484 272.517 177.854 272.424C178.227 272.328 178.612 272.259 179.01 272.217C179.489 272.167 179.878 272.123 180.176 272.083C180.474 272.041 180.691 271.977 180.826 271.892C180.964 271.803 181.034 271.666 181.034 271.482V271.45C181.034 271.048 180.915 270.738 180.677 270.517C180.439 270.297 180.096 270.187 179.649 270.187C179.176 270.187 178.802 270.29 178.525 270.496C178.251 270.702 178.067 270.945 177.971 271.226L176.17 270.97C176.313 270.473 176.547 270.058 176.874 269.724C177.2 269.386 177.6 269.134 178.072 268.967C178.544 268.797 179.066 268.712 179.638 268.712C180.032 268.712 180.425 268.758 180.815 268.85C181.206 268.942 181.563 269.095 181.886 269.308C182.209 269.518 182.468 269.804 182.664 270.166C182.863 270.528 182.962 270.981 182.962 271.524V277H181.108V275.876H181.044C180.927 276.103 180.762 276.316 180.549 276.515C180.339 276.711 180.075 276.869 179.755 276.989C179.439 277.107 179.068 277.165 178.642 277.165ZM179.143 275.748C179.53 275.748 179.865 275.672 180.15 275.519C180.434 275.363 180.652 275.157 180.805 274.901C180.961 274.646 181.039 274.367 181.039 274.065V273.101C180.979 273.151 180.876 273.197 180.73 273.239C180.588 273.282 180.428 273.319 180.251 273.351C180.073 273.383 179.897 273.412 179.723 273.436C179.549 273.461 179.398 273.483 179.271 273.5C178.983 273.539 178.725 273.603 178.498 273.692C178.271 273.781 178.092 273.905 177.96 274.065C177.829 274.221 177.763 274.424 177.763 274.672C177.763 275.027 177.893 275.295 178.152 275.477C178.411 275.658 178.741 275.748 179.143 275.748ZM184.901 277V268.818H186.771V270.182H186.856C187.005 269.71 187.261 269.346 187.623 269.09C187.989 268.831 188.406 268.701 188.875 268.701C188.981 268.701 189.1 268.706 189.232 268.717C189.366 268.724 189.478 268.737 189.567 268.754V270.528C189.485 270.5 189.356 270.475 189.178 270.453C189.004 270.429 188.836 270.416 188.672 270.416C188.321 270.416 188.005 270.493 187.724 270.645C187.447 270.794 187.229 271.002 187.069 271.268C186.909 271.535 186.829 271.842 186.829 272.19V277H184.901ZM190.933 277V266.091H192.862V270.171H192.942C193.041 269.972 193.181 269.761 193.362 269.537C193.544 269.31 193.789 269.116 194.097 268.957C194.406 268.793 194.801 268.712 195.28 268.712C195.912 268.712 196.482 268.873 196.99 269.196C197.501 269.516 197.906 269.99 198.204 270.619C198.506 271.244 198.657 272.011 198.657 272.92C198.657 273.818 198.51 274.582 198.215 275.21C197.92 275.839 197.519 276.318 197.011 276.648C196.503 276.979 195.928 277.144 195.285 277.144C194.817 277.144 194.428 277.066 194.119 276.909C193.81 276.753 193.561 276.565 193.373 276.345C193.188 276.121 193.045 275.91 192.942 275.711H192.83V277H190.933ZM192.824 272.909C192.824 273.438 192.899 273.902 193.048 274.299C193.201 274.697 193.419 275.008 193.703 275.232C193.991 275.452 194.339 275.562 194.747 275.562C195.173 275.562 195.53 275.448 195.818 275.221C196.106 274.99 196.322 274.676 196.468 274.278C196.617 273.877 196.692 273.42 196.692 272.909C196.692 272.401 196.619 271.95 196.473 271.556C196.328 271.162 196.111 270.853 195.823 270.629C195.536 270.406 195.177 270.294 194.747 270.294C194.335 270.294 193.986 270.402 193.698 270.619C193.41 270.835 193.192 271.139 193.043 271.529C192.897 271.92 192.824 272.38 192.824 272.909ZM203.865 277.16C203.066 277.16 202.374 276.984 201.788 276.632C201.202 276.281 200.747 275.789 200.424 275.157C200.105 274.525 199.945 273.786 199.945 272.941C199.945 272.096 200.105 271.355 200.424 270.72C200.747 270.084 201.202 269.591 201.788 269.239C202.374 268.887 203.066 268.712 203.865 268.712C204.664 268.712 205.357 268.887 205.943 269.239C206.529 269.591 206.981 270.084 207.301 270.72C207.624 271.355 207.786 272.096 207.786 272.941C207.786 273.786 207.624 274.525 207.301 275.157C206.981 275.789 206.529 276.281 205.943 276.632C205.357 276.984 204.664 277.16 203.865 277.16ZM203.876 275.615C204.309 275.615 204.671 275.496 204.963 275.258C205.254 275.017 205.47 274.694 205.612 274.289C205.758 273.884 205.831 273.433 205.831 272.936C205.831 272.435 205.758 271.982 205.612 271.577C205.47 271.169 205.254 270.844 204.963 270.603C204.671 270.361 204.309 270.24 203.876 270.24C203.432 270.24 203.063 270.361 202.768 270.603C202.477 270.844 202.258 271.169 202.113 271.577C201.971 271.982 201.9 272.435 201.9 272.936C201.9 273.433 201.971 273.884 202.113 274.289C202.258 274.694 202.477 275.017 202.768 275.258C203.063 275.496 203.432 275.615 203.876 275.615ZM209.422 277V268.818H211.292V270.182H211.377C211.526 269.71 211.782 269.346 212.144 269.09C212.51 268.831 212.927 268.701 213.396 268.701C213.503 268.701 213.622 268.706 213.753 268.717C213.888 268.724 214 268.737 214.089 268.754V270.528C214.007 270.5 213.877 270.475 213.7 270.453C213.526 270.429 213.357 270.416 213.194 270.416C212.842 270.416 212.526 270.493 212.246 270.645C211.969 270.794 211.75 271.002 211.59 271.268C211.431 271.535 211.351 271.842 211.351 272.19V277H209.422Z" fill="black"/>
<rect x="62.5" y="252.5" width="242" height="39" rx="19.5" stroke="#312ECB"/>
<rect x="62.5" y="302.5" width="242" height="39" rx="19.5" fill="#F5F5F5"/>
<path d="M165.247 327.149C164.725 327.146 164.215 327.055 163.718 326.877C163.221 326.696 162.773 326.403 162.376 325.999C161.978 325.59 161.662 325.049 161.427 324.374C161.193 323.696 161.078 322.856 161.081 321.854C161.081 320.92 161.181 320.088 161.38 319.356C161.578 318.625 161.864 318.007 162.237 317.502C162.61 316.995 163.059 316.608 163.585 316.341C164.114 316.075 164.705 315.942 165.359 315.942C166.044 315.942 166.651 316.077 167.18 316.347C167.713 316.616 168.143 316.986 168.469 317.455C168.796 317.92 168.998 318.445 169.077 319.031H167.132C167.033 318.612 166.829 318.278 166.52 318.03C166.214 317.778 165.827 317.652 165.359 317.652C164.602 317.652 164.02 317.98 163.611 318.637C163.207 319.294 163.002 320.196 162.999 321.343H163.073C163.247 321.031 163.473 320.762 163.75 320.539C164.027 320.315 164.339 320.143 164.687 320.022C165.039 319.898 165.41 319.836 165.801 319.836C166.44 319.836 167.013 319.988 167.521 320.294C168.033 320.599 168.437 321.02 168.736 321.556C169.034 322.089 169.181 322.7 169.178 323.388C169.181 324.106 169.018 324.75 168.688 325.322C168.358 325.89 167.898 326.338 167.308 326.664C166.719 326.991 166.032 327.153 165.247 327.149ZM165.236 325.551C165.623 325.551 165.969 325.457 166.275 325.269C166.58 325.081 166.822 324.827 166.999 324.507C167.177 324.187 167.264 323.829 167.26 323.431C167.264 323.04 167.179 322.687 167.005 322.371C166.834 322.055 166.598 321.805 166.296 321.62C165.994 321.435 165.65 321.343 165.263 321.343C164.975 321.343 164.707 321.398 164.458 321.508C164.21 321.618 163.993 321.771 163.809 321.966C163.624 322.158 163.478 322.382 163.372 322.637C163.269 322.89 163.215 323.159 163.212 323.447C163.215 323.827 163.304 324.177 163.478 324.496C163.652 324.816 163.892 325.072 164.197 325.263C164.503 325.455 164.849 325.551 165.236 325.551ZM171.719 327.117C171.396 327.117 171.119 327.004 170.888 326.776C170.657 326.549 170.543 326.272 170.547 325.945C170.543 325.626 170.657 325.352 170.888 325.125C171.119 324.898 171.396 324.784 171.719 324.784C172.031 324.784 172.303 324.898 172.534 325.125C172.768 325.352 172.887 325.626 172.891 325.945C172.887 326.162 172.83 326.359 172.72 326.537C172.614 326.714 172.472 326.856 172.294 326.963C172.12 327.066 171.928 327.117 171.719 327.117ZM174.881 330.068V318.818H176.778V320.171H176.89C176.989 319.972 177.129 319.761 177.31 319.537C177.491 319.31 177.737 319.116 178.045 318.957C178.354 318.793 178.749 318.712 179.228 318.712C179.86 318.712 180.43 318.873 180.938 319.196C181.449 319.516 181.854 319.99 182.152 320.619C182.454 321.244 182.605 322.011 182.605 322.92C182.605 323.818 182.458 324.582 182.163 325.21C181.868 325.839 181.467 326.318 180.959 326.648C180.451 326.979 179.876 327.144 179.233 327.144C178.765 327.144 178.376 327.066 178.067 326.909C177.758 326.753 177.509 326.565 177.321 326.345C177.136 326.121 176.993 325.91 176.89 325.711H176.81V330.068H174.881ZM176.772 322.909C176.772 323.438 176.847 323.902 176.996 324.299C177.149 324.697 177.367 325.008 177.651 325.232C177.939 325.452 178.287 325.562 178.695 325.562C179.121 325.562 179.478 325.448 179.766 325.221C180.054 324.99 180.27 324.676 180.416 324.278C180.565 323.877 180.64 323.42 180.64 322.909C180.64 322.401 180.567 321.95 180.421 321.556C180.276 321.162 180.059 320.853 179.771 320.629C179.484 320.406 179.125 320.294 178.695 320.294C178.283 320.294 177.934 320.402 177.646 320.619C177.358 320.835 177.14 321.139 176.991 321.529C176.845 321.92 176.772 322.38 176.772 322.909ZM187.879 327.16C187.058 327.16 186.35 326.989 185.753 326.648C185.16 326.304 184.704 325.817 184.384 325.189C184.065 324.557 183.905 323.813 183.905 322.957C183.905 322.115 184.065 321.377 184.384 320.741C184.707 320.102 185.158 319.605 185.737 319.25C186.316 318.891 186.996 318.712 187.777 318.712C188.282 318.712 188.757 318.793 189.205 318.957C189.656 319.116 190.054 319.365 190.398 319.702C190.746 320.04 191.02 320.469 191.218 320.991C191.417 321.51 191.517 322.128 191.517 322.845V323.436H184.81V322.137H189.668C189.665 321.767 189.585 321.439 189.429 321.151C189.272 320.86 189.054 320.631 188.773 320.464C188.496 320.297 188.173 320.214 187.804 320.214C187.41 320.214 187.064 320.31 186.765 320.501C186.467 320.69 186.234 320.938 186.067 321.247C185.904 321.553 185.821 321.888 185.817 322.254V323.388C185.817 323.864 185.904 324.273 186.078 324.614C186.252 324.951 186.495 325.21 186.808 325.391C187.12 325.569 187.486 325.658 187.905 325.658C188.186 325.658 188.44 325.619 188.667 325.54C188.894 325.459 189.091 325.34 189.258 325.184C189.425 325.027 189.551 324.834 189.636 324.603L191.437 324.805C191.323 325.281 191.107 325.697 190.787 326.052C190.471 326.403 190.066 326.677 189.572 326.872C189.079 327.064 188.514 327.16 187.879 327.16ZM195.502 327.165C194.984 327.165 194.517 327.073 194.101 326.888C193.69 326.7 193.363 326.423 193.121 326.057C192.883 325.691 192.764 325.24 192.764 324.704C192.764 324.243 192.85 323.861 193.02 323.559C193.191 323.257 193.423 323.016 193.718 322.835C194.013 322.653 194.345 322.517 194.714 322.424C195.087 322.328 195.472 322.259 195.87 322.217C196.349 322.167 196.738 322.123 197.036 322.083C197.335 322.041 197.551 321.977 197.686 321.892C197.825 321.803 197.894 321.666 197.894 321.482V321.45C197.894 321.048 197.775 320.738 197.537 320.517C197.299 320.297 196.957 320.187 196.509 320.187C196.037 320.187 195.662 320.29 195.385 320.496C195.112 320.702 194.927 320.945 194.831 321.226L193.031 320.97C193.173 320.473 193.407 320.058 193.734 319.724C194.061 319.386 194.46 319.134 194.932 318.967C195.405 318.797 195.927 318.712 196.498 318.712C196.893 318.712 197.285 318.758 197.676 318.85C198.066 318.942 198.423 319.095 198.746 319.308C199.07 319.518 199.329 319.804 199.524 320.166C199.723 320.528 199.822 320.981 199.822 321.524V327H197.969V325.876H197.905C197.788 326.103 197.622 326.316 197.409 326.515C197.2 326.711 196.935 326.869 196.616 326.989C196.3 327.107 195.929 327.165 195.502 327.165ZM196.003 325.748C196.39 325.748 196.726 325.672 197.01 325.519C197.294 325.363 197.512 325.157 197.665 324.901C197.821 324.646 197.899 324.367 197.899 324.065V323.101C197.839 323.151 197.736 323.197 197.59 323.239C197.448 323.282 197.289 323.319 197.111 323.351C196.934 323.383 196.758 323.412 196.584 323.436C196.41 323.461 196.259 323.483 196.131 323.5C195.843 323.539 195.586 323.603 195.359 323.692C195.131 323.781 194.952 323.905 194.821 324.065C194.689 324.221 194.623 324.424 194.623 324.672C194.623 325.027 194.753 325.295 195.012 325.477C195.272 325.658 195.602 325.748 196.003 325.748ZM201.761 327V318.818H203.631V320.182H203.716C203.865 319.71 204.121 319.346 204.483 319.09C204.849 318.831 205.266 318.701 205.735 318.701C205.842 318.701 205.96 318.706 206.092 318.717C206.227 318.724 206.339 318.737 206.427 318.754V320.528C206.346 320.5 206.216 320.475 206.039 320.453C205.865 320.429 205.696 320.416 205.533 320.416C205.181 320.416 204.865 320.493 204.584 320.645C204.307 320.794 204.089 321.002 203.929 321.268C203.769 321.535 203.69 321.842 203.69 322.19V327H201.761Z" fill="black"/>
<rect x="62.5" y="302.5" width="242" height="39" rx="19.5" stroke="#312ECB"/>
<rect x="331.5" y="52.5" width="242" height="39" rx="19.5" fill="#F5F5F5"/>
<path d="M426.345 77L430.984 67.8168V67.7422H425.599V66.0909H433.03V67.7795L428.395 77H426.345ZM434.083 77.1172C433.76 77.1172 433.483 77.0036 433.252 76.7763C433.021 76.549 432.907 76.272 432.911 75.9453C432.907 75.6257 433.021 75.3523 433.252 75.125C433.483 74.8977 433.76 74.7841 434.083 74.7841C434.395 74.7841 434.667 74.8977 434.898 75.125C435.132 75.3523 435.251 75.6257 435.255 75.9453C435.251 76.1619 435.194 76.359 435.084 76.5366C434.978 76.7141 434.836 76.8562 434.658 76.9627C434.484 77.0657 434.292 77.1172 434.083 77.1172ZM443.712 70.9808L441.954 71.1726C441.905 70.995 441.818 70.8281 441.693 70.6719C441.573 70.5156 441.409 70.3896 441.203 70.2937C440.997 70.1978 440.745 70.1499 440.447 70.1499C440.046 70.1499 439.708 70.2369 439.435 70.4109C439.165 70.5849 439.032 70.8104 439.035 71.0874C439.032 71.3253 439.119 71.5188 439.296 71.668C439.478 71.8171 439.776 71.9396 440.191 72.0355L441.587 72.3338C442.361 72.5007 442.936 72.7653 443.313 73.1275C443.693 73.4897 443.884 73.9638 443.888 74.5497C443.884 75.0646 443.734 75.5192 443.435 75.9134C443.141 76.304 442.73 76.6094 442.205 76.8295C441.679 77.0497 441.076 77.1598 440.394 77.1598C439.392 77.1598 438.586 76.9503 437.975 76.5312C437.365 76.1087 437.001 75.521 436.883 74.7681L438.764 74.587C438.849 74.9563 439.03 75.2351 439.307 75.4233C439.584 75.6115 439.945 75.7056 440.388 75.7056C440.847 75.7056 441.214 75.6115 441.491 75.4233C441.772 75.2351 441.912 75.0025 441.912 74.7255C441.912 74.4911 441.821 74.2976 441.64 74.1449C441.463 73.9922 441.186 73.875 440.809 73.7933L439.414 73.5004C438.629 73.337 438.048 73.0618 437.672 72.6747C437.295 72.2841 437.109 71.7905 437.112 71.1939C437.109 70.6896 437.246 70.2528 437.523 69.8835C437.803 69.5107 438.192 69.223 438.689 69.0206C439.19 68.8146 439.767 68.7116 440.42 68.7116C441.379 68.7116 442.134 68.9158 442.684 69.3242C443.238 69.7326 443.581 70.2848 443.712 70.9808ZM445.478 80.0682V68.8182H447.374V70.1712H447.486C447.586 69.9723 447.726 69.761 447.907 69.5373C448.088 69.31 448.333 69.1165 448.642 68.9567C448.951 68.7933 449.345 68.7116 449.825 68.7116C450.457 68.7116 451.027 68.8732 451.535 69.1964C452.046 69.516 452.451 69.9901 452.749 70.6186C453.051 71.2436 453.202 72.0107 453.202 72.9197C453.202 73.8182 453.054 74.5817 452.76 75.2102C452.465 75.8388 452.064 76.3182 451.556 76.6484C451.048 76.9787 450.473 77.1438 449.83 77.1438C449.361 77.1438 448.972 77.0657 448.663 76.9094C448.354 76.7532 448.106 76.565 447.918 76.3448C447.733 76.1211 447.589 75.9098 447.486 75.7109H447.406V80.0682H445.478ZM447.369 72.9091C447.369 73.4382 447.444 73.9016 447.593 74.2994C447.745 74.6971 447.964 75.0078 448.248 75.2315C448.536 75.4517 448.884 75.5618 449.292 75.5618C449.718 75.5618 450.075 75.4482 450.363 75.2209C450.65 74.9901 450.867 74.6758 451.013 74.2781C451.162 73.8768 451.236 73.4205 451.236 72.9091C451.236 72.4013 451.163 71.9503 451.018 71.5561C450.872 71.1619 450.656 70.853 450.368 70.6293C450.08 70.4055 449.722 70.2937 449.292 70.2937C448.88 70.2937 448.53 70.402 448.243 70.6186C447.955 70.8352 447.737 71.1388 447.587 71.5295C447.442 71.9201 447.369 72.38 447.369 72.9091ZM457.207 77.1651C456.689 77.1651 456.222 77.0728 455.807 76.8881C455.395 76.6999 455.068 76.4229 454.826 76.0572C454.589 75.6914 454.47 75.2404 454.47 74.7042C454.47 74.2425 454.555 73.8608 454.725 73.5589C454.896 73.2571 455.128 73.0156 455.423 72.8345C455.718 72.6534 456.05 72.5167 456.419 72.4244C456.792 72.3285 457.177 72.2592 457.575 72.2166C458.054 72.1669 458.443 72.1225 458.742 72.0835C459.04 72.0408 459.256 71.9769 459.391 71.8917C459.53 71.8029 459.599 71.6662 459.599 71.4815V71.4496C459.599 71.0483 459.48 70.7376 459.242 70.5174C459.004 70.2972 458.662 70.1871 458.214 70.1871C457.742 70.1871 457.367 70.2901 457.09 70.4961C456.817 70.7021 456.632 70.9453 456.536 71.2259L454.736 70.9702C454.878 70.473 455.112 70.0575 455.439 69.7237C455.766 69.3864 456.165 69.1342 456.638 68.9673C457.11 68.7969 457.632 68.7116 458.204 68.7116C458.598 68.7116 458.99 68.7578 459.381 68.8501C459.771 68.9425 460.128 69.0952 460.451 69.3082C460.775 69.5178 461.034 69.8036 461.229 70.1658C461.428 70.5281 461.527 70.9808 461.527 71.5241V77H459.674V75.8761H459.61C459.493 76.1033 459.328 76.3164 459.114 76.5153C458.905 76.7106 458.64 76.8686 458.321 76.9893C458.005 77.1065 457.634 77.1651 457.207 77.1651ZM457.708 75.7482C458.095 75.7482 458.431 75.6719 458.715 75.5192C458.999 75.3629 459.217 75.157 459.37 74.9013C459.526 74.6456 459.604 74.3668 459.604 74.065V73.1009C459.544 73.1506 459.441 73.1967 459.296 73.2393C459.153 73.282 458.994 73.3192 458.816 73.3512C458.639 73.3832 458.463 73.4116 458.289 73.4364C458.115 73.4613 457.964 73.4826 457.836 73.5004C457.548 73.5394 457.291 73.6033 457.064 73.6921C456.836 73.7809 456.657 73.9052 456.526 74.065C456.394 74.2212 456.329 74.4237 456.329 74.6722C456.329 75.0273 456.458 75.2955 456.717 75.4766C456.977 75.6577 457.307 75.7482 457.708 75.7482ZM467.035 77.1598C466.218 77.1598 465.517 76.9805 464.931 76.6218C464.349 76.2631 463.9 75.7678 463.584 75.1357C463.271 74.5 463.115 73.7685 463.115 72.9411C463.115 72.1101 463.275 71.3768 463.594 70.7411C463.914 70.1019 464.365 69.6048 464.947 69.2496C465.533 68.891 466.226 68.7116 467.025 68.7116C467.689 68.7116 468.276 68.8342 468.788 69.0792C469.303 69.3207 469.713 69.6634 470.018 70.1072C470.324 70.5476 470.498 71.0625 470.54 71.652H468.697C468.623 71.2578 468.445 70.9293 468.165 70.6665C467.888 70.4002 467.516 70.267 467.051 70.267C466.657 70.267 466.311 70.3736 466.013 70.5866C465.714 70.7962 465.482 71.098 465.315 71.4922C465.151 71.8864 465.07 72.3587 465.07 72.9091C465.07 73.4666 465.151 73.946 465.315 74.3473C465.478 74.745 465.707 75.0522 466.002 75.2688C466.3 75.4819 466.65 75.5884 467.051 75.5884C467.335 75.5884 467.589 75.5352 467.813 75.4286C468.04 75.3185 468.23 75.1605 468.383 74.9545C468.536 74.7486 468.64 74.4982 468.697 74.2035H470.54C470.494 74.7823 470.324 75.2955 470.029 75.7429C469.734 76.1868 469.333 76.5348 468.825 76.7869C468.317 77.0355 467.721 77.1598 467.035 77.1598ZM475.746 77.1598C474.925 77.1598 474.217 76.9893 473.62 76.6484C473.027 76.304 472.571 75.8175 472.251 75.1889C471.932 74.5568 471.772 73.8129 471.772 72.957C471.772 72.1154 471.932 71.3768 472.251 70.7411C472.575 70.1019 473.026 69.6048 473.604 69.2496C474.183 68.891 474.863 68.7116 475.645 68.7116C476.149 68.7116 476.625 68.7933 477.072 68.9567C477.523 69.1165 477.921 69.3651 478.265 69.7024C478.613 70.0398 478.887 70.4695 479.086 70.9915C479.284 71.5099 479.384 72.1278 479.384 72.8452V73.4364H472.678V72.1367H477.536C477.532 71.7674 477.452 71.4389 477.296 71.1513C477.14 70.8601 476.921 70.631 476.641 70.4641C476.364 70.2972 476.04 70.2138 475.671 70.2138C475.277 70.2138 474.931 70.3097 474.632 70.5014C474.334 70.6896 474.102 70.9382 473.935 71.2472C473.771 71.5526 473.688 71.8881 473.684 72.2539V73.3885C473.684 73.8643 473.771 74.2727 473.945 74.6136C474.119 74.951 474.363 75.2102 474.675 75.3913C474.988 75.5689 475.353 75.6577 475.772 75.6577C476.053 75.6577 476.307 75.6186 476.534 75.5405C476.761 75.4588 476.958 75.3398 477.125 75.1836C477.292 75.0273 477.418 74.8338 477.504 74.603L479.304 74.8054C479.19 75.2812 478.974 75.6967 478.654 76.0518C478.338 76.4034 477.933 76.6768 477.44 76.8722C476.946 77.0639 476.381 77.1598 475.746 77.1598Z" fill="black"/>
<rect x="331.5" y="52.5" width="242" height="39" rx="19.5" stroke="#312ECB"/>
<rect x="331.5" y="102.5" width="242" height="39" rx="19.5" fill="#F5F5F5"/>
<path d="M427.823 127.149C427.031 127.149 426.328 127.016 425.714 126.75C425.103 126.483 424.624 126.119 424.276 125.658C423.931 125.192 423.761 124.665 423.764 124.076C423.761 123.618 423.86 123.197 424.063 122.813C424.265 122.43 424.539 122.11 424.883 121.854C425.231 121.595 425.618 121.43 426.044 121.359V121.284C425.483 121.16 425.029 120.874 424.681 120.427C424.336 119.976 424.166 119.456 424.169 118.866C424.166 118.305 424.322 117.804 424.638 117.364C424.954 116.924 425.387 116.577 425.938 116.325C426.488 116.07 427.117 115.942 427.823 115.942C428.523 115.942 429.146 116.07 429.693 116.325C430.243 116.577 430.677 116.924 430.993 117.364C431.312 117.804 431.472 118.305 431.472 118.866C431.472 119.456 431.296 119.976 430.945 120.427C430.597 120.874 430.148 121.16 429.597 121.284V121.359C430.023 121.43 430.407 121.595 430.748 121.854C431.092 122.11 431.366 122.43 431.568 122.813C431.774 123.197 431.877 123.618 431.877 124.076C431.877 124.665 431.703 125.192 431.355 125.658C431.007 126.119 430.528 126.483 429.917 126.75C429.31 127.016 428.612 127.149 427.823 127.149ZM427.823 125.626C428.232 125.626 428.587 125.556 428.889 125.418C429.191 125.276 429.425 125.077 429.592 124.821C429.759 124.566 429.844 124.271 429.848 123.937C429.844 123.589 429.753 123.282 429.576 123.016C429.402 122.746 429.162 122.534 428.857 122.382C428.555 122.229 428.21 122.153 427.823 122.153C427.433 122.153 427.085 122.229 426.779 122.382C426.474 122.534 426.232 122.746 426.055 123.016C425.881 123.282 425.796 123.589 425.799 123.937C425.796 124.271 425.877 124.566 426.044 124.821C426.211 125.074 426.446 125.271 426.747 125.413C427.053 125.555 427.411 125.626 427.823 125.626ZM427.823 120.656C428.157 120.656 428.452 120.588 428.708 120.453C428.967 120.319 429.171 120.13 429.32 119.889C429.469 119.647 429.546 119.369 429.549 119.053C429.546 118.74 429.471 118.467 429.326 118.232C429.18 117.994 428.977 117.811 428.718 117.684C428.459 117.552 428.161 117.487 427.823 117.487C427.479 117.487 427.175 117.552 426.913 117.684C426.653 117.811 426.451 117.994 426.305 118.232C426.163 118.467 426.094 118.74 426.098 119.053C426.094 119.369 426.165 119.647 426.311 119.889C426.46 120.127 426.664 120.315 426.923 120.453C427.186 120.588 427.486 120.656 427.823 120.656ZM434.515 127.117C434.192 127.117 433.915 127.004 433.684 126.776C433.453 126.549 433.34 126.272 433.343 125.945C433.34 125.626 433.453 125.352 433.684 125.125C433.915 124.898 434.192 124.784 434.515 124.784C434.828 124.784 435.099 124.898 435.33 125.125C435.564 125.352 435.683 125.626 435.687 125.945C435.683 126.162 435.627 126.359 435.516 126.537C435.41 126.714 435.268 126.856 435.09 126.963C434.916 127.066 434.725 127.117 434.515 127.117ZM437.763 127V116.091H439.691V120.171H439.771C439.871 119.972 440.011 119.761 440.192 119.537C440.373 119.31 440.618 119.116 440.927 118.957C441.236 118.793 441.63 118.712 442.11 118.712C442.742 118.712 443.312 118.873 443.819 119.196C444.331 119.516 444.736 119.99 445.034 120.619C445.336 121.244 445.487 122.011 445.487 122.92C445.487 123.818 445.339 124.582 445.045 125.21C444.75 125.839 444.349 126.318 443.841 126.648C443.333 126.979 442.758 127.144 442.115 127.144C441.646 127.144 441.257 127.066 440.948 126.909C440.639 126.753 440.391 126.565 440.203 126.345C440.018 126.121 439.874 125.91 439.771 125.711H439.659V127H437.763ZM439.654 122.909C439.654 123.438 439.729 123.902 439.878 124.299C440.03 124.697 440.249 125.008 440.533 125.232C440.821 125.452 441.169 125.562 441.577 125.562C442.003 125.562 442.36 125.448 442.648 125.221C442.935 124.99 443.152 124.676 443.297 124.278C443.447 123.877 443.521 123.42 443.521 122.909C443.521 122.401 443.448 121.95 443.303 121.556C443.157 121.162 442.941 120.853 442.653 120.629C442.365 120.406 442.007 120.294 441.577 120.294C441.165 120.294 440.815 120.402 440.528 120.619C440.24 120.835 440.022 121.139 439.872 121.529C439.727 121.92 439.654 122.38 439.654 122.909ZM450.748 127.16C449.928 127.16 449.219 126.989 448.623 126.648C448.03 126.304 447.573 125.817 447.254 125.189C446.934 124.557 446.774 123.813 446.774 122.957C446.774 122.115 446.934 121.377 447.254 120.741C447.577 120.102 448.028 119.605 448.607 119.25C449.186 118.891 449.866 118.712 450.647 118.712C451.151 118.712 451.627 118.793 452.075 118.957C452.526 119.116 452.923 119.365 453.268 119.702C453.616 120.04 453.889 120.469 454.088 120.991C454.287 121.51 454.386 122.128 454.386 122.845V123.436H447.68V122.137H452.538C452.534 121.767 452.455 121.439 452.298 121.151C452.142 120.86 451.924 120.631 451.643 120.464C451.366 120.297 451.043 120.214 450.674 120.214C450.279 120.214 449.933 120.31 449.635 120.501C449.337 120.69 449.104 120.938 448.937 121.247C448.774 121.553 448.69 121.888 448.687 122.254V123.388C448.687 123.864 448.774 124.273 448.948 124.614C449.122 124.951 449.365 125.21 449.678 125.391C449.99 125.569 450.356 125.658 450.775 125.658C451.055 125.658 451.309 125.619 451.537 125.54C451.764 125.459 451.961 125.34 452.128 125.184C452.295 125.027 452.421 124.834 452.506 124.603L454.306 124.805C454.193 125.281 453.976 125.697 453.657 126.052C453.341 126.403 452.936 126.677 452.442 126.872C451.948 127.064 451.384 127.16 450.748 127.16ZM457.946 122.206V127H456.018V118.818H457.861V120.208H457.957C458.145 119.75 458.445 119.386 458.857 119.116C459.272 118.847 459.785 118.712 460.396 118.712C460.961 118.712 461.453 118.832 461.872 119.074C462.294 119.315 462.621 119.665 462.852 120.123C463.086 120.581 463.202 121.137 463.198 121.79V127H461.27V122.089C461.27 121.542 461.128 121.114 460.844 120.805C460.563 120.496 460.174 120.342 459.677 120.342C459.34 120.342 459.04 120.416 458.777 120.565C458.518 120.711 458.313 120.922 458.164 121.199C458.019 121.476 457.946 121.812 457.946 122.206ZM468.727 127.16C467.91 127.16 467.209 126.98 466.623 126.622C466.041 126.263 465.591 125.768 465.275 125.136C464.963 124.5 464.807 123.768 464.807 122.941C464.807 122.11 464.966 121.377 465.286 120.741C465.606 120.102 466.057 119.605 466.639 119.25C467.225 118.891 467.917 118.712 468.716 118.712C469.381 118.712 469.968 118.834 470.48 119.079C470.995 119.321 471.405 119.663 471.71 120.107C472.015 120.548 472.189 121.062 472.232 121.652H470.389C470.314 121.258 470.137 120.929 469.856 120.667C469.579 120.4 469.208 120.267 468.743 120.267C468.349 120.267 468.003 120.374 467.704 120.587C467.406 120.796 467.174 121.098 467.007 121.492C466.843 121.886 466.762 122.359 466.762 122.909C466.762 123.467 466.843 123.946 467.007 124.347C467.17 124.745 467.399 125.052 467.694 125.269C467.992 125.482 468.342 125.588 468.743 125.588C469.027 125.588 469.281 125.535 469.505 125.429C469.732 125.319 469.922 125.161 470.075 124.955C470.227 124.749 470.332 124.498 470.389 124.203H472.232C472.186 124.782 472.015 125.295 471.721 125.743C471.426 126.187 471.025 126.535 470.517 126.787C470.009 127.036 469.413 127.16 468.727 127.16ZM475.744 122.206V127H473.815V116.091H475.701V120.208H475.797C475.989 119.747 476.285 119.383 476.687 119.116C477.091 118.847 477.606 118.712 478.231 118.712C478.799 118.712 479.295 118.831 479.717 119.069C480.14 119.306 480.467 119.654 480.698 120.113C480.932 120.571 481.049 121.13 481.049 121.79V127H479.121V122.089C479.121 121.538 478.979 121.11 478.695 120.805C478.414 120.496 478.02 120.342 477.512 120.342C477.171 120.342 476.866 120.416 476.596 120.565C476.33 120.711 476.12 120.922 475.967 121.199C475.818 121.476 475.744 121.812 475.744 122.206Z" fill="black"/>
<rect x="331.5" y="102.5" width="242" height="39" rx="19.5" stroke="#312ECB"/>
<rect x="331.5" y="152.5" width="242" height="39" rx="19.5" fill="#F5F5F5"/>
<path d="M418.665 165.942C419.187 165.945 419.695 166.038 420.189 166.219C420.686 166.396 421.133 166.688 421.531 167.092C421.929 167.494 422.245 168.032 422.479 168.706C422.714 169.381 422.831 170.216 422.831 171.21C422.834 172.147 422.735 172.985 422.533 173.724C422.334 174.459 422.048 175.081 421.675 175.588C421.302 176.096 420.853 176.483 420.327 176.75C419.802 177.016 419.211 177.149 418.554 177.149C417.865 177.149 417.254 177.014 416.721 176.744C416.192 176.474 415.764 176.105 415.437 175.636C415.111 175.168 414.91 174.631 414.836 174.028H416.78C416.879 174.461 417.082 174.805 417.387 175.061C417.696 175.313 418.085 175.439 418.554 175.439C419.31 175.439 419.892 175.111 420.301 174.454C420.709 173.797 420.913 172.884 420.913 171.716H420.839C420.665 172.028 420.439 172.298 420.162 172.526C419.885 172.749 419.571 172.922 419.219 173.042C418.871 173.163 418.502 173.223 418.111 173.223C417.472 173.223 416.897 173.071 416.386 172.765C415.878 172.46 415.475 172.041 415.176 171.508C414.882 170.975 414.733 170.366 414.729 169.681C414.729 168.971 414.892 168.333 415.219 167.769C415.549 167.201 416.009 166.753 416.599 166.426C417.188 166.096 417.877 165.935 418.665 165.942ZM418.671 167.54C418.287 167.54 417.941 167.634 417.632 167.822C417.327 168.007 417.085 168.259 416.908 168.578C416.734 168.895 416.647 169.248 416.647 169.638C416.65 170.026 416.737 170.377 416.908 170.693C417.082 171.009 417.318 171.26 417.616 171.444C417.918 171.629 418.262 171.721 418.649 171.721C418.937 171.721 419.205 171.666 419.454 171.556C419.702 171.446 419.919 171.293 420.104 171.098C420.292 170.899 420.437 170.674 420.54 170.422C420.647 170.169 420.698 169.903 420.695 169.623C420.695 169.25 420.606 168.905 420.429 168.589C420.255 168.273 420.015 168.019 419.709 167.827C419.408 167.636 419.061 167.54 418.671 167.54ZM425.389 177.117C425.066 177.117 424.789 177.004 424.558 176.776C424.327 176.549 424.214 176.272 424.217 175.945C424.214 175.626 424.327 175.352 424.558 175.125C424.789 174.898 425.066 174.784 425.389 174.784C425.702 174.784 425.973 174.898 426.204 175.125C426.438 175.352 426.557 175.626 426.561 175.945C426.557 176.162 426.501 176.359 426.39 176.537C426.284 176.714 426.142 176.856 425.964 176.963C425.79 177.066 425.599 177.117 425.389 177.117ZM428.552 180.068V168.818H430.448V170.171H430.56C430.659 169.972 430.8 169.761 430.981 169.537C431.162 169.31 431.407 169.116 431.716 168.957C432.025 168.793 432.419 168.712 432.898 168.712C433.53 168.712 434.1 168.873 434.608 169.196C435.12 169.516 435.524 169.99 435.823 170.619C436.125 171.244 436.276 172.011 436.276 172.92C436.276 173.818 436.128 174.582 435.833 175.21C435.539 175.839 435.137 176.318 434.63 176.648C434.122 176.979 433.546 177.144 432.904 177.144C432.435 177.144 432.046 177.066 431.737 176.909C431.428 176.753 431.18 176.565 430.991 176.345C430.807 176.121 430.663 175.91 430.56 175.711H430.48V180.068H428.552ZM430.443 172.909C430.443 173.438 430.517 173.902 430.667 174.299C430.819 174.697 431.038 175.008 431.322 175.232C431.609 175.452 431.957 175.562 432.366 175.562C432.792 175.562 433.149 175.448 433.436 175.221C433.724 174.99 433.941 174.676 434.086 174.278C434.235 173.877 434.31 173.42 434.31 172.909C434.31 172.401 434.237 171.95 434.092 171.556C433.946 171.162 433.729 170.853 433.442 170.629C433.154 170.406 432.795 170.294 432.366 170.294C431.954 170.294 431.604 170.402 431.316 170.619C431.029 170.835 430.81 171.139 430.661 171.529C430.516 171.92 430.443 172.38 430.443 172.909ZM440.281 177.165C439.763 177.165 439.296 177.073 438.88 176.888C438.468 176.7 438.142 176.423 437.9 176.057C437.662 175.691 437.543 175.24 437.543 174.704C437.543 174.243 437.629 173.861 437.799 173.559C437.969 173.257 438.202 173.016 438.497 172.835C438.792 172.653 439.124 172.517 439.493 172.424C439.866 172.328 440.251 172.259 440.649 172.217C441.128 172.167 441.517 172.123 441.815 172.083C442.114 172.041 442.33 171.977 442.465 171.892C442.604 171.803 442.673 171.666 442.673 171.482V171.45C442.673 171.048 442.554 170.738 442.316 170.517C442.078 170.297 441.735 170.187 441.288 170.187C440.816 170.187 440.441 170.29 440.164 170.496C439.891 170.702 439.706 170.945 439.61 171.226L437.81 170.97C437.952 170.473 438.186 170.058 438.513 169.724C438.839 169.386 439.239 169.134 439.711 168.967C440.184 168.797 440.706 168.712 441.277 168.712C441.671 168.712 442.064 168.758 442.455 168.85C442.845 168.942 443.202 169.095 443.525 169.308C443.848 169.518 444.108 169.804 444.303 170.166C444.502 170.528 444.601 170.981 444.601 171.524V177H442.747V175.876H442.684C442.566 176.103 442.401 176.316 442.188 176.515C441.979 176.711 441.714 176.869 441.394 176.989C441.078 177.107 440.707 177.165 440.281 177.165ZM440.782 175.748C441.169 175.748 441.505 175.672 441.789 175.519C442.073 175.363 442.291 175.157 442.444 174.901C442.6 174.646 442.678 174.367 442.678 174.065V173.101C442.618 173.151 442.515 173.197 442.369 173.239C442.227 173.282 442.067 173.319 441.89 173.351C441.712 173.383 441.537 173.412 441.363 173.436C441.189 173.461 441.038 173.483 440.91 173.5C440.622 173.539 440.365 173.603 440.137 173.692C439.91 173.781 439.731 173.905 439.599 174.065C439.468 174.221 439.402 174.424 439.402 174.672C439.402 175.027 439.532 175.295 439.791 175.477C440.05 175.658 440.381 175.748 440.782 175.748ZM447.446 180.068C447.183 180.068 446.94 180.047 446.716 180.004C446.496 179.965 446.32 179.919 446.189 179.866L446.636 178.364C446.917 178.445 447.167 178.484 447.387 178.481C447.607 178.477 447.801 178.408 447.968 178.273C448.138 178.142 448.282 177.922 448.399 177.613L448.564 177.17L445.597 168.818H447.643L449.528 174.997H449.614L451.505 168.818H453.555L450.279 177.991C450.127 178.424 449.924 178.795 449.672 179.104C449.42 179.417 449.111 179.654 448.745 179.818C448.383 179.985 447.95 180.068 447.446 180.068ZM454.89 177V168.818H456.733V170.208H456.829C456.999 169.74 457.281 169.374 457.676 169.111C458.07 168.845 458.54 168.712 459.087 168.712C459.641 168.712 460.108 168.847 460.488 169.116C460.872 169.383 461.141 169.747 461.298 170.208H461.383C461.564 169.754 461.869 169.392 462.299 169.122C462.732 168.848 463.246 168.712 463.839 168.712C464.591 168.712 465.206 168.95 465.682 169.425C466.157 169.901 466.395 170.596 466.395 171.508V177H464.462V171.806C464.462 171.299 464.327 170.928 464.057 170.693C463.787 170.455 463.457 170.336 463.066 170.336C462.601 170.336 462.237 170.482 461.974 170.773C461.715 171.061 461.585 171.435 461.585 171.897V177H459.694V171.727C459.694 171.304 459.567 170.967 459.311 170.714C459.059 170.462 458.728 170.336 458.32 170.336C458.043 170.336 457.791 170.407 457.564 170.549C457.336 170.688 457.155 170.885 457.02 171.141C456.885 171.393 456.818 171.687 456.818 172.025V177H454.89ZM471.974 177.16C471.153 177.16 470.445 176.989 469.848 176.648C469.255 176.304 468.799 175.817 468.479 175.189C468.16 174.557 468 173.813 468 172.957C468 172.115 468.16 171.377 468.479 170.741C468.803 170.102 469.254 169.605 469.832 169.25C470.411 168.891 471.091 168.712 471.873 168.712C472.377 168.712 472.853 168.793 473.3 168.957C473.751 169.116 474.149 169.365 474.493 169.702C474.841 170.04 475.115 170.469 475.314 170.991C475.512 171.51 475.612 172.128 475.612 172.845V173.436H468.906V172.137H473.764C473.76 171.767 473.68 171.439 473.524 171.151C473.368 170.86 473.149 170.631 472.869 170.464C472.592 170.297 472.269 170.214 471.899 170.214C471.505 170.214 471.159 170.31 470.86 170.501C470.562 170.69 470.33 170.938 470.163 171.247C469.999 171.553 469.916 171.888 469.912 172.254V173.388C469.912 173.864 469.999 174.273 470.173 174.614C470.347 174.951 470.591 175.21 470.903 175.391C471.216 175.569 471.581 175.658 472 175.658C472.281 175.658 472.535 175.619 472.762 175.54C472.989 175.459 473.186 175.34 473.353 175.184C473.52 175.027 473.646 174.834 473.732 174.603L475.532 174.805C475.418 175.281 475.202 175.697 474.882 176.052C474.566 176.403 474.161 176.677 473.668 176.872C473.174 177.064 472.609 177.16 471.974 177.16ZM479.171 172.206V177H477.243V168.818H479.086V170.208H479.182C479.37 169.75 479.67 169.386 480.082 169.116C480.498 168.847 481.011 168.712 481.622 168.712C482.186 168.712 482.678 168.832 483.097 169.074C483.52 169.315 483.847 169.665 484.077 170.123C484.312 170.581 484.427 171.137 484.424 171.79V177H482.495V172.089C482.495 171.542 482.353 171.114 482.069 170.805C481.789 170.496 481.4 170.342 480.903 170.342C480.565 170.342 480.265 170.416 480.002 170.565C479.743 170.711 479.539 170.922 479.39 171.199C479.244 171.476 479.171 171.812 479.171 172.206ZM490.469 168.818V170.31H485.766V168.818H490.469ZM486.927 166.858H488.855V174.539C488.855 174.798 488.894 174.997 488.973 175.136C489.054 175.271 489.161 175.363 489.292 175.413C489.424 175.462 489.569 175.487 489.729 175.487C489.85 175.487 489.96 175.478 490.059 175.461C490.162 175.443 490.24 175.427 490.294 175.413L490.619 176.92C490.516 176.956 490.368 176.995 490.176 177.037C489.988 177.08 489.757 177.105 489.484 177.112C489.001 177.126 488.566 177.053 488.179 176.893C487.792 176.73 487.485 176.478 487.257 176.137C487.034 175.796 486.924 175.37 486.927 174.859V166.858Z" fill="black"/>
<rect x="331.5" y="152.5" width="242" height="39" rx="19.5" stroke="#312ECB"/>
<rect x="331.5" y="202.5" width="242" height="39" rx="19.5" fill="#F5F5F5"/>
<path d="M426.596 216.091V227H424.619V218.014H424.555L422.004 219.644V217.833L424.715 216.091H426.596ZM433.398 227.208C432.521 227.208 431.768 226.986 431.139 226.542C430.514 226.094 430.033 225.45 429.696 224.608C429.362 223.763 429.195 222.746 429.195 221.556C429.199 220.366 429.367 219.354 429.701 218.52C430.038 217.682 430.52 217.043 431.145 216.602C431.773 216.162 432.524 215.942 433.398 215.942C434.271 215.942 435.022 216.162 435.651 216.602C436.28 217.043 436.761 217.682 437.095 218.52C437.432 219.358 437.601 220.37 437.601 221.556C437.601 222.749 437.432 223.768 437.095 224.614C436.761 225.455 436.28 226.098 435.651 226.542C435.026 226.986 434.275 227.208 433.398 227.208ZM433.398 225.54C434.08 225.54 434.618 225.205 435.012 224.534C435.409 223.859 435.608 222.866 435.608 221.556C435.608 220.69 435.518 219.962 435.337 219.372C435.156 218.783 434.9 218.339 434.57 218.04C434.239 217.739 433.849 217.588 433.398 217.588C432.72 217.588 432.183 217.925 431.789 218.6C431.395 219.271 431.196 220.256 431.193 221.556C431.189 222.426 431.276 223.158 431.454 223.751C431.635 224.344 431.89 224.791 432.221 225.093C432.551 225.391 432.943 225.54 433.398 225.54ZM440.155 227.117C439.832 227.117 439.555 227.004 439.324 226.776C439.093 226.549 438.979 226.272 438.983 225.945C438.979 225.626 439.093 225.352 439.324 225.125C439.555 224.898 439.832 224.784 440.155 224.784C440.467 224.784 440.739 224.898 440.97 225.125C441.204 225.352 441.323 225.626 441.327 225.945C441.323 226.162 441.266 226.359 441.156 226.537C441.05 226.714 440.908 226.856 440.73 226.963C440.556 227.066 440.364 227.117 440.155 227.117ZM443.403 227V216.091H445.331V220.171H445.411C445.51 219.972 445.651 219.761 445.832 219.537C446.013 219.31 446.258 219.116 446.567 218.957C446.876 218.793 447.27 218.712 447.749 218.712C448.381 218.712 448.951 218.873 449.459 219.196C449.97 219.516 450.375 219.99 450.674 220.619C450.975 221.244 451.126 222.011 451.126 222.92C451.126 223.818 450.979 224.582 450.684 225.21C450.39 225.839 449.988 226.318 449.48 226.648C448.973 226.979 448.397 227.144 447.755 227.144C447.286 227.144 446.897 227.066 446.588 226.909C446.279 226.753 446.03 226.565 445.842 226.345C445.658 226.121 445.514 225.91 445.411 225.711H445.299V227H443.403ZM445.294 222.909C445.294 223.438 445.368 223.902 445.517 224.299C445.67 224.697 445.888 225.008 446.173 225.232C446.46 225.452 446.808 225.562 447.217 225.562C447.643 225.562 448 225.448 448.287 225.221C448.575 224.99 448.792 224.676 448.937 224.278C449.086 223.877 449.161 223.42 449.161 222.909C449.161 222.401 449.088 221.95 448.942 221.556C448.797 221.162 448.58 220.853 448.293 220.629C448.005 220.406 447.646 220.294 447.217 220.294C446.805 220.294 446.455 220.402 446.167 220.619C445.88 220.835 445.661 221.139 445.512 221.529C445.366 221.92 445.294 222.38 445.294 222.909ZM456.335 227.16C455.536 227.16 454.843 226.984 454.257 226.632C453.671 226.281 453.217 225.789 452.894 225.157C452.574 224.525 452.414 223.786 452.414 222.941C452.414 222.096 452.574 221.355 452.894 220.72C453.217 220.084 453.671 219.591 454.257 219.239C454.843 218.887 455.536 218.712 456.335 218.712C457.134 218.712 457.826 218.887 458.412 219.239C458.998 219.591 459.451 220.084 459.77 220.72C460.093 221.355 460.255 222.096 460.255 222.941C460.255 223.786 460.093 224.525 459.77 225.157C459.451 225.789 458.998 226.281 458.412 226.632C457.826 226.984 457.134 227.16 456.335 227.16ZM456.345 225.615C456.778 225.615 457.141 225.496 457.432 225.258C457.723 225.017 457.94 224.694 458.082 224.289C458.227 223.884 458.3 223.433 458.3 222.936C458.3 222.435 458.227 221.982 458.082 221.577C457.94 221.169 457.723 220.844 457.432 220.603C457.141 220.361 456.778 220.24 456.345 220.24C455.901 220.24 455.532 220.361 455.237 220.603C454.946 220.844 454.728 221.169 454.582 221.577C454.44 221.982 454.369 222.435 454.369 222.936C454.369 223.433 454.44 223.884 454.582 224.289C454.728 224.694 454.946 225.017 455.237 225.258C455.532 225.496 455.901 225.615 456.345 225.615ZM461.892 227V218.818H463.735V220.208H463.831C464.001 219.74 464.283 219.374 464.678 219.111C465.072 218.845 465.542 218.712 466.089 218.712C466.643 218.712 467.11 218.847 467.49 219.116C467.874 219.383 468.143 219.747 468.3 220.208H468.385C468.566 219.754 468.871 219.392 469.301 219.122C469.734 218.848 470.247 218.712 470.841 218.712C471.593 218.712 472.208 218.95 472.684 219.425C473.159 219.901 473.397 220.596 473.397 221.508V227H471.464V221.806C471.464 221.299 471.329 220.928 471.059 220.693C470.789 220.455 470.459 220.336 470.068 220.336C469.603 220.336 469.239 220.482 468.976 220.773C468.717 221.061 468.587 221.435 468.587 221.897V227H466.696V221.727C466.696 221.304 466.568 220.967 466.313 220.714C466.061 220.462 465.73 220.336 465.322 220.336C465.045 220.336 464.793 220.407 464.566 220.549C464.338 220.688 464.157 220.885 464.022 221.141C463.887 221.393 463.82 221.687 463.82 222.025V227H461.892ZM475.439 227V216.091H477.367V220.171H477.447C477.546 219.972 477.687 219.761 477.868 219.537C478.049 219.31 478.294 219.116 478.603 218.957C478.912 218.793 479.306 218.712 479.785 218.712C480.417 218.712 480.987 218.873 481.495 219.196C482.007 219.516 482.411 219.99 482.71 220.619C483.012 221.244 483.163 222.011 483.163 222.92C483.163 223.818 483.015 224.582 482.72 225.21C482.426 225.839 482.024 226.318 481.517 226.648C481.009 226.979 480.433 227.144 479.791 227.144C479.322 227.144 478.933 227.066 478.624 226.909C478.315 226.753 478.067 226.565 477.878 226.345C477.694 226.121 477.55 225.91 477.447 225.711H477.335V227H475.439ZM477.33 222.909C477.33 223.438 477.404 223.902 477.553 224.299C477.706 224.697 477.925 225.008 478.209 225.232C478.496 225.452 478.844 225.562 479.253 225.562C479.679 225.562 480.036 225.448 480.323 225.221C480.611 224.99 480.828 224.676 480.973 224.278C481.122 223.877 481.197 223.42 481.197 222.909C481.197 222.401 481.124 221.95 480.979 221.556C480.833 221.162 480.616 220.853 480.329 220.629C480.041 220.406 479.682 220.294 479.253 220.294C478.841 220.294 478.491 220.402 478.203 220.619C477.916 220.835 477.697 221.139 477.548 221.529C477.403 221.92 477.33 222.38 477.33 222.909Z" fill="black"/>
<rect x="331.5" y="202.5" width="242" height="39" rx="19.5" stroke="#312ECB"/>
<rect x="331.5" y="252.5" width="242" height="39" rx="19.5" fill="#F5F5F5"/>
<path d="M434.85 266.091V277H432.874V268.014H432.81L430.258 269.644V267.833L432.97 266.091H434.85ZM442.057 266.091V277H440.081V268.014H440.017L437.465 269.644V267.833L440.177 266.091H442.057ZM445.435 277.117C445.112 277.117 444.835 277.004 444.604 276.776C444.374 276.549 444.26 276.272 444.264 275.945C444.26 275.626 444.374 275.352 444.604 275.125C444.835 274.898 445.112 274.784 445.435 274.784C445.748 274.784 446.02 274.898 446.25 275.125C446.485 275.352 446.604 275.626 446.607 275.945C446.604 276.162 446.547 276.359 446.437 276.537C446.33 276.714 446.188 276.856 446.011 276.963C445.837 277.066 445.645 277.117 445.435 277.117ZM450.526 272.206V277H448.598V266.091H450.484V270.208H450.58C450.771 269.747 451.068 269.383 451.469 269.116C451.874 268.847 452.389 268.712 453.014 268.712C453.582 268.712 454.078 268.831 454.5 269.069C454.923 269.306 455.249 269.654 455.48 270.113C455.715 270.571 455.832 271.13 455.832 271.79V277H453.904V272.089C453.904 271.538 453.762 271.11 453.477 270.805C453.197 270.496 452.803 270.342 452.295 270.342C451.954 270.342 451.649 270.416 451.379 270.565C451.112 270.711 450.903 270.922 450.75 271.199C450.601 271.476 450.526 271.812 450.526 272.206ZM457.797 277V268.818H459.726V277H457.797ZM458.767 267.657C458.461 267.657 458.199 267.556 457.979 267.353C457.758 267.147 457.648 266.901 457.648 266.613C457.648 266.322 457.758 266.075 457.979 265.873C458.199 265.667 458.461 265.564 458.767 265.564C459.076 265.564 459.339 265.667 459.555 265.873C459.775 266.075 459.885 266.322 459.885 266.613C459.885 266.901 459.775 267.147 459.555 267.353C459.339 267.556 459.076 267.657 458.767 267.657ZM463.637 272.206V277H461.709V268.818H463.552V270.208H463.647C463.836 269.75 464.136 269.386 464.548 269.116C464.963 268.847 465.476 268.712 466.087 268.712C466.652 268.712 467.144 268.832 467.563 269.074C467.985 269.315 468.312 269.665 468.543 270.123C468.777 270.581 468.892 271.137 468.889 271.79V277H466.961V272.089C466.961 271.542 466.819 271.114 466.535 270.805C466.254 270.496 465.865 270.342 465.368 270.342C465.031 270.342 464.731 270.416 464.468 270.565C464.209 270.711 464.004 270.922 463.855 271.199C463.71 271.476 463.637 271.812 463.637 272.206ZM474.935 268.818V270.31H470.231V268.818H474.935ZM471.392 266.858H473.321V274.539C473.321 274.798 473.36 274.997 473.438 275.136C473.52 275.271 473.626 275.363 473.758 275.413C473.889 275.462 474.035 275.487 474.194 275.487C474.315 275.487 474.425 275.478 474.525 275.461C474.628 275.443 474.706 275.427 474.759 275.413L475.084 276.92C474.981 276.956 474.834 276.995 474.642 277.037C474.454 277.08 474.223 277.105 473.949 277.112C473.466 277.126 473.031 277.053 472.644 276.893C472.257 276.73 471.95 276.478 471.723 276.137C471.499 275.796 471.389 275.37 471.392 274.859V266.858Z" fill="black"/>
<rect x="331.5" y="252.5" width="242" height="39" rx="19.5" stroke="#312ECB"/>
<rect x="331.5" y="302.5" width="242" height="39" rx="19.5" fill="#F5F5F5"/>
<path d="M427.892 316.091V327H425.916V318.014H425.852L423.3 319.644V317.833L426.012 316.091H427.892ZM430.662 327V325.572L434.449 321.86C434.811 321.494 435.113 321.169 435.355 320.885C435.596 320.601 435.777 320.326 435.898 320.059C436.019 319.793 436.079 319.509 436.079 319.207C436.079 318.863 436.001 318.568 435.845 318.323C435.688 318.074 435.474 317.882 435.2 317.748C434.927 317.613 434.616 317.545 434.268 317.545C433.909 317.545 433.595 317.62 433.325 317.769C433.055 317.914 432.846 318.122 432.697 318.392C432.551 318.662 432.478 318.983 432.478 319.356H430.598C430.598 318.664 430.756 318.062 431.072 317.55C431.388 317.039 431.823 316.643 432.377 316.363C432.935 316.082 433.574 315.942 434.295 315.942C435.026 315.942 435.669 316.078 436.223 316.352C436.777 316.625 437.207 317 437.512 317.476C437.821 317.952 437.975 318.495 437.975 319.106C437.975 319.514 437.897 319.915 437.741 320.31C437.585 320.704 437.31 321.141 436.915 321.62C436.525 322.099 435.976 322.68 435.269 323.362L433.389 325.274V325.349H438.141V327H430.662ZM441.187 327.117C440.864 327.117 440.587 327.004 440.356 326.776C440.126 326.549 440.012 326.272 440.016 325.945C440.012 325.626 440.126 325.352 440.356 325.125C440.587 324.898 440.864 324.784 441.187 324.784C441.5 324.784 441.772 324.898 442.002 325.125C442.237 325.352 442.356 325.626 442.359 325.945C442.356 326.162 442.299 326.359 442.189 326.537C442.082 326.714 441.94 326.856 441.763 326.963C441.589 327.066 441.397 327.117 441.187 327.117ZM444.35 327V318.818H446.193V320.208H446.289C446.46 319.74 446.742 319.374 447.136 319.111C447.53 318.845 448.001 318.712 448.548 318.712C449.102 318.712 449.569 318.847 449.949 319.116C450.332 319.383 450.602 319.747 450.758 320.208H450.843C451.025 319.754 451.33 319.392 451.76 319.122C452.193 318.848 452.706 318.712 453.299 318.712C454.052 318.712 454.666 318.95 455.142 319.425C455.618 319.901 455.856 320.596 455.856 321.508V327H453.922V321.806C453.922 321.299 453.787 320.928 453.517 320.693C453.248 320.455 452.917 320.336 452.527 320.336C452.061 320.336 451.697 320.482 451.435 320.773C451.175 321.061 451.046 321.435 451.046 321.897V327H449.155V321.727C449.155 321.304 449.027 320.967 448.771 320.714C448.519 320.462 448.189 320.336 447.781 320.336C447.504 320.336 447.251 320.407 447.024 320.549C446.797 320.688 446.616 320.885 446.481 321.141C446.346 321.393 446.278 321.687 446.278 322.025V327H444.35ZM460.166 327.165C459.648 327.165 459.181 327.073 458.766 326.888C458.354 326.7 458.027 326.423 457.785 326.057C457.547 325.691 457.429 325.24 457.429 324.704C457.429 324.243 457.514 323.861 457.684 323.559C457.855 323.257 458.087 323.016 458.382 322.835C458.677 322.653 459.009 322.517 459.378 322.424C459.751 322.328 460.136 322.259 460.534 322.217C461.013 322.167 461.402 322.123 461.701 322.083C461.999 322.041 462.215 321.977 462.35 321.892C462.489 321.803 462.558 321.666 462.558 321.482V321.45C462.558 321.048 462.439 320.738 462.201 320.517C461.963 320.297 461.621 320.187 461.173 320.187C460.701 320.187 460.326 320.29 460.049 320.496C459.776 320.702 459.591 320.945 459.495 321.226L457.695 320.97C457.837 320.473 458.071 320.058 458.398 319.724C458.725 319.386 459.124 319.134 459.597 318.967C460.069 318.797 460.591 318.712 461.163 318.712C461.557 318.712 461.949 318.758 462.34 318.85C462.73 318.942 463.087 319.095 463.41 319.308C463.734 319.518 463.993 319.804 464.188 320.166C464.387 320.528 464.486 320.981 464.486 321.524V327H462.633V325.876H462.569C462.452 326.103 462.286 326.316 462.073 326.515C461.864 326.711 461.599 326.869 461.28 326.989C460.964 327.107 460.593 327.165 460.166 327.165ZM460.667 325.748C461.054 325.748 461.39 325.672 461.674 325.519C461.958 325.363 462.176 325.157 462.329 324.901C462.485 324.646 462.563 324.367 462.563 324.065V323.101C462.503 323.151 462.4 323.197 462.255 323.239C462.112 323.282 461.953 323.319 461.775 323.351C461.598 323.383 461.422 323.412 461.248 323.436C461.074 323.461 460.923 323.483 460.795 323.5C460.507 323.539 460.25 323.603 460.023 323.692C459.795 323.781 459.616 323.905 459.485 324.065C459.353 324.221 459.288 324.424 459.288 324.672C459.288 325.027 459.417 325.295 459.676 325.477C459.936 325.658 460.266 325.748 460.667 325.748ZM466.319 327V325.775L470.538 320.485V320.416H466.457V318.818H472.897V320.134L468.881 325.333V325.402H473.036V327H466.319ZM478.236 327.16C477.416 327.16 476.707 326.989 476.111 326.648C475.518 326.304 475.061 325.817 474.742 325.189C474.422 324.557 474.262 323.813 474.262 322.957C474.262 322.115 474.422 321.377 474.742 320.741C475.065 320.102 475.516 319.605 476.095 319.25C476.673 318.891 477.354 318.712 478.135 318.712C478.639 318.712 479.115 318.793 479.562 318.957C480.013 319.116 480.411 319.365 480.756 319.702C481.104 320.04 481.377 320.469 481.576 320.991C481.775 321.51 481.874 322.128 481.874 322.845V323.436H475.168V322.137H480.026C480.022 321.767 479.942 321.439 479.786 321.151C479.63 320.86 479.411 320.631 479.131 320.464C478.854 320.297 478.531 320.214 478.161 320.214C477.767 320.214 477.421 320.31 477.123 320.501C476.824 320.69 476.592 320.938 476.425 321.247C476.262 321.553 476.178 321.888 476.175 322.254V323.388C476.175 323.864 476.262 324.273 476.436 324.614C476.61 324.951 476.853 325.21 477.165 325.391C477.478 325.569 477.844 325.658 478.263 325.658C478.543 325.658 478.797 325.619 479.024 325.54C479.252 325.459 479.449 325.34 479.616 325.184C479.782 325.027 479.909 324.834 479.994 324.603L481.794 324.805C481.681 325.281 481.464 325.697 481.144 326.052C480.828 326.403 480.423 326.677 479.93 326.872C479.436 327.064 478.872 327.16 478.236 327.16Z" fill="black"/>
<rect x="331.5" y="302.5" width="242" height="39" rx="19.5" stroke="#312ECB"/>
<rect x="60" y="383" width="514" height="49" rx="5" fill="white"/>
<path d="M251.608 405.29H249.483C249.422 404.941 249.311 404.633 249.148 404.364C248.985 404.091 248.782 403.86 248.54 403.67C248.297 403.481 248.021 403.339 247.71 403.244C247.403 403.146 247.072 403.097 246.716 403.097C246.083 403.097 245.523 403.256 245.034 403.574C244.545 403.888 244.163 404.35 243.886 404.96C243.61 405.566 243.472 406.307 243.472 407.182C243.472 408.072 243.61 408.822 243.886 409.432C244.167 410.038 244.549 410.496 245.034 410.807C245.523 411.114 246.081 411.267 246.71 411.267C247.059 411.267 247.384 411.222 247.688 411.131C247.994 411.036 248.269 410.898 248.511 410.716C248.758 410.534 248.964 410.311 249.131 410.045C249.301 409.78 249.419 409.477 249.483 409.136L251.608 409.148C251.528 409.701 251.356 410.22 251.091 410.705C250.83 411.189 250.487 411.617 250.062 411.989C249.638 412.356 249.142 412.644 248.574 412.852C248.006 413.057 247.375 413.159 246.682 413.159C245.659 413.159 244.746 412.922 243.943 412.449C243.14 411.975 242.508 411.292 242.045 410.398C241.583 409.504 241.352 408.432 241.352 407.182C241.352 405.928 241.585 404.856 242.051 403.966C242.517 403.072 243.152 402.388 243.955 401.915C244.758 401.441 245.667 401.205 246.682 401.205C247.33 401.205 247.932 401.295 248.489 401.477C249.045 401.659 249.542 401.926 249.977 402.278C250.413 402.627 250.771 403.055 251.051 403.562C251.335 404.066 251.521 404.642 251.608 405.29ZM253.447 413V404.273H255.442V405.727H255.533C255.692 405.223 255.964 404.835 256.351 404.562C256.741 404.286 257.186 404.148 257.686 404.148C257.8 404.148 257.927 404.153 258.067 404.165C258.211 404.172 258.33 404.186 258.425 404.205V406.097C258.338 406.066 258.199 406.04 258.01 406.017C257.824 405.991 257.644 405.977 257.47 405.977C257.095 405.977 256.758 406.059 256.459 406.222C256.163 406.381 255.93 406.602 255.76 406.886C255.589 407.17 255.504 407.498 255.504 407.869V413H253.447ZM263.295 413.17C262.42 413.17 261.665 412.989 261.028 412.625C260.396 412.258 259.909 411.739 259.568 411.068C259.227 410.394 259.057 409.6 259.057 408.688C259.057 407.79 259.227 407.002 259.568 406.324C259.913 405.642 260.394 405.112 261.011 404.733C261.629 404.35 262.354 404.159 263.188 404.159C263.725 404.159 264.233 404.246 264.71 404.42C265.191 404.591 265.616 404.856 265.983 405.216C266.354 405.576 266.646 406.034 266.858 406.591C267.07 407.144 267.176 407.803 267.176 408.568V409.199H260.023V407.812H265.205C265.201 407.419 265.116 407.068 264.949 406.761C264.782 406.451 264.549 406.206 264.25 406.028C263.955 405.85 263.61 405.761 263.216 405.761C262.795 405.761 262.426 405.864 262.108 406.068C261.79 406.269 261.542 406.534 261.364 406.864C261.189 407.189 261.1 407.547 261.097 407.938V409.148C261.097 409.655 261.189 410.091 261.375 410.455C261.561 410.814 261.82 411.091 262.153 411.284C262.487 411.473 262.877 411.568 263.324 411.568C263.623 411.568 263.894 411.527 264.136 411.443C264.379 411.356 264.589 411.229 264.767 411.062C264.945 410.896 265.08 410.689 265.17 410.443L267.091 410.659C266.97 411.167 266.739 411.61 266.398 411.989C266.061 412.364 265.629 412.655 265.102 412.864C264.576 413.068 263.973 413.17 263.295 413.17ZM271.428 413.176C270.875 413.176 270.376 413.078 269.933 412.881C269.494 412.68 269.145 412.384 268.888 411.994C268.634 411.604 268.507 411.123 268.507 410.551C268.507 410.059 268.598 409.652 268.78 409.33C268.962 409.008 269.21 408.75 269.524 408.557C269.839 408.364 270.193 408.218 270.587 408.119C270.984 408.017 271.395 407.943 271.82 407.898C272.331 407.845 272.746 407.797 273.064 407.756C273.382 407.71 273.613 407.642 273.757 407.551C273.905 407.456 273.979 407.311 273.979 407.114V407.08C273.979 406.652 273.852 406.32 273.598 406.085C273.344 405.85 272.979 405.733 272.501 405.733C271.998 405.733 271.598 405.843 271.303 406.062C271.011 406.282 270.814 406.542 270.712 406.841L268.791 406.568C268.943 406.038 269.193 405.595 269.541 405.239C269.89 404.879 270.316 404.61 270.82 404.432C271.323 404.25 271.88 404.159 272.49 404.159C272.911 404.159 273.329 404.208 273.746 404.307C274.162 404.405 274.543 404.568 274.888 404.795C275.232 405.019 275.509 405.324 275.717 405.71C275.929 406.097 276.036 406.58 276.036 407.159V413H274.058V411.801H273.99C273.865 412.044 273.689 412.271 273.462 412.483C273.238 412.691 272.956 412.86 272.615 412.989C272.278 413.114 271.882 413.176 271.428 413.176ZM271.962 411.665C272.375 411.665 272.732 411.583 273.036 411.42C273.339 411.254 273.571 411.034 273.734 410.761C273.901 410.489 273.984 410.191 273.984 409.869V408.841C273.92 408.894 273.81 408.943 273.655 408.989C273.503 409.034 273.333 409.074 273.143 409.108C272.954 409.142 272.767 409.172 272.581 409.199C272.395 409.225 272.234 409.248 272.098 409.267C271.791 409.309 271.517 409.377 271.274 409.472C271.032 409.566 270.84 409.699 270.7 409.869C270.56 410.036 270.49 410.252 270.49 410.517C270.49 410.896 270.628 411.182 270.905 411.375C271.181 411.568 271.534 411.665 271.962 411.665ZM282.462 404.273V405.864H277.445V404.273H282.462ZM278.683 402.182H280.74V410.375C280.74 410.652 280.782 410.864 280.865 411.011C280.952 411.155 281.066 411.254 281.206 411.307C281.346 411.36 281.501 411.386 281.672 411.386C281.801 411.386 281.918 411.377 282.024 411.358C282.134 411.339 282.217 411.322 282.274 411.307L282.621 412.915C282.511 412.953 282.354 412.994 282.149 413.04C281.948 413.085 281.702 413.112 281.411 413.119C280.895 413.134 280.431 413.057 280.018 412.886C279.606 412.712 279.278 412.443 279.036 412.08C278.797 411.716 278.679 411.261 278.683 410.716V402.182ZM287.952 413.17C287.077 413.17 286.321 412.989 285.685 412.625C285.052 412.258 284.565 411.739 284.224 411.068C283.884 410.394 283.713 409.6 283.713 408.688C283.713 407.79 283.884 407.002 284.224 406.324C284.569 405.642 285.05 405.112 285.668 404.733C286.285 404.35 287.01 404.159 287.844 404.159C288.382 404.159 288.889 404.246 289.366 404.42C289.848 404.591 290.272 404.856 290.639 405.216C291.01 405.576 291.302 406.034 291.514 406.591C291.726 407.144 291.832 407.803 291.832 408.568V409.199H284.679V407.812H289.861C289.857 407.419 289.772 407.068 289.605 406.761C289.438 406.451 289.205 406.206 288.906 406.028C288.611 405.85 288.266 405.761 287.872 405.761C287.452 405.761 287.082 405.864 286.764 406.068C286.446 406.269 286.198 406.534 286.02 406.864C285.846 407.189 285.757 407.547 285.753 407.938V409.148C285.753 409.655 285.846 410.091 286.031 410.455C286.217 410.814 286.476 411.091 286.81 411.284C287.143 411.473 287.533 411.568 287.98 411.568C288.279 411.568 288.55 411.527 288.793 411.443C289.035 411.356 289.245 411.229 289.423 411.062C289.601 410.896 289.736 410.689 289.827 410.443L291.747 410.659C291.626 411.167 291.395 411.61 291.054 411.989C290.717 412.364 290.285 412.655 289.759 412.864C289.232 413.068 288.63 413.17 287.952 413.17ZM300.053 413.176C299.5 413.176 299.001 413.078 298.558 412.881C298.119 412.68 297.77 412.384 297.513 411.994C297.259 411.604 297.132 411.123 297.132 410.551C297.132 410.059 297.223 409.652 297.405 409.33C297.587 409.008 297.835 408.75 298.149 408.557C298.464 408.364 298.818 408.218 299.212 408.119C299.609 408.017 300.02 407.943 300.445 407.898C300.956 407.845 301.371 407.797 301.689 407.756C302.007 407.71 302.238 407.642 302.382 407.551C302.53 407.456 302.604 407.311 302.604 407.114V407.08C302.604 406.652 302.477 406.32 302.223 406.085C301.969 405.85 301.604 405.733 301.126 405.733C300.623 405.733 300.223 405.843 299.928 406.062C299.636 406.282 299.439 406.542 299.337 406.841L297.416 406.568C297.568 406.038 297.818 405.595 298.166 405.239C298.515 404.879 298.941 404.61 299.445 404.432C299.948 404.25 300.505 404.159 301.115 404.159C301.536 404.159 301.954 404.208 302.371 404.307C302.787 404.405 303.168 404.568 303.513 404.795C303.857 405.019 304.134 405.324 304.342 405.71C304.554 406.097 304.661 406.58 304.661 407.159V413H302.683V411.801H302.615C302.49 412.044 302.314 412.271 302.087 412.483C301.863 412.691 301.581 412.86 301.24 412.989C300.903 413.114 300.507 413.176 300.053 413.176ZM300.587 411.665C301 411.665 301.357 411.583 301.661 411.42C301.964 411.254 302.196 411.034 302.359 410.761C302.526 410.489 302.609 410.191 302.609 409.869V408.841C302.545 408.894 302.435 408.943 302.28 408.989C302.128 409.034 301.958 409.074 301.768 409.108C301.579 409.142 301.392 409.172 301.206 409.199C301.02 409.225 300.859 409.248 300.723 409.267C300.416 409.309 300.142 409.377 299.899 409.472C299.657 409.566 299.465 409.699 299.325 409.869C299.185 410.036 299.115 410.252 299.115 410.517C299.115 410.896 299.253 411.182 299.53 411.375C299.806 411.568 300.159 411.665 300.587 411.665ZM312.754 407.886V413H310.697V404.273H312.663V405.756H312.766C312.966 405.267 313.286 404.879 313.726 404.591C314.169 404.303 314.716 404.159 315.368 404.159C315.97 404.159 316.495 404.288 316.942 404.545C317.393 404.803 317.741 405.176 317.987 405.665C318.237 406.153 318.36 406.746 318.357 407.443V413H316.3V407.761C316.3 407.178 316.148 406.722 315.845 406.392C315.546 406.062 315.131 405.898 314.601 405.898C314.241 405.898 313.921 405.977 313.641 406.136C313.364 406.292 313.146 406.517 312.987 406.812C312.832 407.108 312.754 407.466 312.754 407.886ZM324.311 413.17C323.436 413.17 322.68 412.989 322.044 412.625C321.411 412.258 320.925 411.739 320.584 411.068C320.243 410.394 320.072 409.6 320.072 408.688C320.072 407.79 320.243 407.002 320.584 406.324C320.929 405.642 321.41 405.112 322.027 404.733C322.644 404.35 323.37 404.159 324.203 404.159C324.741 404.159 325.249 404.246 325.726 404.42C326.207 404.591 326.631 404.856 326.999 405.216C327.37 405.576 327.661 406.034 327.874 406.591C328.086 407.144 328.192 407.803 328.192 408.568V409.199H321.038V407.812H326.22C326.216 407.419 326.131 407.068 325.964 406.761C325.798 406.451 325.565 406.206 325.266 406.028C324.97 405.85 324.625 405.761 324.232 405.761C323.811 405.761 323.442 405.864 323.124 406.068C322.805 406.269 322.557 406.534 322.379 406.864C322.205 407.189 322.116 407.547 322.112 407.938V409.148C322.112 409.655 322.205 410.091 322.391 410.455C322.576 410.814 322.836 411.091 323.169 411.284C323.502 411.473 323.893 411.568 324.339 411.568C324.639 411.568 324.91 411.527 325.152 411.443C325.394 411.356 325.605 411.229 325.783 411.062C325.961 410.896 326.095 410.689 326.186 410.443L328.107 410.659C327.985 411.167 327.754 411.61 327.413 411.989C327.076 412.364 326.644 412.655 326.118 412.864C325.591 413.068 324.989 413.17 324.311 413.17ZM331.686 413L329.22 404.273H331.317L332.851 410.409H332.93L334.499 404.273H336.572L338.141 410.375H338.226L339.737 404.273H341.839L339.368 413H337.226L335.589 407.102H335.47L333.834 413H331.686ZM349.045 413L346.58 404.273H348.676L350.21 410.409H350.29L351.858 404.273H353.932L355.5 410.375H355.585L357.097 404.273H359.199L356.727 413H354.585L352.949 407.102H352.83L351.193 413H349.045ZM363.146 413.176C362.593 413.176 362.095 413.078 361.652 412.881C361.213 412.68 360.864 412.384 360.607 411.994C360.353 411.604 360.226 411.123 360.226 410.551C360.226 410.059 360.317 409.652 360.499 409.33C360.68 409.008 360.929 408.75 361.243 408.557C361.557 408.364 361.911 408.218 362.305 408.119C362.703 408.017 363.114 407.943 363.538 407.898C364.05 407.845 364.464 407.797 364.783 407.756C365.101 407.71 365.332 407.642 365.476 407.551C365.624 407.456 365.697 407.311 365.697 407.114V407.08C365.697 406.652 365.571 406.32 365.317 406.085C365.063 405.85 364.697 405.733 364.22 405.733C363.716 405.733 363.317 405.843 363.021 406.062C362.73 406.282 362.533 406.542 362.43 406.841L360.51 406.568C360.661 406.038 360.911 405.595 361.26 405.239C361.608 404.879 362.035 404.61 362.538 404.432C363.042 404.25 363.599 404.159 364.209 404.159C364.629 404.159 365.048 404.208 365.464 404.307C365.881 404.405 366.262 404.568 366.607 404.795C366.951 405.019 367.228 405.324 367.436 405.71C367.648 406.097 367.754 406.58 367.754 407.159V413H365.777V411.801H365.709C365.584 412.044 365.408 412.271 365.18 412.483C364.957 412.691 364.675 412.86 364.334 412.989C363.997 413.114 363.601 413.176 363.146 413.176ZM363.68 411.665C364.093 411.665 364.451 411.583 364.754 411.42C365.057 411.254 365.29 411.034 365.453 410.761C365.62 410.489 365.703 410.191 365.703 409.869V408.841C365.639 408.894 365.529 408.943 365.374 408.989C365.222 409.034 365.052 409.074 364.862 409.108C364.673 409.142 364.485 409.172 364.3 409.199C364.114 409.225 363.953 409.248 363.817 409.267C363.51 409.309 363.235 409.377 362.993 409.472C362.75 409.566 362.559 409.699 362.419 409.869C362.279 410.036 362.209 410.252 362.209 410.517C362.209 410.896 362.347 411.182 362.624 411.375C362.9 411.568 363.252 411.665 363.68 411.665ZM371.879 401.364V413H369.822V401.364H371.879ZM376.051 401.364V413H373.994V401.364H376.051ZM382.03 413.17C381.155 413.17 380.399 412.989 379.763 412.625C379.13 412.258 378.643 411.739 378.303 411.068C377.962 410.394 377.791 409.6 377.791 408.688C377.791 407.79 377.962 407.002 378.303 406.324C378.647 405.642 379.128 405.112 379.746 404.733C380.363 404.35 381.089 404.159 381.922 404.159C382.46 404.159 382.967 404.246 383.445 404.42C383.926 404.591 384.35 404.856 384.717 405.216C385.089 405.576 385.38 406.034 385.592 406.591C385.804 407.144 385.911 407.803 385.911 408.568V409.199H378.757V407.812H383.939C383.935 407.419 383.85 407.068 383.683 406.761C383.517 406.451 383.284 406.206 382.984 406.028C382.689 405.85 382.344 405.761 381.95 405.761C381.53 405.761 381.161 405.864 380.842 406.068C380.524 406.269 380.276 406.534 380.098 406.864C379.924 407.189 379.835 407.547 379.831 407.938V409.148C379.831 409.655 379.924 410.091 380.109 410.455C380.295 410.814 380.554 411.091 380.888 411.284C381.221 411.473 381.611 411.568 382.058 411.568C382.357 411.568 382.628 411.527 382.871 411.443C383.113 411.356 383.323 411.229 383.501 411.062C383.679 410.896 383.814 410.689 383.905 410.443L385.825 410.659C385.704 411.167 385.473 411.61 385.132 411.989C384.795 412.364 384.363 412.655 383.837 412.864C383.31 413.068 382.708 413.17 382.03 413.17ZM392.009 404.273V405.864H386.991V404.273H392.009ZM388.23 402.182H390.287V410.375C390.287 410.652 390.329 410.864 390.412 411.011C390.499 411.155 390.613 411.254 390.753 411.307C390.893 411.36 391.048 411.386 391.219 411.386C391.348 411.386 391.465 411.377 391.571 411.358C391.681 411.339 391.764 411.322 391.821 411.307L392.168 412.915C392.058 412.953 391.901 412.994 391.696 413.04C391.495 413.085 391.249 413.112 390.957 413.119C390.442 413.134 389.978 413.057 389.565 412.886C389.152 412.712 388.825 412.443 388.582 412.08C388.344 411.716 388.226 411.261 388.23 410.716V402.182Z" fill="#312ECB"/>
<rect x="60" y="383" width="514" height="49" rx="5" stroke="#312ECB"/>
<g filter="url(#filter1_b_1279_874)">
<rect x="40" y="32" width="554" height="418" rx="10" fill="white" fill-opacity="0.5"/>
</g>
<defs>
<filter id="filter0_d_1279_874" x="0" y="0" width="634" height="498" filterUnits="userSpaceOnUse" color-interpolation-filters="sRGB">
<feFlood flood-opacity="0" result="BackgroundImageFix"/>
<feColorMatrix in="SourceAlpha" type="matrix" values="0 0 0 0 0 0 0 0 0 0 0 0 0 0 0 0 0 0 127 0" result="hardAlpha"/>
<feOffset dy="8"/>
<feGaussianBlur stdDeviation="20"/>
<feComposite in2="hardAlpha" operator="out"/>
<feColorMatrix type="matrix" values="0 0 0 0 0.454902 0 0 0 0 0.478431 0 0 0 0 0.501961 0 0 0 0.06 0"/>
<feBlend mode="normal" in2="BackgroundImageFix" result="effect1_dropShadow_1279_874"/>
<feBlend mode="normal" in="SourceGraphic" in2="effect1_dropShadow_1279_874" result="shape"/>
</filter>
<filter id="filter1_b_1279_874" x="25" y="17" width="584" height="448" filterUnits="userSpaceOnUse" color-interpolation-filters="sRGB">
<feFlood flood-opacity="0" result="BackgroundImageFix"/>
<feGaussianBlur in="BackgroundImageFix" stdDeviation="7.5"/>
<feComposite in2="SourceAlpha" operator="in" result="effect1_backgroundBlur_1279_874"/>
<feBlend mode="normal" in="SourceGraphic" in2="effect1_backgroundBlur_1279_874" result="shape"/>
</filter>
</defs>
</svg>
