<svg width="23" height="17" viewBox="0 0 23 17" fill="none" xmlns="http://www.w3.org/2000/svg">
<path d="M18.8182 4.25L14.6364 8.5H17.7727C17.7727 10.1908 17.1119 11.8123 15.9355 13.0078C14.7591 14.2034 13.1636 14.875 11.5 14.875C10.4545 14.875 9.44045 14.6094 8.57273 14.1312L7.04636 15.6825C8.33227 16.5112 9.85864 17 11.5 17C13.7182 17 15.8455 16.1045 17.414 14.5104C18.9825 12.9163 19.8636 10.7543 19.8636 8.5H23L18.8182 4.25ZM5.22727 8.5C5.22727 6.80925 5.88815 5.18774 7.06451 3.99219C8.24088 2.79665 9.83637 2.125 11.5 2.125C12.5455 2.125 13.5595 2.39062 14.4273 2.86875L15.9536 1.3175C14.6677 0.48875 13.1414 0 11.5 0C9.28183 0 7.1545 0.895533 5.58602 2.48959C4.01753 4.08365 3.13636 6.24566 3.13636 8.5H0L4.18182 12.75L8.36364 8.5" fill="white"/>
</svg>
