<svg width="20" height="14" viewBox="0 0 20 14" fill="none" xmlns="http://www.w3.org/2000/svg">
<path d="M10 4.2C9.27668 4.2 8.58299 4.495 8.07153 5.0201C7.56006 5.5452 7.27273 6.25739 7.27273 7C7.27273 7.74261 7.56006 8.4548 8.07153 8.9799C8.58299 9.505 9.27668 9.8 10 9.8C10.7233 9.8 11.417 9.505 11.9285 8.9799C12.4399 8.4548 12.7273 7.74261 12.7273 7C12.7273 6.25739 12.4399 5.5452 11.9285 5.0201C11.417 4.495 10.7233 4.2 10 4.2ZM10 11.6667C8.79447 11.6667 7.63832 11.175 6.78588 10.2998C5.93344 9.42466 5.45455 8.23768 5.45455 7C5.45455 5.76232 5.93344 4.57534 6.78588 3.70017C7.63832 2.825 8.79447 2.33333 10 2.33333C11.2055 2.33333 12.3617 2.825 13.2141 3.70017C14.0666 4.57534 14.5455 5.76232 14.5455 7C14.5455 8.23768 14.0666 9.42466 13.2141 10.2998C12.3617 11.175 11.2055 11.6667 10 11.6667ZM10 0C5.45455 0 1.57273 2.90267 0 7C1.57273 11.0973 5.45455 14 10 14C14.5455 14 18.4273 11.0973 20 7C18.4273 2.90267 14.5455 0 10 0Z" fill="white"/>
</svg>
