<svg width="120" height="120" viewBox="0 0 120 120" fill="none" xmlns="http://www.w3.org/2000/svg">
<rect width="120" height="120" rx="60" fill="#FA7D95" fill-opacity="0.05"/>
<path d="M97.5 60.5C97.5 81.2107 80.7107 98 60 98C39.2893 98 22.5 81.2107 22.5 60.5C22.5 39.7893 39.2893 23 60 23C80.7107 23 97.5 39.7893 97.5 60.5Z" stroke="#FF0032" stroke-width="2" stroke-linecap="round" stroke-linejoin="round"/>
<path d="M61.876 35L61.5713 69.2422H57.4463L57.1416 35H61.876ZM59.5088 83.3516C58.5869 83.3516 57.79 83.0234 57.1182 82.3672C56.4619 81.6953 56.1338 80.8984 56.1338 79.9766C56.1338 79.0391 56.4619 78.2422 57.1182 77.5859C57.79 76.9297 58.5869 76.6016 59.5088 76.6016C60.4307 76.6016 61.2197 76.9297 61.876 77.5859C62.5479 78.2422 62.8838 79.0391 62.8838 79.9766C62.8838 80.5859 62.7275 81.1484 62.415 81.6641C62.1182 82.1797 61.7119 82.5938 61.1963 82.9062C60.6963 83.2031 60.1338 83.3516 59.5088 83.3516Z" fill="#FF0032"/>
</svg>
