<svg width="19" height="16" viewBox="0 0 19 16" fill="none" xmlns="http://www.w3.org/2000/svg">
<path fill-rule="evenodd" clip-rule="evenodd" d="M0 2.28571C0 1.67951 0.250223 1.09812 0.695621 0.66947C1.14102 0.240816 1.74511 0 2.375 0H18.4062C18.5637 0 18.7147 0.0602039 18.8261 0.167368C18.9374 0.274531 19 0.419876 19 0.571429C19 0.722981 18.9374 0.868326 18.8261 0.97549C18.7147 1.08265 18.5637 1.14286 18.4062 1.14286H17.8125V3.42857C18.1274 3.42857 18.4295 3.54898 18.6522 3.76331C18.8749 3.97763 19 4.26832 19 4.57143V14.2857C19 14.7404 18.8123 15.1764 18.4783 15.4979C18.1442 15.8194 17.6912 16 17.2188 16H2.96875C2.18139 16 1.42628 15.699 0.869527 15.1632C0.312778 14.6273 0 13.9006 0 13.1429L0 2.28571ZM1.1875 4.26514V13.1429C1.1875 13.5975 1.37517 14.0336 1.70922 14.355C2.04327 14.6765 2.49633 14.8571 2.96875 14.8571H17.2188C17.3762 14.8571 17.5272 14.7969 17.6386 14.6898C17.7499 14.5826 17.8125 14.4373 17.8125 14.2857V4.57143H2.375C1.95802 4.57195 1.54832 4.46628 1.1875 4.26514ZM1.1875 2.28571C1.1875 2.58882 1.31261 2.87951 1.53531 3.09384C1.75801 3.30816 2.06006 3.42857 2.375 3.42857H16.625V1.14286H2.375C2.06006 1.14286 1.75801 1.26327 1.53531 1.47759C1.31261 1.69192 1.1875 1.98261 1.1875 2.28571Z" fill="#705DE8"/>
</svg>
