<svg width="16" height="16" viewBox="0 0 16 16" fill="none" xmlns="http://www.w3.org/2000/svg">
<circle cx="8" cy="8" r="8" fill="#705DE8"/>
<path d="M5.38982 11.7444C4.81282 11.4113 4.34457 11.0198 3.98506 10.57C3.62958 10.1131 3.39993 9.61715 3.29609 9.08199L5.54438 8.28351C5.60422 8.63487 5.69282 8.92829 5.81018 9.16377C5.93158 9.39226 6.09431 9.56542 6.29837 9.68323C6.83315 9.99199 7.27605 9.84237 7.62707 9.23438L9.23694 6.446L6.72489 4.99566L7.80217 3.12976L12.7735 5.99996L10.1711 10.5075C9.59008 11.5138 8.89599 12.1148 8.08881 12.3103C7.28164 12.5059 6.38197 12.3172 5.38982 11.7444Z" fill="white"/>
</svg>
