<?xml version="1.0" standalone="no"?>
<!DOCTYPE svg PUBLIC "-//W3C//DTD SVG 20010904//EN"
 "http://www.w3.org/TR/2001/REC-SVG-20010904/DTD/svg10.dtd">
<svg version="1.0" xmlns="http://www.w3.org/2000/svg"
 width="275.000000pt" height="183.000000pt" viewBox="0 0 275.000000 183.000000"
 preserveAspectRatio="xMidYMid meet">

<g transform="translate(0.000000,183.000000) scale(0.100000,-0.100000)"
fill="#000000" stroke="none">
<path d="M2233 1513 c-9 -3 -14 -33 -15 -91 l-2 -87 -6 90 -6 90 -2 -98 c-2
-75 -5 -97 -14 -91 -7 4 5 -12 27 -35 21 -22 40 -41 40 -41 1 0 2 21 4 47 1
25 2 49 3 52 4 35 -4 171 -9 170 -5 0 -14 -3 -20 -6z m14 -25 c-3 -8 -6 -5 -6
6 -1 11 2 17 5 13 3 -3 4 -12 1 -19z"/>
<path d="M2340 1473 c0 -5 5 -15 10 -23 8 -12 10 -11 10 8 0 12 -4 22 -10 22
-5 0 -10 -3 -10 -7z"/>
<path d="M2372 1426 c-6 -25 -10 -32 -11 -18 -2 44 -20 21 -23 -30 -3 -48 -4
-51 -20 -35 -21 21 -28 21 -28 2 0 -8 -4 -15 -10 -15 -5 0 -10 -16 -10 -36 0
-19 4 -33 9 -30 5 4 8 -2 6 -11 -1 -10 -8 -17 -15 -15 -17 4 31 -54 57 -69 12
-6 20 -15 18 -20 -3 -4 0 -13 7 -21 7 -7 23 -31 35 -53 l22 -40 170 -3 171 -2
0 59 c0 56 -2 60 -27 69 -16 6 -21 11 -13 11 11 1 15 14 16 54 l1 53 -41 -6
c-23 -3 -54 -3 -71 1 -29 6 -29 7 7 8 34 1 37 4 34 24 -3 12 -5 24 -6 27 -1 3
-2 13 -1 22 1 10 -7 27 -17 39 l-20 21 -13 -36 -13 -36 -12 28 -12 27 -3 -30
c-1 -25 -2 -26 -6 -7 -3 15 -10 22 -18 18 -8 -3 -16 3 -18 12 -2 9 -3 4 -1
-11 3 -22 -1 -30 -16 -34 -17 -5 -20 -14 -20 -69 0 -60 2 -64 23 -64 39 0 50
-14 42 -51 l-8 -34 -10 25 c-8 20 -11 22 -14 8 -5 -20 -24 -25 -20 -6 1 7 -5
13 -13 14 -32 3 -35 5 -20 14 12 8 10 10 -8 10 -13 0 -36 -9 -51 -20 l-28 -19
4 52 c6 69 11 82 12 30 1 -23 6 -45 11 -48 6 -3 10 1 10 9 0 9 8 16 19 16 11
0 22 4 25 9 10 16 -5 40 -20 34 -12 -4 -14 0 -9 19 5 18 2 27 -10 32 -13 5
-15 1 -11 -17 3 -12 3 -16 0 -9 -3 6 -11 9 -17 5 -7 -4 -8 0 -4 11 4 10 7 20
7 22 0 2 14 4 30 4 27 0 30 -2 24 -25 -3 -14 -2 -25 4 -25 10 0 22 46 22 85 0
18 -4 22 -19 18 -11 -3 -22 -15 -24 -27 -2 -11 -5 0 -6 27 0 26 -5 47 -11 47
-5 0 -10 7 -10 16 0 8 5 12 10 9 6 -3 10 -2 10 3 0 5 -8 12 -19 15 -15 4 -21
-3 -29 -37z m168 -100 c0 -2 -7 -7 -16 -10 -8 -3 -12 -2 -9 4 6 10 25 14 25 6z
m97 -108 c-3 -8 -6 -5 -6 6 -1 11 2 17 5 13 3 -3 4 -12 1 -19z m-332 -8 c10
-11 16 -20 13 -20 -3 0 -13 9 -23 20 -10 11 -16 20 -13 20 3 0 13 -9 23 -20z
m280 -62 c6 -4 0 -8 -12 -8 -16 0 -21 4 -16 15 3 9 8 12 12 8 3 -4 11 -11 16
-15z m75 -7 c0 -5 -9 -7 -20 -4 -11 3 -20 7 -20 9 0 2 9 4 20 4 11 0 20 -4 20
-9z"/>
<path d="M1972 1440 c-13 -33 -1 -46 51 -54 23 -3 52 -9 65 -12 22 -6 23 -4
21 40 l-3 46 -53 0 c-36 0 -53 -4 -53 -12 0 -9 -3 -8 -10 2 -7 12 -11 10 -18
-10z m128 -20 c0 -5 -5 -10 -11 -10 -5 0 -7 5 -4 10 3 6 8 10 11 10 2 0 4 -4
4 -10z"/>
<path d="M2600 1439 c0 -5 5 -7 10 -4 6 3 10 8 10 11 0 2 -4 4 -10 4 -5 0 -10
-5 -10 -11z"/>
<path d="M1340 1384 c-119 -19 -157 -32 -240 -84 -51 -32 -85 -47 -98 -43 -11
2 -29 0 -41 -6 -14 -8 -21 -8 -21 -1 0 5 -5 10 -11 10 -5 0 -7 -4 -4 -10 3 -5
2 -10 -4 -10 -5 0 -13 5 -16 10 -9 15 -188 13 -204 -2 -11 -11 -13 -10 -8 5 4
11 1 17 -9 17 -9 0 -12 -5 -8 -12 5 -7 3 -8 -6 -3 -8 5 -131 10 -274 11 -144
2 -291 6 -328 9 l-68 5 0 -125 0 -125 183 -2 c100 -1 189 -2 197 -3 24 -1 41
-15 34 -28 -4 -7 -3 -8 2 -4 5 5 9 14 9 20 0 7 11 14 25 17 14 3 47 16 73 28
27 12 96 31 155 43 105 21 113 21 422 8 230 -9 306 -15 280 -22 -102 -27 -118
-48 -18 -24 35 8 90 20 124 27 60 12 61 13 100 75 21 35 42 61 46 59 5 -3 7
-1 6 5 -2 6 13 33 32 60 34 47 93 93 135 104 41 11 -393 2 -465 -9z m-57 -91
c-7 -2 -21 -2 -30 0 -10 3 -4 5 12 5 17 0 24 -2 18 -5z m-703 -53 c0 -5 -2
-10 -4 -10 -3 0 -8 5 -11 10 -3 6 -1 10 4 10 6 0 11 -4 11 -10z m213 3 c-7 -2
-19 -2 -25 0 -7 3 -2 5 12 5 14 0 19 -2 13 -5z m90 0 c-7 -2 -21 -2 -30 0 -10
3 -4 5 12 5 17 0 24 -2 18 -5z m127 3 c0 -6 -147 -116 -156 -116 -5 0 -1 5 9
11 9 6 14 15 11 21 -4 6 -3 8 3 5 5 -3 34 14 64 38 49 40 69 52 69 41z m-973
-12 c-3 -3 -12 -4 -19 -1 -8 3 -5 6 6 6 11 1 17 -2 13 -5z"/>
<path d="M1826 1368 c-24 -7 -56 -27 -80 -52 -50 -51 -123 -179 -128 -225 -3
-32 -1 -34 39 -46 23 -7 44 -10 47 -8 3 3 18 1 34 -5 36 -12 61 0 44 21 -15
18 -6 27 29 27 16 0 38 5 51 10 13 6 99 21 191 34 93 14 171 27 174 30 8 8
-26 102 -50 138 -27 40 -56 55 -144 73 -78 17 -151 18 -207 3z"/>
<path d="M2671 1323 c-1 -45 3 -48 47 -37 24 7 30 24 8 24 -7 0 -16 10 -20 23
-5 17 -8 19 -15 8 -7 -11 -10 -10 -14 5 -2 10 -5 0 -6 -23z"/>
<path d="M547 1049 c7 -7 15 -10 18 -7 3 3 -2 9 -12 12 -14 6 -15 5 -6 -5z"/>
<path d="M2205 1050 c-3 -5 1 -10 10 -10 9 0 13 5 10 10 -3 6 -8 10 -10 10 -2
0 -7 -4 -10 -10z"/>
<path d="M520 1040 c0 -5 5 -10 11 -10 5 0 7 5 4 10 -3 6 -8 10 -11 10 -2 0
-4 -4 -4 -10z"/>
<path d="M470 1010 c-8 -11 -18 -16 -23 -13 -6 3 -7 1 -3 -5 5 -9 15 -7 34 5
15 9 28 18 30 19 2 1 -3 4 -11 7 -8 3 -20 -3 -27 -13z"/>
<path d="M988 1023 c6 -2 18 -2 25 0 6 3 1 5 -13 5 -14 0 -19 -2 -12 -5z"/>
<path d="M1985 1020 c-18 -7 -18 -8 -3 -15 11 -4 24 -1 33 9 18 18 5 21 -30 6z"/>
<path d="M2220 1020 c-23 -7 -23 -8 -3 -9 12 -1 25 4 28 9 3 6 5 10 3 9 -2 -1
-14 -5 -28 -9z"/>
<path d="M2320 1003 c-21 -20 -39 -54 -59 -113 -31 -94 -23 -89 -120 -68 -43
9 -56 9 -59 0 -7 -22 -22 -2 -23 31 l-2 32 -10 -37 c-11 -41 -23 -49 -30 -20
-4 14 -5 14 -6 -3 -1 -16 -3 -17 -10 -6 -8 12 -14 12 -40 1 -17 -7 -28 -16
-25 -21 3 -5 1 -9 -5 -9 -5 0 -11 5 -13 10 -4 14 -172 -52 -193 -76 -5 -6 -22
-14 -38 -18 -27 -6 -27 -6 -22 36 3 31 2 36 -3 18 -9 -25 -9 -25 -16 7 -8 36
-43 86 -55 78 -5 -2 -17 2 -27 10 -18 15 -18 15 1 8 18 -6 18 -5 6 10 -21 26
-80 38 -126 26 -54 -15 -149 -110 -139 -141 4 -12 2 -18 -4 -14 -11 6 -30 -38
-56 -128 -10 -32 -20 -56 -23 -53 -8 8 -34 -19 -54 -57 -25 -48 -62 -63 -169
-70 -94 -5 -102 -4 -46 9 26 5 27 7 11 19 -21 15 -12 37 13 30 13 -5 14 -4 3
4 -21 15 -1 21 95 27 49 3 93 10 98 15 11 11 -10 90 -25 90 -5 0 -21 10 -34
23 l-25 22 33 62 c17 34 40 64 49 67 10 2 18 10 18 18 0 9 -3 9 -8 2 -13 -19
-50 -23 -64 -6 -9 11 -9 14 -1 9 8 -5 19 7 33 35 12 25 15 35 5 24 -11 -15
-15 -16 -15 -5 -1 8 -12 -7 -26 -33 -13 -27 -29 -48 -35 -48 -6 0 -8 7 -5 16
4 10 2 13 -6 8 -8 -5 -9 -2 -5 9 19 46 15 47 -9 2 -28 -52 -47 -49 -20 4 21
40 31 46 94 55 12 1 25 6 29 9 8 9 48 9 56 1 3 -4 0 -16 -8 -26 -7 -11 -11
-27 -8 -35 8 -21 39 11 69 70 13 26 30 47 36 47 6 0 9 2 7 5 -4 4 -63 -8 -309
-60 -16 -3 -12 0 8 8 18 7 30 16 25 21 -4 5 -1 7 9 3 9 -3 19 0 22 9 3 8 13
14 23 13 16 0 15 -1 -2 -9 -15 -6 -11 -7 17 -7 32 1 34 3 20 14 -9 7 -23 13
-31 13 -24 0 -8 9 29 15 19 3 40 11 45 17 7 8 4 9 -10 3 -11 -4 -33 -9 -48
-12 -15 -2 -53 -13 -84 -24 -31 -10 -64 -19 -74 -19 -9 0 -19 -5 -21 -12 -3
-8 -9 -8 -22 -1 -16 9 -15 12 15 23 l34 12 -80 13 c-146 24 -247 32 -302 22
-33 -6 -50 -13 -46 -20 4 -6 1 -7 -6 -2 -8 4 -25 -2 -42 -14 -19 -14 -37 -20
-49 -16 -15 5 -22 0 -29 -17 -5 -13 -7 -26 -4 -30 2 -5 -1 -8 -6 -8 -6 0 -11
7 -11 17 0 27 -9 9 -14 -27 -8 -70 -18 -110 -27 -110 -5 0 -9 9 -9 21 0 11 -4
17 -10 14 -5 -3 -10 -2 -10 3 0 5 10 12 21 15 15 4 20 11 17 25 -3 11 -1 27 4
36 11 20 -5 22 -21 3 -7 -10 -41 -14 -118 -14 -99 0 -102 0 -38 7 l70 6 -82 2
c-50 1 -83 -2 -83 -8 0 -5 -18 -10 -40 -10 l-39 0 -1 -440 0 -440 1375 0 1375
0 -1 124 c0 108 -3 125 -17 129 -15 4 -15 5 1 6 21 1 23 31 2 31 -8 0 -15 5
-15 10 0 6 -4 10 -10 10 -19 0 -10 -21 13 -30 19 -9 19 -10 2 -7 -11 1 -24 11
-29 23 -11 24 -68 44 -91 32 -8 -5 -13 -13 -10 -19 4 -5 2 -9 -3 -9 -5 0 -14
-10 -21 -22 -6 -13 -9 -15 -7 -6 3 10 1 20 -4 23 -6 4 -10 2 -10 -3 0 -5 -7
-9 -15 -9 -13 0 -13 3 1 19 13 14 20 15 31 7 10 -9 13 -8 13 4 0 18 -17 31
-42 33 -31 3 -32 4 -15 17 15 10 9 12 -37 14 -39 1 -56 -2 -60 -13 -6 -17 -36
-19 -36 -2 0 6 -3 8 -7 5 -3 -4 -14 0 -23 8 -15 14 -19 14 -29 1 -11 -13 -9
-15 8 -11 12 2 26 -4 33 -13 8 -11 26 -17 49 -17 35 1 46 -13 24 -32 -4 -4 -5
-2 -1 5 4 6 3 12 -2 12 -5 0 -14 -10 -20 -22 -11 -22 -11 -21 -6 5 7 33 -19
38 -38 7 -8 -12 -23 -20 -38 -20 l-25 1 25 12 c32 15 37 37 8 37 -34 0 -46 12
-43 42 2 19 -1 25 -11 21 -22 -8 -16 15 7 27 11 7 18 14 15 17 -3 3 -12 1 -19
-5 -8 -7 -17 -10 -20 -7 -4 3 -5 2 -2 -2 3 -3 0 -12 -6 -19 -7 -9 -5 -14 10
-19 30 -9 26 -25 -5 -19 -17 3 -34 -2 -47 -13 -20 -18 -20 -17 -15 5 8 30 0
28 -12 -4 -6 -16 -14 -22 -22 -18 -9 6 -9 9 0 12 7 2 12 8 12 13 0 4 -7 6 -15
3 -8 -4 -16 -1 -16 5 -3 26 -4 30 -11 37 -5 4 -8 2 -8 -4 0 -6 -13 -10 -30
-10 -17 1 -27 5 -23 11 3 6 1 7 -6 3 -6 -4 -9 -16 -6 -25 5 -16 2 -17 -30 -7
-19 6 -35 14 -35 18 0 5 -5 8 -11 8 -6 0 -8 -7 -5 -16 4 -12 2 -15 -9 -11 -8
4 -19 -1 -24 -11 -6 -10 -11 -12 -11 -4 0 6 -3 11 -7 10 -5 -2 -8 2 -8 7 0 6
4 9 9 7 4 -1 19 4 33 13 15 10 29 13 36 7 7 -5 21 -12 31 -16 19 -6 19 -6 3
12 -18 20 -24 43 -6 25 5 -5 21 -8 35 -5 17 3 24 11 24 28 0 13 5 24 11 24 6
0 9 -6 6 -14 -4 -10 0 -12 14 -9 11 3 21 9 24 13 3 5 14 6 25 3 15 -4 20 0 20
16 0 16 -6 21 -24 21 -13 0 -27 -6 -29 -12 -4 -10 -6 -10 -6 0 -1 10 -5 10
-22 0 -17 -11 -22 -10 -30 5 -6 9 -15 15 -20 12 -5 -4 -6 -11 -3 -17 4 -6 1
-9 -5 -7 -7 3 -12 9 -12 14 0 6 -10 16 -22 23 -21 13 -14 12 28 -3 l20 -8 -20
16 c-11 9 -15 17 -7 17 6 0 21 -9 31 -19 13 -13 27 -17 41 -14 17 5 19 8 8 15
-9 7 -8 8 7 5 11 -3 28 -8 38 -12 12 -5 17 -2 17 9 0 10 6 13 16 9 8 -3 13
-12 9 -21 -4 -12 -3 -13 10 -2 11 9 22 10 42 2 48 -18 85 -24 78 -12 -3 5 -14
10 -23 10 -9 1 -30 7 -47 15 l-30 14 28 -4 c15 -3 39 -7 55 -10 24 -5 25 -4
10 8 -10 8 -15 17 -11 20 3 4 -9 8 -28 8 l-34 1 39 8 c25 5 49 18 65 36 13 16
32 28 40 26 9 -2 12 0 6 5 -5 4 -11 28 -12 52 0 24 -6 47 -13 51 -8 5 -7 9 4
13 12 5 16 0 16 -18 0 -14 5 -25 11 -25 6 0 8 7 5 16 -3 9 -6 59 -6 113 0 85
-3 100 -21 120 -20 22 -29 22 -74 6 -11 -4 -5 2 13 14 18 12 30 26 27 31 -9
14 -11 13 -45 -17z m-1680 -3 c0 -5 -10 -10 -22 -10 -19 0 -20 2 -8 10 19 13
30 13 30 0z m1733 -106 c11 -4 12 -15 6 -47 -8 -45 -5 -61 6 -28 6 20 25 30
25 13 0 -13 -36 -43 -43 -36 -3 4 -4 26 0 50 4 30 2 44 -6 44 -6 0 -12 -12
-12 -27 -2 -24 -2 -25 -6 -5 -3 14 -9 20 -16 15 -7 -4 -6 1 2 10 14 18 21 20
44 11z m-1460 -11 c-7 -2 -19 -2 -25 0 -7 3 -2 5 12 5 14 0 19 -2 13 -5z
m-826 -19 c-3 -3 -12 -4 -19 -1 -8 3 -5 6 6 6 11 1 17 -2 13 -5z m193 -1 c-8
-3 -21 -10 -27 -16 -9 -7 -13 -5 -13 7 0 11 8 16 28 15 15 0 21 -3 12 -6z m56
-11 c1 -7 0 -8 -3 -2 -2 5 -9 8 -14 4 -5 -3 -9 0 -9 6 0 15 23 7 26 -8z m795
-9 c-12 -20 -14 -14 -5 12 4 9 9 14 11 11 3 -2 0 -13 -6 -23z m-1081 7 c0 -5
-2 -10 -4 -10 -3 0 -8 5 -11 10 -3 6 -1 10 4 10 6 0 11 -4 11 -10z m1360 -10
c-5 -9 -17 -23 -27 -31 -16 -13 -17 -12 -4 4 7 9 9 17 3 17 -11 0 -34 -25 -28
-31 2 -2 -7 -12 -20 -22 -34 -26 -30 -4 7 33 19 18 38 29 46 25 10 -3 13 -1
10 8 -3 8 1 14 8 14 10 0 11 -5 5 -17z m924 -20 c10 -13 9 -13 -6 -1 -10 7
-18 21 -17 30 0 13 1 14 6 1 3 -8 11 -22 17 -30z m-1784 5 c-5 -6 -6 -15 -2
-20 4 -4 -2 -6 -13 -3 -11 2 -21 12 -23 22 -3 11 0 16 7 12 6 -4 11 -3 11 3 0
6 7 8 15 5 11 -5 13 -10 5 -19z m297 9 c-3 -3 -12 -4 -19 -1 -8 3 -5 6 6 6 11
1 17 -2 13 -5z m40 -40 c13 -20 11 -22 -39 -41 -29 -12 -56 -18 -61 -14 -4 4
0 24 8 45 14 33 19 37 47 34 18 -2 37 -12 45 -24z m213 -11 c-1 -19 -68 -113
-72 -101 -3 8 -22 13 -49 14 -91 2 -143 6 -124 11 66 14 154 46 150 53 -3 5
14 13 37 18 57 13 58 13 58 5z m21 -30 c-11 -21 -29 -51 -40 -68 -25 -36 -26
-46 -6 -39 8 4 12 10 9 15 -10 17 3 9 22 -13 10 -13 12 -17 4 -11 -10 7 -21 8
-30 3 -8 -5 -17 -7 -20 -5 -3 2 -21 -21 -39 -51 -18 -31 -35 -53 -38 -51 -8 9
132 257 145 257 9 0 7 -11 -7 -37z m1218 11 c-10 -13 -49 -7 -49 7 0 4 13 7
29 6 21 -1 26 -5 20 -13z m-1850 -10 c3 -3 -1 -9 -7 -14 -7 -6 -9 -7 -6 -3 3
4 -10 13 -28 20 l-33 13 35 -6 c19 -4 37 -8 39 -10z m138 -18 c22 -4 28 -17
13 -26 -8 -6 -10 -10 -5 -10 6 0 12 -12 13 -26 2 -24 -1 -26 -26 -21 -15 4
-55 11 -89 18 -35 6 -63 15 -63 21 0 5 4 7 8 4 22 -13 72 -16 72 -4 0 9 3 8
10 -2 5 -8 10 -11 10 -6 0 5 7 3 15 -4 8 -6 19 -9 25 -5 5 3 10 1 10 -4 0 -6
4 -11 9 -11 4 0 3 16 -3 35 -11 36 -18 39 -83 38 -13 0 -23 4 -23 10 0 8 17 7
107 -7z m817 -12 c3 -9 6 -34 5 -57 l-1 -42 -13 40 c-16 48 -18 75 -6 75 5 0
12 -7 15 -16z m900 -5 c0 -8 -3 -31 -7 -51 -7 -45 12 -52 33 -14 9 18 10 32 2
55 -14 40 -7 40 13 0 15 -28 15 -33 0 -55 -20 -31 -41 -40 -60 -24 -10 8 -12
18 -6 29 14 27 22 71 13 71 -4 0 -13 -12 -20 -27 -11 -28 -11 -28 -9 -3 2 27
16 42 32 36 6 -2 10 -9 9 -17z m-825 -31 c-4 -24 -8 -49 -9 -57 0 -8 -3 -12
-6 -8 -8 8 6 107 16 107 4 0 4 -19 -1 -42z m698 28 c3 -3 -3 -9 -13 -12 -10
-4 -40 -15 -65 -25 -104 -40 -358 -107 -424 -112 -69 -6 -67 -4 15 22 l35 10
-35 -4 c-27 -4 -15 5 55 39 84 41 116 55 140 62 96 25 141 32 208 29 43 -2 81
-6 84 -9z m-1757 -16 c0 -5 -5 -10 -11 -10 -5 0 -7 5 -4 10 3 6 8 10 11 10 2
0 4 -4 4 -10z m1897 -32 c-3 -7 -5 -2 -5 12 0 14 2 19 5 13 2 -7 2 -19 0 -25z
m-965 -12 c7 4 8 3 4 -5 -4 -6 0 -14 8 -17 9 -3 16 -10 16 -15 0 -5 -18 1 -40
13 -40 23 -58 48 -20 28 11 -6 26 -8 32 -4z m198 -21 c-5 -6 -28 -21 -52 -34
l-43 -23 45 45 c28 28 48 40 52 34 4 -6 3 -16 -2 -22z m-1243 -59 c-1 -19 -6
-31 -10 -27 -7 7 0 61 8 61 2 0 3 -15 2 -34z m1042 -27 c-13 -4 -39 -7 -56 -8
-25 -1 -33 3 -33 17 0 16 5 17 56 8 45 -9 52 -12 33 -17z m71 11 c0 -5 -5 -10
-11 -10 -5 0 -7 5 -4 10 3 6 8 10 11 10 2 0 4 -4 4 -10z m677 4 c-3 -3 -12 -4
-19 -1 -8 3 -5 6 6 6 11 1 17 -2 13 -5z m110 0 c-3 -3 -12 -4 -19 -1 -8 3 -5
6 6 6 11 1 17 -2 13 -5z m-627 -22 c0 -4 -10 -7 -22 -7 -13 -1 -36 -4 -53 -9
-42 -11 -21 7 23 20 37 11 52 9 52 -4z m-673 -48 c-9 -9 -28 6 -21 18 4 6 10
6 17 -1 6 -6 8 -13 4 -17z m606 -47 c-3 -5 2 -5 13 1 10 6 24 25 31 44 13 32
13 32 7 3 -7 -40 -48 -101 -76 -115 -21 -10 -21 -10 -5 3 9 8 17 19 17 25 0 6
5 12 10 14 6 2 -5 22 -25 45 -45 53 -45 67 0 23 19 -18 32 -38 28 -43z m462
63 c-3 -5 -11 -10 -16 -10 -6 0 -7 5 -4 10 3 6 11 10 16 10 6 0 7 -4 4 -10z
m-644 -28 c-29 -42 -48 -55 -56 -42 -4 6 -4 14 -1 17 3 4 6 0 6 -8 0 -7 14 3
31 24 36 44 49 49 20 9z m58 -39 c-27 -80 -26 -85 19 -81 30 2 37 7 34 23 -2
19 -2 19 9 1 14 -23 -2 -36 -49 -36 -39 0 -83 23 -102 54 -12 19 -11 19 13 -3
23 -21 47 -22 47 -1 0 12 39 100 44 100 3 0 -4 -25 -15 -57z m626 28 c3 -5 2
-12 -3 -15 -5 -3 -9 1 -9 9 0 17 3 19 12 6z m-1098 -17 c-3 -3 -12 -4 -19 -1
-8 3 -5 6 6 6 11 1 17 -2 13 -5z m1148 -64 c-3 -6 1 -13 10 -17 10 -3 20 0 25
6 5 9 9 7 12 -7 4 -15 1 -18 -21 -15 -26 3 -26 3 3 -11 l29 -13 -27 -5 c-15
-3 -26 -1 -27 6 -1 6 -5 -2 -9 -19 -6 -25 -7 -22 -7 20 -1 48 3 65 13 65 3 0
2 -5 -1 -10z m-145 -54 c0 -5 -6 -3 -13 3 -8 6 -17 8 -20 4 -4 -3 -7 0 -7 7 0
7 -3 10 -7 7 -8 -9 -34 13 -28 24 6 9 74 -31 75 -45z m80 18 c0 -8 -5 -12 -10
-9 -6 4 -8 11 -5 16 9 14 15 11 15 -7z m465 7 c-9 -8 -36 -10 -30 -2 2 4 11 8
20 8 8 0 13 -3 10 -6z m-657 -25 c-2 -21 -5 -23 -18 -13 -25 19 -26 20 -7 14
11 -4 17 -1 17 8 0 8 2 15 5 15 3 0 4 -11 3 -24z m36 3 c-3 -5 -10 -7 -15 -3
-5 3 -7 10 -3 15 3 5 10 7 15 3 5 -3 7 -10 3 -15z m397 -6 c-8 -15 -10 -15
-11 -2 0 17 10 32 18 25 2 -3 -1 -13 -7 -23z m-293 -7 c-10 -7 -15 -16 -11
-19 3 -4 2 -7 -4 -7 -19 0 -22 13 -5 26 9 7 22 13 27 13 6 0 2 -6 -7 -13z m92
10 c0 -11 -19 -15 -25 -6 -3 5 1 10 9 10 9 0 16 -2 16 -4z m406 -26 c0 -16 -2
-28 -4 -25 -9 8 -11 55 -3 55 4 0 7 -13 7 -30z m60 11 c-9 -8 -18 -12 -22 -9
-9 10 3 25 21 25 14 0 14 -2 1 -16z m-746 -1 c0 -5 -2 -10 -4 -10 -3 0 -8 5
-11 10 -3 6 -1 10 4 10 6 0 11 -4 11 -10z m132 -12 c-7 -7 -12 -8 -12 -2 0 14
12 26 19 19 2 -3 -1 -11 -7 -17z m738 -17 c0 -11 -3 -11 -15 5 -15 19 -15 19
-9 -1 4 -15 3 -16 -4 -6 -5 7 -15 10 -21 7 -12 -8 -14 -4 -5 18 5 12 10 13 30
4 13 -6 24 -18 24 -27z m-789 12 c13 -16 12 -17 -3 -4 -17 13 -22 21 -14 21 2
0 10 -8 17 -17z m163 7 c-9 -8 -53 -7 -48 2 3 4 16 7 29 6 13 -1 22 -5 19 -8z
m109 -30 c-7 -8 -22 24 -16 34 4 5 10 1 13 -10 4 -10 6 -21 3 -24z m87 21 c0
-14 -29 -21 -36 -9 -4 6 -3 8 4 4 6 -3 13 -2 17 4 8 12 15 13 15 1z m225 -21
c3 -6 -1 -7 -9 -4 -18 7 -21 14 -7 14 6 0 13 -4 16 -10z m-275 -10 c0 -5 -5
-10 -11 -10 -5 0 -7 5 -4 10 3 6 8 10 11 10 2 0 4 -4 4 -10z m165 0 c3 -5 1
-10 -4 -10 -6 0 -11 5 -11 10 0 6 2 10 4 10 3 0 8 -4 11 -10z m243 -25 c-3 -3
-9 2 -12 12 -6 14 -5 15 5 6 7 -7 10 -15 7 -18z m-1031 9 c-3 -3 -12 -4 -19
-1 -8 3 -5 6 6 6 11 1 17 -2 13 -5z m643 -4 c0 -5 -5 -10 -11 -10 -5 0 -7 5
-4 10 3 6 8 10 11 10 2 0 4 -4 4 -10z m427 -15 c-15 -16 -19 -13 -11 9 3 9 10
13 15 10 5 -3 3 -11 -4 -19z m73 11 c0 -3 -4 -8 -10 -11 -5 -3 -10 -1 -10 4 0
6 5 11 10 11 6 0 10 -2 10 -4z m-1235 -16 c-4 -6 4 -20 17 -31 l23 -20 -27 17
c-16 9 -28 13 -28 10 0 -4 -5 -4 -12 0 -7 5 -5 11 7 21 22 16 28 17 20 3z
m155 0 c0 -12 -1 -12 -60 -15 -25 -1 -37 0 -27 2 9 3 15 8 13 12 -3 4 13 8 35
9 22 2 39 -2 39 -8z"/>
<path d="M1588 223 c7 -3 16 -2 19 1 4 3 -2 6 -13 5 -11 0 -14 -3 -6 -6z"/>
<path d="M925 1010 l-40 -6 33 -5 c18 -3 35 -2 38 2 2 5 16 4 31 -2 14 -5 28
-8 30 -5 10 9 -56 21 -92 16z"/>
<path d="M1425 1000 c-13 -5 -14 -9 -5 -9 8 0 24 4 35 9 13 5 14 9 5 9 -8 0
-24 -4 -35 -9z"/>
<path d="M1368 983 c6 -2 18 -2 25 0 6 3 1 5 -13 5 -14 0 -19 -2 -12 -5z"/>
<path d="M1985 980 c-28 -7 -28 -8 -5 -9 14 0 32 4 40 9 17 11 8 11 -35 0z"/>
<path d="M88 943 c7 -3 16 -2 19 1 4 3 -2 6 -13 5 -11 0 -14 -3 -6 -6z"/>
<path d="M0 910 c0 -11 43 -12 115 0 47 7 45 7 -32 9 -50 0 -83 -3 -83 -9z"/>
<path d="M208 913 c6 -2 18 -2 25 0 6 3 1 5 -13 5 -14 0 -19 -2 -12 -5z"/>
<path d="M2560 669 c0 -5 5 -7 10 -4 6 3 10 8 10 11 0 2 -4 4 -10 4 -5 0 -10
-5 -10 -11z"/>
<path d="M2535 659 c-4 -6 -5 -12 -2 -15 2 -3 7 2 10 11 7 17 1 20 -8 4z"/>
<path d="M2595 649 c-3 -4 2 -6 10 -5 21 3 28 13 10 13 -9 0 -18 -4 -20 -8z"/>
<path d="M2436 609 c3 -5 10 -7 15 -4 5 4 9 -3 9 -14 0 -22 -26 -23 -41 0 -5
8 -9 9 -9 3 0 -15 21 -30 40 -30 22 1 20 48 -3 52 -9 1 -15 -2 -11 -7z"/>
<path d="M2357 590 c-20 -12 -25 -20 -16 -25 7 -5 17 -1 25 9 7 10 17 15 23
11 6 -3 11 1 11 9 0 20 -8 19 -43 -4z"/>
<path d="M2544 585 c-18 -13 -17 -14 16 -14 19 1 27 3 16 6 -15 4 -16 7 -5 14
8 5 9 9 3 9 -5 0 -19 -7 -30 -15z"/>
<path d="M2637 569 c4 -13 8 -18 11 -10 2 7 -1 18 -6 23 -8 8 -9 4 -5 -13z"/>
<path d="M2728 573 c7 -3 16 -2 19 1 4 3 -2 6 -13 5 -11 0 -14 -3 -6 -6z"/>
<path d="M2728 553 c7 -3 16 -2 19 1 4 3 -2 6 -13 5 -11 0 -14 -3 -6 -6z"/>
<path d="M2228 503 c-10 -2 -18 -11 -18 -20 0 -11 3 -13 13 -5 6 6 16 10 22
10 5 0 11 5 13 11 4 11 -1 12 -30 4z"/>
<path d="M2440 491 c0 -5 5 -13 10 -16 6 -3 10 -2 10 4 0 5 -4 13 -10 16 -5 3
-10 2 -10 -4z"/>
<path d="M2510 473 c0 -5 5 -15 11 -23 9 -13 10 -13 6 2 -3 9 -1 19 6 22 7 2
4 5 -5 5 -10 1 -18 -2 -18 -6z"/>
<path d="M2680 470 c0 -5 -8 -6 -17 -3 -16 6 -16 5 -4 -10 18 -22 26 -21 28 3
1 11 0 20 -3 20 -2 0 -4 -4 -4 -10z"/>
<path d="M2578 463 c7 -3 16 -2 19 1 4 3 -2 6 -13 5 -11 0 -14 -3 -6 -6z"/>
<path d="M2347 446 c4 -13 3 -17 -5 -12 -8 5 -10 1 -5 -10 4 -12 8 -14 11 -5
3 8 8 7 16 -5 10 -13 15 -14 21 -4 5 9 4 11 -3 6 -7 -4 -12 -3 -12 1 0 5 -7
18 -15 29 -15 18 -15 18 -8 0z"/>
<path d="M2616 448 c3 -5 10 -6 15 -3 13 9 11 12 -6 12 -8 0 -12 -4 -9 -9z"/>
<path d="M2116 427 c3 -10 9 -15 12 -12 3 3 0 11 -7 18 -10 9 -11 8 -5 -6z"/>
<path d="M2234 429 c-3 -6 -2 -15 3 -20 5 -5 9 -1 10 11 2 22 -2 25 -13 9z"/>
<path d="M2700 429 c0 -5 5 -7 10 -4 6 3 10 8 10 11 0 2 -4 4 -10 4 -5 0 -10
-5 -10 -11z"/>
<path d="M2514 415 c-4 -8 -10 -13 -14 -10 -5 3 -11 2 -14 -3 -2 -4 5 -8 18
-8 14 0 23 6 23 18 2 22 -6 24 -13 3z"/>
<path d="M2563 423 c4 -3 -1 -12 -11 -20 -15 -13 -15 -13 6 -3 19 9 23 30 5
30 -4 0 -3 -3 0 -7z"/>
<path d="M2186 405 c-3 -8 -1 -15 4 -15 6 0 10 7 10 15 0 8 -2 15 -4 15 -2 0
-6 -7 -10 -15z"/>
<path d="M2606 405 c-11 -8 -15 -15 -9 -15 6 0 16 7 23 15 16 19 11 19 -14 0z"/>
<path d="M2440 402 c0 -5 7 -9 15 -9 8 0 15 4 15 9 0 4 -7 8 -15 8 -8 0 -15
-4 -15 -8z"/>
<path d="M2631 391 c-10 -6 -10 -10 -1 -16 13 -8 24 -1 19 14 -3 6 -10 7 -18
2z"/>
<path d="M2394 374 c18 -17 23 -18 23 -1 0 7 -9 14 -19 14 -16 2 -16 0 -4 -13z"/>
<path d="M2587 367 c-12 -9 -14 -16 -7 -27 9 -13 12 -13 24 2 12 16 14 16 35
1 35 -24 132 -21 108 3 -4 4 -13 1 -22 -6 -12 -10 -15 -10 -15 4 0 9 10 21 23
26 20 8 19 9 -11 9 -22 1 -31 -3 -26 -10 4 -8 0 -8 -15 0 -19 11 -25 8 -22
-12 1 -4 -12 -1 -28 7 -22 12 -32 13 -44 3z m108 -27 c3 -6 -1 -7 -9 -4 -18 7
-21 14 -7 14 6 0 13 -4 16 -10z"/>
</g>
</svg>
