<?xml version="1.0" standalone="no"?>
<!DOCTYPE svg PUBLIC "-//W3C//DTD SVG 20010904//EN"
 "http://www.w3.org/TR/2001/REC-SVG-20010904/DTD/svg10.dtd">
<svg version="1.0" xmlns="http://www.w3.org/2000/svg"
 width="202.000000pt" height="128.000000pt" viewBox="0 0 202.000000 128.000000"
 preserveAspectRatio="xMidYMid meet">

<g transform="translate(0.000000,128.000000) scale(0.100000,-0.100000)"
fill="#000000" stroke="none">
<path d="M0 1140 c0 -133 1 -140 20 -140 18 0 20 8 23 133 1 73 4 20 5 -118 1
-164 -2 -245 -8 -235 -9 13 -10 13 -10 0 -1 -9 -6 -5 -15 10 -13 22 -14 -24
-15 -382 l0 -408 1010 0 1010 0 -2 393 -3 392 -47 3 -48 3 1 69 1 68 49 7 49
7 0 169 0 169 -460 0 -460 0 -1 -37 c0 -36 -6 -43 -122 -134 -108 -86 -123
-95 -134 -80 -7 9 -13 12 -12 6 4 -28 -3 -35 -33 -35 l-33 0 35 31 c19 17 81
74 138 127 57 53 108 99 113 100 5 2 9 8 9 13 0 5 -34 9 -75 9 l-75 0 -29 -40
c-28 -39 -29 -39 -34 -15 -2 14 0 28 4 31 20 12 6 24 -28 24 -37 0 -39 -3 -72
-65 -18 -36 -37 -65 -42 -65 -14 0 -11 12 21 65 35 60 36 65 9 65 -15 0 -26
-14 -45 -56 -14 -31 -27 -54 -30 -52 -2 3 5 26 16 52 24 57 24 56 6 56 -8 0
-20 -17 -26 -37 -7 -21 -17 -42 -22 -48 -5 -5 -2 10 7 34 8 24 15 45 15 47 0
2 -13 4 -30 4 -16 0 -30 -4 -30 -9 0 -5 -3 -17 -7 -27 -4 -11 -2 -15 4 -11 6
4 8 -3 5 -18 -4 -22 -9 -25 -48 -25 l-44 0 0 45 0 45 -255 0 -255 0 0 -140z
m255 -348 c-13 -14 -15 22 -8 244 l8 239 3 -239 c1 -131 0 -241 -3 -244z m567
368 c-13 -14 -38 -45 -56 -70 -27 -40 -31 -42 -34 -23 -3 22 35 87 83 141 l20
24 6 -24 c4 -16 -2 -30 -19 -48z m-492 44 c0 -8 -5 -12 -10 -9 -6 4 -8 11 -5
16 9 14 15 11 15 -7z m1550 -29 l0 -45 -110 0 -110 0 0 29 c0 32 11 36 120 48
30 3 57 7 59 9 2 2 13 4 23 4 15 0 18 -8 18 -45z m3 -182 c3 -73 1 -103 -7
-103 -7 0 -7 -3 1 -8 8 -5 11 -29 10 -63 l-2 -55 -105 1 -105 1 3 29 c2 17 3
71 3 120 l1 90 96 47 c53 25 97 46 98 45 1 -1 4 -48 7 -104z m-528 -92 c2 -17
-1 -31 -6 -31 -10 0 -10 0 -14 48 -2 23 0 31 8 23 5 -5 11 -24 12 -40z m188
26 c38 -18 50 -46 20 -48 -10 -1 -34 -3 -53 -5 -22 -2 -30 -1 -21 5 10 7 11
13 2 30 -11 21 -6 46 7 39 4 -2 24 -12 45 -21z m-1453 -68 c0 -18 -18 -9 -23
12 -4 16 -3 18 9 8 8 -6 14 -15 14 -20z m546 -16 c-10 -10 -19 5 -10 18 6 11
8 11 12 0 2 -7 1 -15 -2 -18z m-38 4 c15 6 15 4 4 -10 -11 -13 -17 -14 -27 -4
-7 7 -10 16 -7 22 3 5 7 4 9 -2 3 -7 12 -9 21 -6z m942 -18 c0 -11 -6 -27 -14
-34 -12 -12 -16 -11 -30 10 -23 35 -20 45 14 45 24 0 30 -4 30 -21z m96 10 c4
-7 -2 -19 -13 -28 -26 -20 -34 -56 -22 -89 8 -21 7 -29 -7 -39 -9 -7 -20 -10
-24 -8 -4 2 -7 -2 -7 -10 0 -8 5 -13 10 -12 23 5 25 -54 5 -116 -16 -48 -33
-74 -75 -116 -30 -29 -56 -51 -58 -49 -8 8 13 63 23 61 18 -4 89 73 95 103 3
16 1 31 -4 32 -5 2 -9 17 -9 33 0 28 -2 29 -22 18 -13 -7 -28 -19 -34 -27 -6
-8 -16 -12 -22 -8 -7 4 -12 1 -12 -9 0 -9 -6 -15 -12 -12 -20 7 -48 -12 -42
-27 4 -10 -2 -12 -18 -9 -31 6 -43 -19 -64 -135 -25 -140 -31 -157 -32 -94 0
32 -8 64 -17 79 -14 21 -22 24 -51 20 -19 -3 -34 -2 -34 4 0 5 5 10 10 10 59
8 88 29 104 77 20 57 20 63 -1 55 -9 -4 -14 -2 -10 3 3 6 -23 5 -66 -3 -40 -7
-148 -18 -240 -25 -157 -11 -170 -11 -178 5 -13 22 -57 22 -80 1 -16 -15 -30
-15 -116 -6 -102 12 -173 28 -173 40 0 17 49 62 69 62 11 0 21 5 21 10 0 6
-27 10 -61 10 -65 0 -75 13 -28 37 13 7 20 13 15 13 -5 0 -6 3 -3 7 4 3 16 -6
27 -20 16 -20 27 -25 56 -22 52 5 54 15 3 15 -32 0 -40 3 -29 10 20 13 80 9
80 -6 0 -6 12 -11 28 -12 15 0 108 -3 207 -8 99 -4 191 -6 205 -5 14 1 79 4
145 5 66 1 134 6 152 10 27 6 37 3 63 -21 32 -28 70 -48 70 -36 0 3 -8 12 -17
19 -25 17 -15 24 43 26 47 3 50 4 48 30 -2 23 1 26 15 19 14 -8 16 -1 13 70
l-4 79 36 0 c19 0 38 -5 42 -11z m-1126 -118 c0 -6 -9 -9 -19 -8 -11 0 -17 5
-15 9 7 11 34 10 34 -1z m-43 -107 c-3 -3 -12 -4 -19 -1 -8 3 -5 6 6 6 11 1
17 -2 13 -5z m43 -110 c0 -7 -8 -15 -17 -18 -11 -3 -7 -4 7 -3 14 1 28 6 31
11 4 5 10 -1 13 -12 5 -14 12 -19 23 -15 11 5 14 3 8 -6 -5 -8 -20 -11 -44 -8
-20 3 -28 3 -18 1 9 -3 14 -10 10 -16 -4 -8 0 -9 12 -4 10 4 28 0 42 -9 13 -9
39 -16 58 -17 22 -1 32 -5 28 -12 -4 -6 0 -5 9 1 8 7 17 10 20 8 36 -37 438
-5 438 34 0 5 7 8 16 7 9 0 19 4 21 11 3 9 -4 10 -29 2 -18 -5 -44 -9 -58 -8
l-25 0 25 10 c14 6 51 11 82 12 32 1 58 5 58 10 0 4 10 7 22 7 17 0 19 -3 10
-12 -14 -14 -16 -28 -4 -28 5 0 14 10 20 23 l12 22 -3 -24 c-2 -19 -14 -28
-62 -46 -38 -14 -54 -24 -45 -28 13 -6 13 -6 0 -6 -28 2 -40 -1 -40 -9 0 -5
15 -7 33 -6 l32 3 -30 -8 c-16 -4 -37 -4 -46 0 -9 5 -20 4 -25 -1 -5 -5 -48
-11 -96 -13 -65 -3 -91 -8 -104 -21 -13 -14 -14 -20 -5 -26 9 -5 6 -9 -9 -13
-20 -5 -22 -3 -16 26 4 23 3 28 -4 17 -6 -10 -10 -11 -10 -2 0 16 -37 16 -43
0 -4 -10 -8 -9 -16 2 -10 13 -12 13 -21 0 -9 -13 -10 -13 -10 0 0 13 -1 13
-10 0 -6 -10 -10 -11 -10 -2 0 6 -5 12 -10 12 -7 0 -7 -6 0 -20 9 -17 18 -19
65 -15 34 4 55 2 55 -5 0 -6 -41 -10 -107 -10 -83 0 -104 3 -95 12 7 7 12 21
11 33 0 20 0 20 -9 0 -7 -15 -9 -16 -9 -4 -1 20 -30 29 -98 29 -52 0 -52 0
-43 -26 13 -32 13 -34 -2 -34 -7 0 -24 -16 -37 -35 -13 -19 -27 -35 -31 -35
-18 0 -27 27 -18 58 8 29 11 32 36 25 25 -6 26 -5 12 13 -8 10 -21 25 -28 33
-10 11 -10 16 0 29 11 13 10 15 -3 10 -24 -9 -40 11 -28 33 5 10 10 29 11 43
1 15 10 29 20 32 10 3 18 9 18 14 0 4 14 3 30 -3 17 -6 30 -17 30 -23z m760
16 c0 -17 -7 -20 -50 -20 -27 0 -50 4 -50 9 0 8 50 24 93 30 4 1 7 -8 7 -19z
m-110 -15 c0 -8 -7 -15 -15 -15 -16 0 -20 12 -8 23 11 12 23 8 23 -8z m-372
-20 c9 -19 9 -24 -1 -22 -6 1 -15 7 -19 12 -5 7 -10 7 -15 0 -12 -15 -36 -18
-27 -3 26 45 46 49 62 13z m-99 -11 c8 -8 -95 -2 -119 6 -15 5 2 6 45 3 39 -3
72 -7 74 -9z m-126 -171 c-7 -2 -19 -2 -25 0 -7 3 -2 5 12 5 14 0 19 -2 13 -5z
m676 -39 c26 -44 21 -54 -28 -54 -28 0 -46 8 -74 34 -20 18 -37 36 -37 39 0 8
30 15 77 16 37 1 43 -2 62 -35z m134 -1 c-7 -2 -13 -12 -13 -20 0 -9 -3 -14
-6 -10 -10 10 4 37 18 36 10 0 10 -2 1 -6z"/>
<path d="M1838 883 c7 -3 16 -2 19 1 4 3 -2 6 -13 5 -11 0 -14 -3 -6 -6z"/>
<path d="M1708 873 c6 -2 18 -2 25 0 6 3 1 5 -13 5 -14 0 -19 -2 -12 -5z"/>
<path d="M1183 643 c9 -2 25 -2 35 0 9 3 1 5 -18 5 -19 0 -27 -2 -17 -5z"/>
<path d="M1128 633 c6 -2 18 -2 25 0 6 3 1 5 -13 5 -14 0 -19 -2 -12 -5z"/>
<path d="M420 476 c0 -8 8 -21 18 -28 10 -7 24 -22 30 -33 6 -11 12 -14 12 -7
0 7 -11 24 -25 38 -30 29 -31 35 -7 28 14 -5 15 -4 2 5 -21 15 -30 14 -30 -3z"/>
<path d="M1193 463 c16 -4 15 -7 -8 -19 -15 -8 -32 -14 -38 -14 -11 0 -36 -30
-37 -44 0 -5 8 -2 18 7 9 8 39 24 66 35 46 18 48 20 29 31 -12 6 -28 10 -35
10 -7 -1 -5 -3 5 -6z"/>
<path d="M798 373 c7 -3 16 -2 19 1 4 3 -2 6 -13 5 -11 0 -14 -3 -6 -6z"/>
<path d="M677 353 c-12 -11 -8 -43 6 -43 27 0 34 15 17 32 -9 10 -20 15 -23
11z m10 -25 c-3 -8 -6 -5 -6 6 -1 11 2 17 5 13 3 -3 4 -12 1 -19z"/>
<path d="M480 341 c0 -6 4 -13 10 -16 6 -3 7 1 4 9 -7 18 -14 21 -14 7z"/>
<path d="M2 945 c0 -16 2 -22 5 -12 2 9 2 23 0 30 -3 6 -5 -1 -5 -18z"/>
<path d="M31 954 c0 -11 3 -14 6 -6 3 7 2 16 -1 19 -3 4 -6 -2 -5 -13z"/>
<path d="M1983 893 c9 -2 23 -2 30 0 6 3 -1 5 -18 5 -16 0 -22 -2 -12 -5z"/>
</g>
</svg>
