<?xml version="1.0" standalone="no"?>
<!DOCTYPE svg PUBLIC "-//W3C//DTD SVG 20010904//EN"
 "http://www.w3.org/TR/2001/REC-SVG-20010904/DTD/svg10.dtd">
<svg version="1.0" xmlns="http://www.w3.org/2000/svg"
 width="180.000000pt" height="130.000000pt" viewBox="0 0 180.000000 130.000000"
 preserveAspectRatio="xMidYMid meet">

<g transform="translate(0.000000,130.000000) scale(0.100000,-0.100000)"
fill="#000000" stroke="none">
<path d="M1387 1210 c-10 -16 -29 -33 -43 -36 -25 -6 -31 -18 -14 -29 16 -10
12 -28 -5 -21 -8 3 -15 1 -15 -5 0 -6 -4 -8 -9 -4 -6 3 -29 0 -53 -6 -24 -6
-69 -12 -100 -13 -51 -2 -58 0 -61 18 -3 19 -5 18 -15 -6 -14 -34 -43 -36 -97
-7 -28 16 -60 22 -108 24 -38 1 -72 6 -75 12 -12 18 -70 14 -77 -6 -3 -11 -19
-21 -39 -24 -37 -6 -121 14 -110 26 4 4 2 7 -4 7 -7 0 -12 -5 -12 -12 0 -18
-14 0 -17 24 -3 20 -19 37 -34 38 -3 0 -15 -19 -27 -42 -12 -24 -22 -36 -22
-27 0 31 -110 41 -142 13 -21 -20 -153 -31 -173 -14 -9 7 -21 7 -39 0 -22 -8
-25 -14 -20 -35 7 -27 -10 -35 -20 -10 -3 8 -17 15 -31 15 l-25 0 0 -225 0
-225 69 3 69 2 7 50 c3 28 12 62 20 75 27 48 45 93 45 111 0 9 7 24 15 33 8 8
15 20 15 26 0 17 120 69 186 81 54 9 237 27 309 30 17 1 53 -1 80 -4 28 -3 91
-9 140 -12 74 -5 102 -13 160 -41 82 -40 202 -130 183 -136 -21 -8 -71 12 -94
37 -39 42 -167 105 -212 105 -23 0 -42 5 -42 10 0 13 -180 13 -200 0 -11 -8
-3 -10 30 -10 131 3 165 -5 153 -36 -4 -11 4 -14 32 -14 32 0 36 2 25 15 -10
12 -9 15 6 15 11 0 27 -7 37 -15 11 -7 36 -16 57 -20 31 -5 38 -10 35 -26 -3
-16 -1 -18 16 -8 26 14 32 8 16 -16 -8 -10 -27 -18 -45 -19 -18 0 -32 -5 -32
-9 0 -5 21 -5 46 -1 29 4 45 3 41 -3 -3 -5 -33 -9 -66 -9 -34 1 -61 -1 -61 -4
0 -3 -31 -6 -68 -8 -37 -2 -90 -7 -117 -12 -50 -9 398 -4 461 6 21 3 54 -9
119 -44 78 -41 93 -53 113 -92 12 -25 30 -47 40 -51 9 -3 61 -7 115 -8 l97 -1
0 275 c0 271 0 275 -21 275 -11 0 -18 -4 -15 -9 3 -4 -6 -13 -19 -19 -14 -7
-25 -15 -25 -19 0 -5 -4 -14 -9 -22 -8 -12 -11 -12 -23 0 -7 8 -18 24 -24 34
-6 11 -15 18 -19 17 -4 -2 -11 2 -15 8 -10 15 -90 14 -90 -1 0 -4 -9 -7 -19
-6 -13 1 -17 5 -11 12 11 13 7 48 -6 52 -5 2 -18 -11 -29 -27 -11 -16 -24 -30
-28 -30 -5 0 -6 4 -2 9 3 5 1 12 -5 16 -5 3 -10 1 -10 -4 0 -6 -7 -11 -15 -11
-18 0 -20 21 -3 38 7 7 8 12 2 12 -5 0 -18 -13 -27 -30z m120 5 c0 -8 -4 -12
-9 -9 -5 3 -6 10 -3 15 9 13 12 11 12 -6z m-47 -49 c0 -2 3 -11 6 -20 4 -11 0
-16 -13 -16 -27 0 -35 -10 -22 -27 9 -10 8 -13 -3 -13 -17 0 -45 46 -35 57 4
3 7 -1 7 -10 0 -10 5 -14 15 -11 8 4 12 11 9 16 -4 6 0 14 7 19 15 9 29 12 29
5z m43 -12 c-7 -3 -9 -13 -6 -22 7 -18 5 -17 -16 11 -12 15 -11 17 10 16 13 0
19 -3 12 -5z m157 -14 c0 -5 -2 -10 -4 -10 -3 0 -8 5 -11 10 -3 6 -1 10 4 10
6 0 11 -4 11 -10z m-1413 -52 c-3 -8 -6 -5 -6 6 -1 11 2 17 5 13 3 -3 4 -12 1
-19z m1243 18 c0 -2 -7 -6 -15 -10 -8 -3 -15 -1 -15 4 0 6 7 10 15 10 8 0 15
-2 15 -4z m-1200 -16 c0 -5 -5 -10 -11 -10 -5 0 -7 5 -4 10 3 6 8 10 11 10 2
0 4 -4 4 -10z m200 -10 c0 -11 -4 -20 -9 -20 -5 0 -7 9 -4 20 3 11 7 20 9 20
2 0 4 -9 4 -20z m420 -5 c0 -8 -4 -15 -10 -15 -5 0 -10 7 -10 15 0 8 5 15 10
15 6 0 10 -7 10 -15z m410 0 c0 -8 -2 -15 -4 -15 -2 0 -6 7 -10 15 -3 8 -1 15
4 15 6 0 10 -7 10 -15z m420 -5 c0 -5 -4 -10 -10 -10 -5 0 -10 5 -10 10 0 6 5
10 10 10 6 0 10 -4 10 -10z m-1152 -15 c3 -3 -11 -5 -32 -5 -22 0 -35 4 -31
10 6 10 52 6 63 -5z m908 -129 c24 -25 17 -46 -15 -46 -24 0 -29 4 -28 20 1
11 7 20 15 20 7 0 10 5 7 10 -9 15 4 12 21 -4z m94 -36 c0 -16 -4 -30 -10 -30
-5 0 -10 4 -10 9 0 14 -38 20 -44 7 -2 -6 -5 1 -5 17 -1 24 2 27 34 27 32 0
35 -2 35 -30z"/>
<path d="M1772 1220 c-11 -18 -10 -20 8 -20 13 0 20 7 20 20 0 11 -3 20 -8 20
-4 0 -13 -9 -20 -20z"/>
<path d="M368 973 c7 -3 16 -2 19 1 4 3 -2 6 -13 5 -11 0 -14 -3 -6 -6z"/>
<path d="M417 973 c-4 -3 -7 -13 -7 -22 1 -13 3 -13 11 2 11 19 8 33 -4 20z"/>
<path d="M315 960 c-3 -6 1 -7 9 -4 18 7 21 14 7 14 -6 0 -13 -4 -16 -10z"/>
<path d="M279 933 c-13 -16 -12 -17 4 -4 16 13 21 21 13 21 -2 0 -10 -8 -17
-17z"/>
<path d="M401 914 c0 -11 3 -14 6 -6 3 7 2 16 -1 19 -3 4 -6 -2 -5 -13z"/>
<path d="M552 854 c-3 -65 -19 -78 -86 -70 -38 4 -55 3 -51 -4 3 -5 20 -10 37
-10 19 0 41 -9 55 -21 18 -18 25 -20 37 -10 9 8 27 10 46 6 34 -7 35 -5 18 42
-9 24 -17 32 -29 28 -15 -5 -18 2 -22 37 l-4 43 -1 -41z"/>
<path d="M251 848 c-1 -28 3 -38 14 -38 9 0 15 9 15 23 0 17 -2 19 -9 8 -7
-11 -10 -7 -14 15 -3 25 -4 24 -6 -8z"/>
<path d="M393 840 c0 -25 2 -35 4 -22 2 12 2 32 0 45 -2 12 -4 2 -4 -23z"/>
<path d="M719 858 c-11 -38 -7 -48 16 -48 28 0 29 3 15 31 -9 16 -28 26 -31
17z"/>
<path d="M640 840 c0 -6 12 -15 26 -20 37 -15 40 -12 11 10 -28 22 -37 25 -37
10z"/>
<path d="M215 720 c3 -5 10 -10 16 -10 5 0 9 5 9 10 0 6 -7 10 -16 10 -8 0
-12 -4 -9 -10z"/>
<path d="M350 690 c0 -5 9 -10 20 -10 11 0 20 5 20 10 0 6 -9 10 -20 10 -11 0
-20 -4 -20 -10z"/>
<path d="M1413 673 c15 -2 37 -2 50 0 12 2 0 4 -28 4 -27 0 -38 -2 -22 -4z"/>
<path d="M1238 663 c23 -2 59 -2 80 0 20 2 1 4 -43 4 -44 0 -61 -2 -37 -4z"/>
<path d="M1026 625 c16 -22 29 -42 31 -44 2 -2 3 0 3 5 0 5 -14 25 -31 44
l-30 35 27 -40z"/>
<path d="M1078 653 c17 -2 47 -2 65 0 17 2 3 4 -33 4 -36 0 -50 -2 -32 -4z"/>
<path d="M1392 646 c-63 -16 -76 -26 -36 -27 l29 -1 -29 -8 c-32 -10 -86 -2
-86 12 0 5 -41 8 -92 7 -90 -2 -91 -2 -70 -20 68 -55 301 -49 354 9 20 22 20
24 4 18 -16 -5 -17 -4 -6 9 15 19 7 19 -68 1z m25 -22 c-3 -3 -12 -4 -19 -1
-8 3 -5 6 6 6 11 1 17 -2 13 -5z m-239 -11 c-10 -2 -28 -2 -40 0 -13 2 -5 4
17 4 22 1 32 -1 23 -4z"/>
<path d="M943 643 c-15 -5 -17 -23 -4 -23 5 0 11 7 15 15 3 8 4 15 3 14 -1 0
-8 -3 -14 -6z"/>
<path d="M1293 635 c0 -8 2 -15 4 -15 3 0 11 7 19 15 14 13 13 15 -4 15 -10 0
-19 -7 -19 -15z"/>
<path d="M153 623 c-7 -3 -13 -11 -13 -19 0 -8 -6 -11 -15 -8 -8 4 -15 1 -15
-5 0 -6 5 -11 10 -11 6 0 10 -19 10 -42 0 -42 -12 -43 -24 -3 -3 11 -4 8 -2
-8 3 -21 0 -27 -13 -25 -10 2 -15 12 -13 27 3 21 1 22 -30 16 -18 -4 -36 -9
-40 -12 -16 -9 -7 -23 13 -23 11 0 18 -4 15 -9 -3 -5 17 -9 45 -9 28 -1 52 -2
54 -4 1 -2 5 -26 8 -55 3 -28 10 -60 15 -69 13 -24 -20 -60 -45 -49 -10 5 -29
9 -43 11 -14 2 -18 0 -10 -3 8 -3 23 -13 34 -22 10 -9 26 -16 35 -17 66 -4 66
-4 51 -14 -12 -8 -11 -10 5 -10 11 0 30 7 43 15 18 13 21 13 16 2 -5 -14 24
-33 34 -22 3 3 0 5 -7 5 -7 0 -9 5 -6 10 3 6 18 10 33 10 23 -1 25 -2 9 -11
-9 -6 -15 -14 -12 -20 4 -5 -1 -9 -9 -9 -20 0 -20 -11 -1 -36 15 -19 16 -19
13 1 -2 11 2 20 7 20 6 0 16 4 23 8 6 5 17 5 23 1 8 -4 2 -12 -15 -21 -48 -25
-26 -43 52 -42 36 0 42 3 27 9 l-20 9 20 0 c11 0 31 -6 45 -14 l25 -14 -30 -2
-30 -1 30 -8 c17 -4 41 -8 55 -8 21 -1 22 0 6 7 -32 12 4 20 71 16 42 -3 51
-2 33 4 -25 9 -23 12 17 16 12 1 20 -1 18 -6 -3 -4 -1 -10 4 -13 5 -4 12 3 16
14 3 11 10 20 15 20 11 0 21 -30 14 -41 -3 -5 0 -9 5 -9 6 0 11 5 11 11 0 7
23 9 72 5 46 -4 76 -2 85 5 10 9 13 8 13 -5 0 -9 7 -16 15 -16 8 0 15 5 15 11
0 6 6 9 14 6 8 -3 17 -3 21 1 9 10 94 9 88 0 -2 -5 1 -8 6 -8 6 0 11 5 11 11
0 6 7 9 15 5 9 -3 15 0 15 10 0 16 11 16 54 -2 14 -5 17 -4 12 4 -5 8 1 12 16
13 54 2 117 6 178 13 110 12 139 13 137 3 -1 -6 25 -12 58 -14 37 -2 55 0 47
5 -7 5 -24 7 -38 4 -14 -2 -24 0 -24 7 0 6 11 11 23 11 13 0 26 3 30 6 8 8
107 11 107 3 0 -8 61 -9 73 -2 6 3 -3 12 -19 20 -29 13 -29 13 14 9 50 -5 55
7 10 22 l-33 10 33 1 c25 1 32 5 32 20 0 12 -8 21 -22 24 l-23 4 22 2 c20 1
22 6 21 59 -1 37 -3 48 -7 32 -4 -15 -10 -20 -14 -13 -4 6 -16 9 -27 6 -11 -3
-20 -1 -20 5 0 6 -3 18 -6 27 -4 10 -2 15 7 13 8 -2 14 3 14 11 0 9 -12 14
-33 15 -17 1 -32 -2 -32 -6 0 -4 -16 -5 -35 -4 -21 3 -35 -1 -35 -8 0 -6 -7
-3 -14 7 -7 9 -19 17 -27 17 -11 0 -11 -2 1 -10 10 -6 11 -10 3 -10 -7 0 -13
-6 -13 -14 0 -22 -42 -64 -70 -70 -18 -4 -16 -2 8 9 38 18 57 57 62 125 l2 25
8 -25 c8 -25 8 -25 9 -2 1 15 5 21 13 16 6 -4 8 -3 4 4 -3 5 -1 12 6 14 7 3 2
7 -10 10 -12 4 -20 3 -17 -2 12 -19 -217 -47 -445 -56 -107 -3 -144 -8 -142
-17 7 -26 77 -100 104 -112 27 -11 21 -13 -74 -20 -109 -8 -176 -8 -219 1 -22
4 -31 18 -58 90 -18 47 -45 100 -61 117 -25 28 -31 30 -56 22 -35 -13 -53 -57
-53 -132 -1 -41 -5 -53 -17 -53 -13 0 -115 19 -239 45 -16 3 -36 6 -44 7 -7 1
-29 34 -48 74 -35 72 -47 85 -70 77z m46 -108 c3 -55 4 -60 15 -67 8 -5 8 -8
0 -8 -6 0 -9 -12 -6 -29 5 -36 -16 -51 -35 -26 -25 35 -11 177 16 160 5 -2 9
-16 10 -30z m1158 -17 c-3 -7 -5 -2 -5 12 0 14 2 19 5 13 2 -7 2 -19 0 -25z
m63 -18 c9 0 11 3 4 8 -6 4 -13 15 -17 25 -5 14 -1 17 23 17 26 0 30 -4 30
-29 0 -24 -5 -29 -30 -33 -23 -3 -31 0 -36 14 -3 10 -10 16 -15 13 -5 -4 -9 4
-9 17 1 22 1 22 18 -4 9 -16 23 -28 32 -28z m-200 9 c0 -28 3 -31 23 -25 12 3
37 6 55 6 28 0 32 3 33 28 l1 27 7 -25 c5 -18 14 -24 29 -23 12 2 22 -2 22 -7
0 -6 -11 -10 -23 -10 -13 0 -58 -3 -100 -6 l-77 -7 0 37 c0 25 4 36 15 36 10
0 15 -10 15 -31z m85 23 c14 -10 17 -32 5 -32 -5 0 -10 8 -11 18 0 14 -2 14
-9 -3 l-9 -20 -1 20 -1 20 -9 -20 c-7 -16 -9 -17 -9 -3 -1 9 -9 19 -18 21 -10
3 -2 5 17 6 19 0 40 -3 45 -7z m-615 -23 c0 -6 -4 -8 -9 -5 -5 3 -11 0 -14 -8
-8 -21 21 -28 33 -8 10 15 11 15 5 -3 -12 -36 -10 -40 10 -38 11 1 14 0 8 -3
-7 -3 -13 -12 -13 -19 0 -7 6 -16 13 -18 6 -3 4 -6 -7 -6 -19 -1 -19 -1 0 -22
19 -22 19 -22 -6 -14 -25 8 -25 8 -6 -13 15 -18 16 -24 6 -37 -18 -22 -57 -18
-74 7 -18 26 -20 38 -6 38 6 0 10 -6 10 -13 0 -7 9 -18 20 -25 11 -7 20 -8 20
-4 0 16 -50 63 -60 57 -6 -4 -10 14 -10 45 0 42 3 51 15 46 17 -6 21 9 5 19
-6 4 -7 11 -4 17 4 6 10 5 15 -3 7 -11 9 -11 9 1 0 9 9 16 20 17 11 1 20 -3
20 -8z m959 -36 c1 10 5 16 10 12 5 -3 13 0 17 6 5 9 11 7 21 -6 21 -29 16
-35 -27 -31 -22 2 -40 1 -40 -3 0 -12 -39 -6 -52 7 -9 9 -9 12 0 12 7 0 12 -5
12 -10 0 -16 40 13 41 30 1 8 5 4 9 -10 6 -18 8 -20 9 -7z m-1266 -50 c7 -6
51 -14 90 -16 11 -1 17 -9 17 -24 0 -23 0 -23 -19 -4 -14 14 -30 19 -53 16
-113 -14 -118 -14 -118 5 0 14 9 20 33 23 17 2 35 5 38 5 3 1 9 -1 12 -5z
m1050 -10 c-7 -2 -19 -2 -25 0 -7 3 -2 5 12 5 14 0 19 -2 13 -5z m-78 -16
c-16 -7 -48 -12 -70 -11 -22 2 -62 4 -90 5 l-50 2 60 7 c33 4 87 7 120 8 57 1
58 1 30 -11z m381 -34 c-11 -11 -19 6 -11 24 8 17 8 17 12 0 3 -10 2 -21 -1
-24z m-1549 -29 c-3 -3 -12 -4 -19 -1 -8 3 -5 6 6 6 11 1 17 -2 13 -5z m188
-125 c-4 -5 -16 -9 -28 -9 -21 1 -21 1 -3 15 20 15 41 11 31 -6z"/>
<path d="M176 407 c3 -10 9 -15 12 -12 3 3 0 11 -7 18 -10 9 -11 8 -5 -6z"/>
<path d="M660 420 c-13 -8 -12 -10 3 -10 9 0 17 5 17 10 0 12 -1 12 -20 0z"/>
<path d="M660 391 c0 -5 5 -13 10 -16 6 -3 10 -2 10 4 0 5 -4 13 -10 16 -5 3
-10 2 -10 -4z"/>
<path d="M680 321 c0 -5 5 -13 10 -16 6 -3 10 -2 10 4 0 5 -4 13 -10 16 -5 3
-10 2 -10 -4z"/>
<path d="M1710 620 c0 -5 7 -10 15 -10 8 0 15 5 15 10 0 6 -7 10 -15 10 -8 0
-15 -4 -15 -10z"/>
<path d="M43 583 c9 -2 23 -2 30 0 6 3 -1 5 -18 5 -16 0 -22 -2 -12 -5z"/>
<path d="M1688 573 c6 -2 18 -2 25 0 6 3 1 5 -13 5 -14 0 -19 -2 -12 -5z"/>
<path d="M1695 550 c-3 -5 1 -10 9 -10 9 0 16 5 16 10 0 6 -4 10 -9 10 -6 0
-13 -4 -16 -10z"/>
<path d="M800 523 c1 -24 34 -96 51 -109 32 -25 97 -24 128 2 8 7 -77 88 -111
105 -46 24 -68 24 -68 2z"/>
<path d="M274 509 c-16 -6 -15 -8 8 -8 14 -1 34 -4 44 -8 11 -4 15 -2 12 7 -5
15 -36 20 -64 9z"/>
<path d="M1758 479 c-5 -34 1 -36 25 -9 21 25 21 27 -2 33 -15 4 -20 -2 -23
-24z"/>
<path d="M525 480 c-3 -5 1 -13 10 -16 22 -9 29 1 11 15 -10 8 -16 9 -21 1z"/>
<path d="M190 250 l-35 -7 43 -2 c23 0 42 4 42 9 0 6 -3 9 -7 9 -5 -1 -24 -5
-43 -9z"/>
<path d="M168 213 c6 -2 18 -2 25 0 6 3 1 5 -13 5 -14 0 -19 -2 -12 -5z"/>
<path d="M120 191 c0 -10 24 -21 46 -21 9 0 12 5 9 10 -4 6 -10 8 -15 5 -5 -3
-11 -1 -15 5 -8 12 -25 13 -25 1z"/>
<path d="M1633 193 c9 -2 25 -2 35 0 9 3 1 5 -18 5 -19 0 -27 -2 -17 -5z"/>
<path d="M228 173 c7 -3 16 -2 19 1 4 3 -2 6 -13 5 -11 0 -14 -3 -6 -6z"/>
<path d="M1768 173 c6 -2 18 -2 25 0 6 3 1 5 -13 5 -14 0 -19 -2 -12 -5z"/>
<path d="M1116 162 c-3 -5 8 -6 25 -4 16 2 29 6 29 8 0 8 -49 4 -54 -4z"/>
<path d="M1200 150 c0 -6 7 -10 15 -10 8 0 15 2 15 4 0 2 -7 6 -15 10 -8 3
-15 1 -15 -4z"/>
<path d="M1008 143 c6 -2 18 -2 25 0 6 3 1 5 -13 5 -14 0 -19 -2 -12 -5z"/>
<path d="M528 132 l-528 -2 0 -65 0 -65 900 0 900 0 0 65 0 65 -372 2 c-205 2
-610 2 -900 0z m-337 -61 c0 -12 2 -12 9 4 7 17 9 14 9 -13 1 -30 -1 -33 -21
-26 -13 4 -44 6 -70 5 -45 -2 -48 0 -48 23 0 28 13 33 77 27 31 -2 43 -7 44
-20z m1386 -27 c-3 -3 -12 -4 -19 -1 -8 3 -5 6 6 6 11 1 17 -2 13 -5z m76 -1
c-7 -2 -21 -2 -30 0 -10 3 -4 5 12 5 17 0 24 -2 18 -5z"/>
</g>
</svg>
