<svg width="24" height="24" viewBox="0 0 24 24" fill="none" xmlns="http://www.w3.org/2000/svg">
<circle cx="12" cy="12" r="12" fill="#705DE8"/>
<path d="M8.08473 17.6166C7.21923 17.117 6.51685 16.5297 5.97758 15.855C5.44437 15.1698 5.09989 14.4258 4.94413 13.623L8.31656 12.4253C8.40633 12.9524 8.53923 13.3925 8.71527 13.7457C8.89737 14.0885 9.14146 14.3482 9.44755 14.5249C10.2497 14.988 10.9141 14.7636 11.4406 13.8516L13.8554 9.66906L10.0873 7.49356L11.7033 4.6947L19.1603 9L15.2566 15.7613C14.3851 17.2708 13.344 18.1722 12.1332 18.4655C10.9225 18.7588 9.57296 18.4759 8.08473 17.6166Z" fill="white"/>
</svg>
